<?xml version="1.0" encoding="utf-8"?>
<!-- Generator: Adobe Illustrator 23.0.1, SVG Export Plug-In . SVG Version: 6.00 Build 0)  -->
<svg version="1.1" id="Layer_1" xmlns="http://www.w3.org/2000/svg" xmlns:xlink="http://www.w3.org/1999/xlink" x="0px" y="0px"
	 viewBox="0 0 295.2 215" style="enable-background:new 0 0 295.2 215;" xml:space="preserve">
<style type="text/css">
	.st0{fill:#414141;}
	.st1{fill:#F76921;}
</style>
<title>criteria</title>
<path class="st0" d="M164.8,182h-9.7c-1,0-1.8-0.8-1.8-1.8l0,0v-66.9H50.8v66.9c0,1-0.8,1.8-1.8,1.8c0,0,0,0,0,0h-9.7
	c-1,0-1.8-0.8-1.8-1.8c0,0,0,0,0,0v-72.8c0-4.1,3.3-7.4,7.3-7.4c0,0,0,0,0,0h107.4c4.1,0,14.4,8.3,14.4,12.4v67.9
	C166.6,181.2,165.8,182,164.8,182z M156.9,178.4h6.1v-68c0-2.1-4.7-6.8-6.8-6.8H44.9c-2.1,0-3.8,1.7-3.8,3.8v71.1h6.1v-66.9
	c0-1,0.8-1.8,1.8-1.8h106c1,0,1.8,0.8,1.8,1.8v0L156.9,178.4z"/>
<path class="st0" d="M178.4,193.1H25.7c-0.6,0-1.1-0.3-1.5-0.7c-0.6-0.8-2.6-3.7-3-5.2c-0.5-1.8-0.2-5.9-0.1-7.2
	c0.1-0.9,0.9-1.7,1.8-1.6h68.7c1,0,1.8,0.8,1.8,1.8v1.6h17.2v-1.6c0-1,0.8-1.8,1.8-1.8h68.7c0.9,0,1.7,0.7,1.8,1.6
	c0.1,1.2,0.4,5.4-0.1,7.2c-0.4,1.5-2.4,4.3-3,5.2C179.6,192.9,179,193.2,178.4,193.1z M26.7,189.5h150.8c0.8-1,1.4-2.1,2-3.3
	c0.2-1.4,0.2-2.8,0.1-4.2h-65.3v1.6c0,1-0.8,1.8-1.8,1.8h0H91.7c-1,0-1.8-0.8-1.8-1.8l0,0V182H24.6c-0.1,1.4-0.1,2.8,0.1,4.2
	C25.2,187.4,25.9,188.5,26.7,189.5z"/>
<path class="st0" d="M49.8,167.8l-1.6-3.2l28.2-14.1c0.5-0.3,1.1-0.3,1.7,0l12.2,6.6l24.4-9.7c0.5-0.2,1.1-0.2,1.6,0.1l11.4,6.7
	l26.6-11.6l1.4,3.3l-27.5,12c-0.5,0.2-1.1,0.2-1.6-0.1l-11.4-6.8l-24.4,9.7c-0.5,0.2-1.1,0.2-1.5-0.1l-12.2-6.6L49.8,167.8z"/>
<rect x="61.9" y="121.9" class="st0" width="30.6" height="3.6"/>
<rect x="61.9" y="129.7" class="st0" width="17.4" height="3.6"/>
<path class="st0" d="M159.6,89.6c-0.6,0-1.1-0.3-1.4-0.8c-3.7-5.7-6-12.2-6.5-19c-0.1-0.9,0.6-1.7,1.5-1.8c0.4,0,0.9,0,1.3,0
	c6.4,0,11.5,5.2,11.5,11.6c0,4-2.1,7.7-5.5,9.8C160.2,89.5,159.9,89.6,159.6,89.6z M155.3,71.5c0.6,4.9,2.3,9.7,4.8,13.9
	c3.2-3.1,3.4-8.2,0.3-11.5C159,72.6,157.2,71.7,155.3,71.5z"/>
<rect x="199.2" y="49.8" transform="matrix(0.7071 -0.7071 0.7071 0.7071 19.4709 158.4182)" class="st0" width="3.4" height="11.8"/>
<rect x="156.9" y="60.3" transform="matrix(0.6962 -0.7179 0.7179 0.6962 7.682 142.135)" class="st0" width="29.6" height="3.4"/>
<path class="st0" d="M189.5,56.5c-6.4,0-11.6-5.2-11.6-11.6s5.2-11.5,11.6-11.5c6.4,0,11.6,5.2,11.6,11.6
	C201.1,51.3,195.9,56.5,189.5,56.5z M189.5,36.8c-4.5,0-8.1,3.6-8.1,8.1c0,4.5,3.6,8.1,8.1,8.1c4.5,0,8.1-3.6,8.1-8.1c0,0,0,0,0,0
	C197.6,40.5,194,36.8,189.5,36.8z"/>
<path class="st0" d="M211.9,78.6c-6.4,0-11.6-5.2-11.6-11.6c0-6.4,5.2-11.5,11.6-11.5c6.4,0,11.5,5.2,11.5,11.5
	C223.4,73.4,218.3,78.6,211.9,78.6z M211.9,58.9c-4.5,0-8.1,3.6-8.1,8.1s3.6,8.1,8.1,8.1c4.5,0,8.1-3.6,8.1-8.1c0,0,0,0,0,0
	C220,62.5,216.4,58.9,211.9,58.9z"/>
<path class="st1" d="M235.5,125.3c-0.5,0-0.9-0.2-1.2-0.5l-15.2-15.2l-0.2-0.2c-0.4-0.4-0.5-0.9-0.5-1.4c0-0.5,0.3-1,0.7-1.3
	c2.5-1.7,4.7-3.6,6.8-5.7c2.1-2.1,3.9-4.3,5.6-6.7c0.3-0.4,0.7-0.7,1.2-0.7c0.5-0.1,1,0.1,1.4,0.4l0.3,0.2l15.2,15.2
	c0.3,0.3,0.5,0.8,0.5,1.2c0,0.5-0.2,0.9-0.5,1.2l-12.9,12.8C236.4,125.1,236,125.3,235.5,125.3z M222.7,108.3l12.8,12.8l10.4-10.4
	l-12.8-12.8c-1.5,1.9-3.1,3.8-4.8,5.5C226.6,105.1,224.7,106.8,222.7,108.3L222.7,108.3z"/>
<path class="st1" d="M264,150c-2.9,0-5.6-1.1-7.6-3.2l-22.1-22.1c-0.7-0.7-0.7-1.8,0-2.4l12.9-12.8c0.7-0.7,1.8-0.7,2.4,0l22.1,22.1
	c4.2,4.2,4.2,11.1,0,15.3C269.6,148.9,266.9,150,264,150z M238,123.6l20.9,20.9c3.1,2.6,7.8,2.3,10.4-0.8c2.3-2.8,2.3-6.8,0-9.6
	l-20.9-20.9L238,123.6z"/>
<path class="st1" d="M191.7,118.6L191.7,118.6c-28.6,0-51.9-23.2-51.9-51.8c0-13.8,5.5-27,15.2-36.7c20.5-20,53.3-19.6,73.4,0.9
	c19.7,20.2,19.7,52.3,0,72.5C218.7,113.2,205.4,118.6,191.7,118.6z M191.7,18.3c-26.8,0-48.4,21.7-48.4,48.4s21.7,48.4,48.4,48.4
	s48.4-21.7,48.4-48.4c0-12.8-5.1-25.2-14.2-34.3C216.9,23.4,204.5,18.3,191.7,18.3L191.7,18.3z M191.7,106.9
	c-22.2,0-40.1-18-40.1-40.1c0-22.2,18-40.1,40.1-40.1c22.2,0,40.1,18,40.1,40.1c0,10.6-4.2,20.8-11.8,28.4
	C212.6,102.7,202.3,106.9,191.7,106.9L191.7,106.9z M191.7,30C171.4,30,155,46.5,155,66.7c0,20.3,16.4,36.7,36.7,36.7
	s36.7-16.4,36.7-36.7c0-9.7-3.9-19.1-10.7-26C210.8,33.9,201.4,30,191.7,30L191.7,30z"/>
<rect x="237.4" y="120" transform="matrix(0.7071 -0.7071 0.7071 0.7071 -13.8449 209.9593)" class="st1" width="18.2" height="3.4"/>
<rect x="215.3" y="48.7" transform="matrix(0.7383 -0.6744 0.6744 0.7383 26.2688 168.493)" class="st0" width="29.9" height="3.4"/>
<path class="st0" d="M248.3,44.9c-6.4,0-11.6-5.2-11.6-11.6s5.2-11.5,11.6-11.5s11.6,5.2,11.6,11.6
	C259.8,39.7,254.6,44.9,248.3,44.9z M248.3,25.2c-4.5,0-8.1,3.6-8.1,8.1s3.6,8.1,8.1,8.1s8.1-3.6,8.1-8.1
	C256.4,28.9,252.7,25.2,248.3,25.2z"/>
</svg>
