<svg id="Layer_1" data-name="Layer 1" xmlns="http://www.w3.org/2000/svg" viewBox="0 0 265 265"><defs><style>.cls-1{fill:#c8c8c8;}.cls-2{fill:#0077c4;}.cls-3{fill:#414141;}.cls-4{fill:#707070;}</style></defs><title>developed-markets</title><g id="developed-markets"><rect id="bar-49" class="cls-1" x="122.58" y="35.13" width="44" height="5" transform="translate(89.45 176.48) rotate(-82.93)"/><rect id="bar-48" class="cls-1" x="135.37" y="37.61" width="44" height="5" transform="translate(78.03 181.82) rotate(-75.06)"/><rect id="bar-47" class="cls-1" x="147.37" y="41.7" width="44" height="5" transform="translate(63.41 183.52) rotate(-67.37)"/><rect id="bar-46" class="cls-1" x="157.74" y="46.78" width="44" height="5" transform="translate(48.09 181.2) rotate(-60.39)"/><rect id="bar-45" class="cls-1" x="168.6" y="53.98" width="44" height="5" transform="translate(29.78 173.33) rotate(-52.51)"/><rect id="bar-44" class="cls-1" x="178.01" y="62.24" width="44" height="5" transform="translate(12.7 160.19) rotate(-44.94)"/><rect id="bar-43" class="cls-1" x="185.66" y="70.9" width="44" height="5" transform="translate(-1.24 143.19) rotate(-37.94)"/><rect id="bar-42" class="cls-1" x="192.94" y="81.7" width="44" height="5" transform="translate(-13.28 118.95) rotate(-30.05)"/><rect id="bar-41" class="cls-1" x="198.54" y="93.08" width="44" height="5" transform="translate(-19.78 91.2) rotate(-22.39)"/><rect id="bar-40" class="cls-1" x="202.28" y="104.01" width="44" height="5" transform="matrix(0.96, -0.27, 0.27, 0.96, -20.22, 63.31)"/><rect id="bar-39" class="cls-1" x="204.87" y="116.78" width="44" height="5" transform="translate(-13.62 30.62) rotate(-7.5)"/><rect id="bar-38" class="cls-1" x="225.18" y="109.78" width="5" height="44" transform="translate(95.62 359.29) rotate(-89.93)"/><rect id="bar-37" class="cls-1" x="224.46" y="121.31" width="5" height="44" transform="translate(56.85 350.93) rotate(-82.94)"/><rect id="bar-36" class="cls-1" x="221.98" y="134.09" width="5" height="44" transform="translate(15.77 332.72) rotate(-75.05)"/><rect id="bar-35" class="cls-1" x="217.89" y="146.1" width="5" height="44" transform="translate(-19.54 306.89) rotate(-67.38)"/><rect id="bar-34" class="cls-1" x="212.81" y="156.47" width="5" height="44" transform="translate(-46.23 277.49) rotate(-60.39)"/><rect id="bar-33" class="cls-1" x="205.61" y="167.33" width="5" height="44" transform="translate(-68.78 239.22) rotate(-52.51)"/><rect id="bar-31" class="cls-1" x="197.35" y="176.74" width="5" height="44" transform="translate(-82 199.16) rotate(-44.93)"/><rect id="bar-30" class="cls-1" x="188.69" y="184.38" width="5" height="44" transform="translate(-86.49 161.17) rotate(-37.94)"/><rect id="bar-29" class="cls-1" x="177.89" y="191.67" width="5" height="44" transform="translate(-82.76 119.07) rotate(-30.05)"/><rect id="bar-28" class="cls-1" x="166.51" y="197.27" width="5" height="44" transform="translate(-70.76 80.87) rotate(-22.38)"/><rect id="bar-27" class="cls-1" x="155.58" y="201.01" width="5" height="44" transform="translate(-53.52 49.96) rotate(-15.39)"/><rect id="bar-26" class="cls-1" x="142.81" y="203.6" width="5" height="44" transform="matrix(0.99, -0.14, 0.14, 0.99, -29.8, 22.26)"/><rect id="bar-25" class="cls-1" x="130.31" y="204.41" width="5" height="44" transform="translate(-8.82 5.41) rotate(-2.26)"/><rect id="bar-24" class="cls-1" x="99.29" y="223.19" width="44" height="5" transform="translate(-117.61 318.29) rotate(-82.93)"/><rect id="bar-23" class="cls-1" x="86.5" y="220.7" width="44" height="5" transform="translate(-135.14 270.48) rotate(-75.06)"/><rect id="bar-22" class="cls-1" x="74.49" y="216.62" width="44" height="5" transform="translate(-142.89 223.88) rotate(-67.37)"/><rect id="bar-21" class="cls-1" x="64.12" y="211.54" width="44" height="5" transform="translate(-142.52 183.16) rotate(-60.39)"/><rect id="bar-20" class="cls-1" x="53.26" y="204.34" width="44" height="5" transform="translate(-134.66 140.66) rotate(-52.51)"/><rect id="bar-19" class="cls-1" x="43.85" y="196.07" width="44" height="5" transform="translate(-120.04 102.59) rotate(-44.35)"/><rect id="bar-18" class="cls-1" x="36.21" y="187.41" width="44" height="5" transform="translate(-104.46 75.92) rotate(-37.94)"/><rect id="bar-17" class="cls-1" x="28.92" y="176.61" width="44" height="5" transform="translate(-82.85 49.57) rotate(-30.05)"/><rect id="bar-16" class="cls-1" x="23.32" y="165.24" width="44" height="5" transform="translate(-60.47 29.9) rotate(-22.39)"/><rect id="bar-15" class="cls-1" x="19.58" y="154.31" width="44" height="5" transform="matrix(0.96, -0.27, 0.27, 0.96, -40.11, 16.65)"/><rect id="bar-14" class="cls-1" x="16.99" y="141.54" width="44" height="5" transform="translate(-18.46 6.32) rotate(-7.5)"/><rect id="bar-13" class="cls-1" x="35.68" y="109.54" width="5" height="44" transform="translate(-93.41 169.56) rotate(-89.93)"/><rect id="bar-12" class="cls-1" x="36.4" y="98.01" width="5" height="44" transform="translate(-84.98 143.87) rotate(-82.94)"/><rect id="bar-11" class="cls-1" x="38.89" y="85.22" width="5" height="44" transform="translate(-72.88 119.56) rotate(-75.05)"/><rect id="bar-10" class="cls-1" x="42.97" y="73.22" width="5" height="44" transform="translate(-59.91 100.57) rotate(-67.38)"/><rect id="bar-09" class="cls-1" x="48.05" y="62.85" width="5" height="44" transform="translate(-48.19 86.88) rotate(-60.39)"/><rect id="bar-08" class="cls-1" x="55.25" y="51.99" width="5" height="44" transform="translate(-36.1 74.78) rotate(-52.51)"/><rect id="bar-07" class="cls-2" x="63.52" y="42.58" width="5" height="44" transform="translate(-26.33 65.48) rotate(-44.93)"/><rect id="bar-06" class="cls-2" x="72.18" y="34.93" width="5" height="44" transform="translate(-19.22 57.95) rotate(-37.94)"/><rect id="bar-05" class="cls-2" x="82.98" y="27.65" width="5" height="44" transform="translate(-13.37 49.48) rotate(-30.05)"/><rect id="bar-04" class="cls-2" x="94.35" y="22.05" width="5" height="44" transform="translate(-9.48 40.2) rotate(-22.38)"/><rect id="bar-03" class="cls-2" x="105.28" y="18.31" width="5" height="44" transform="translate(-6.83 30.05) rotate(-15.39)"/><rect id="bar-02" class="cls-2" x="118.05" y="15.72" width="5" height="44" transform="translate(-3.9 16.07) rotate(-7.51)"/><rect id="bar-01" class="cls-2" x="111.05" y="34.41" width="44" height="5" transform="translate(95.99 169.92) rotate(-89.93)"/><g id="label"><path class="cls-2" d="M110.66,112.59V109l9.79-10.62A37.13,37.13,0,0,0,123,95.34,11,11,0,0,0,124.26,93a6,6,0,0,0,.38-2.06,4.9,4.9,0,0,0-1.17-3.41,4.09,4.09,0,0,0-3.23-1.3,4.67,4.67,0,0,0-3.73,1.5,5.85,5.85,0,0,0-1.29,4h-5.14a9.84,9.84,0,0,1,1.22-4.85,8.8,8.8,0,0,1,3.53-3.47,11.17,11.17,0,0,1,5.47-1.28,11.86,11.86,0,0,1,5.12,1A7.44,7.44,0,0,1,128.67,86a8.5,8.5,0,0,1,1.11,4.41,10.22,10.22,0,0,1-1.57,5.28,33.63,33.63,0,0,1-4.58,5.79l-6.53,7h13.84v4.13Z"/><path class="cls-2" d="M135.16,112.59V109L145,98.42a37.13,37.13,0,0,0,2.52-3.08A11,11,0,0,0,148.76,93a6,6,0,0,0,.38-2.06A4.9,4.9,0,0,0,148,87.54a4.09,4.09,0,0,0-3.23-1.3,4.64,4.64,0,0,0-3.72,1.5,5.81,5.81,0,0,0-1.3,4h-5.14a9.84,9.84,0,0,1,1.22-4.85,8.8,8.8,0,0,1,3.53-3.47,11.17,11.17,0,0,1,5.47-1.28,11.94,11.94,0,0,1,5.13,1A7.47,7.47,0,0,1,153.17,86a8.5,8.5,0,0,1,1.11,4.41,10.22,10.22,0,0,1-1.57,5.28,33.63,33.63,0,0,1-4.58,5.79l-6.53,7h13.84v4.13Z"/><path class="cls-3" d="M107,178.26v-24l-7.33,2.46v-4.3l11.83-4.33h.64v30.17Z"/><path class="cls-3" d="M143.69,171.59H140v6.67h-5.14v-6.67H121.92l-.14-3.14,12.9-20.26H140v19.27h3.72Zm-8.86-4.13V155.15l-.38.66-7.33,11.65Z"/><path class="cls-3" d="M156,178.26v-24l-7.33,2.46v-4.3l11.83-4.33h.65v30.17Z"/><path class="cls-4" d="M110.23,136.52a5.24,5.24,0,0,1-9.57,0,7.91,7.91,0,0,1-.69-3.4v-1.5a8.07,8.07,0,0,1,.68-3.41,5.27,5.27,0,0,1,1.92-2.26,5.61,5.61,0,0,1,5.74,0,5.27,5.27,0,0,1,1.92,2.26,8.2,8.2,0,0,1,.67,3.41v1.5A8.07,8.07,0,0,1,110.23,136.52Zm-1-7.8a4,4,0,0,0-1.48-1.87,4.3,4.3,0,0,0-4.58,0,4.17,4.17,0,0,0-1.48,1.87,7.4,7.4,0,0,0-.51,2.87v1.52a7.3,7.3,0,0,0,.52,2.88,4.14,4.14,0,0,0,1.49,1.88,3.92,3.92,0,0,0,2.28.66,4,4,0,0,0,2.31-.66,4.06,4.06,0,0,0,1.46-1.87,7.51,7.51,0,0,0,.5-2.89v-1.52A7.33,7.33,0,0,0,109.21,128.72Z"/><path class="cls-4" d="M123.76,134.84a4.92,4.92,0,0,1-.65,2.6,4.07,4.07,0,0,1-1.77,1.59,5.75,5.75,0,0,1-2.52.54,5.88,5.88,0,0,1-2.54-.53,4,4,0,0,1-1.75-1.6,4.91,4.91,0,0,1-.64-2.6v-9.5h1.18v9.5a4.05,4.05,0,0,0,.48,2,3,3,0,0,0,1.32,1.26,4.74,4.74,0,0,0,3.9,0,3.05,3.05,0,0,0,1.33-1.26,4.05,4.05,0,0,0,.48-2v-9.5h1.18Z"/><path class="cls-4" d="M136.79,126.35H132v13h-1.18v-13H126v-1h10.79Z"/><path class="cls-4" d="M153.49,136.52a5.36,5.36,0,0,1-7.65,2.25,5.15,5.15,0,0,1-1.92-2.26,7.91,7.91,0,0,1-.69-3.4v-1.5a8.07,8.07,0,0,1,.68-3.41,5.27,5.27,0,0,1,1.92-2.26,5.61,5.61,0,0,1,5.74,0,5.24,5.24,0,0,1,1.91,2.26,8,8,0,0,1,.68,3.41v1.5A8.07,8.07,0,0,1,153.49,136.52Zm-1-7.8a4,4,0,0,0-1.48-1.87,4,4,0,0,0-2.3-.66,3.92,3.92,0,0,0-2.28.66,4.17,4.17,0,0,0-1.48,1.87,7.4,7.4,0,0,0-.51,2.87v1.52a7.3,7.3,0,0,0,.52,2.88,4.14,4.14,0,0,0,1.49,1.88,3.92,3.92,0,0,0,2.27.66,4,4,0,0,0,2.32-.66,4.06,4.06,0,0,0,1.46-1.87,7.51,7.51,0,0,0,.5-2.89v-1.52A7.33,7.33,0,0,0,152.47,128.72Z"/><path class="cls-4" d="M158.55,126.35v5.45h6.53v1h-6.53v6.55h-1.19v-14h8.7v1Z"/></g></g></svg>