<?xml version="1.0" encoding="utf-8"?>
<!-- Generator: Adobe Illustrator 22.0.1, SVG Export Plug-In . SVG Version: 6.00 Build 0)  -->
<svg version="1.1" id="Layer_1" xmlns="http://www.w3.org/2000/svg" xmlns:xlink="http://www.w3.org/1999/xlink" x="0px" y="0px"
	 viewBox="0 0 441 334" style="enable-background:new 0 0 441 334;" xml:space="preserve">
<style type="text/css">
	.st0{fill:#FFFFFF;}
	.st1{fill:#414141;}
	.st2{opacity:0.6;}
	.st3{fill:#0077C4;}
	.st4{fill:#333333;}
</style>
<title>downside-developed</title>
<g id="downside-emerging">
	<rect id="background" x="-1" y="104" class="st0" width="441" height="230"/>
	<rect id="bar-2" x="238.8" y="145.9" class="st1" width="158.7" height="130.4"/>
	<g id="bar-2-label">
		<path class="st0" d="M282.1,245.4l-9.3-14.3v14.3h-2.5v-18.5h2.5l9.3,14.3v-14.3h2.4v18.5L282.1,245.4z"/>
		<path class="st0" d="M302.5,241.5c-0.5,1.3-1.4,2.3-2.6,3.1c-1.2,0.7-2.5,1.1-3.9,1.1c-1.4,0-2.7-0.4-3.9-1.1
			c-1.2-0.8-2.1-1.8-2.6-3.1c-0.7-1.5-1-3.1-0.9-4.7v-1.2c0-1.6,0.3-3.2,0.9-4.7c1.7-3.6,6.1-5.2,9.7-3.5c0.2,0.1,0.5,0.2,0.7,0.4
			c1.2,0.8,2.1,1.8,2.6,3.1c0.6,1.5,0.9,3.1,0.9,4.7v1.2C303.4,238.4,303.1,240,302.5,241.5z M300.4,231.9c-0.3-0.9-0.9-1.7-1.7-2.3
			c-1.6-1.1-3.7-1.1-5.3,0c-0.8,0.6-1.4,1.4-1.7,2.3c-0.4,1.2-0.6,2.4-0.6,3.7v1.2c0,1.3,0.2,2.5,0.6,3.7c0.3,0.9,0.9,1.7,1.8,2.3
			c0.8,0.5,1.7,0.8,2.6,0.8c1.4,0.1,2.8-0.6,3.7-1.8c1-1.5,1.4-3.3,1.3-5.1v-1.2C301,234.3,300.8,233.1,300.4,231.9z"/>
		<path class="st0" d="M319,245.4l-9.3-14.3v14.3h-2.5v-18.5h2.5l9.3,14.3v-14.3h2.4v18.5L319,245.4z"/>
		<path class="st0" d="M324.4,238.5v-1.9h6.2v1.9H324.4z"/>
		<path class="st0" d="M347.8,226.9v18.5h-2.5v-8.6H336v8.6h-2.5v-18.5h2.5v7.9h9.3v-7.9H347.8z"/>
		<path class="st0" d="M364.9,242.7c-0.6,0.9-1.4,1.7-2.3,2.2c-1.1,0.6-2.4,0.8-3.7,0.8c-1.3,0-2.7-0.3-3.8-1.1
			c-1.1-0.7-2-1.8-2.5-3c-0.6-1.4-0.9-3-0.9-4.5v-1.9c0-1.6,0.3-3.1,0.9-4.5c0.6-1.2,1.5-2.3,2.6-3c1.2-0.7,2.6-1.1,4-1.1
			c1.2,0,2.4,0.2,3.5,0.8c1,0.5,1.7,1.2,2.3,2.2c0.6,1,0.9,2.1,1,3.2h-2.5c-0.1-1.2-0.6-2.2-1.3-3.1c-0.8-0.8-1.9-1.1-3-1.1
			c-1,0-1.9,0.3-2.7,0.8c-0.8,0.6-1.4,1.4-1.7,2.3c-0.4,1.1-0.6,2.3-0.6,3.4v1.9c0,1.1,0.2,2.3,0.5,3.4c0.3,0.9,0.9,1.7,1.6,2.4
			c0.8,0.6,1.7,0.9,2.6,0.9c0.8,0,1.7-0.1,2.4-0.5c0.6-0.3,1.1-0.8,1.4-1.4c0.4-0.7,0.6-1.5,0.7-2.3h2.5
			C365.9,240.7,365.5,241.8,364.9,242.7z"/>
		<g class="st2">
			<rect x="263.8" y="196.1" class="st0" width="13.9" height="4.5"/>
			<path class="st0" d="M301.4,177.2h-4.8l-17.2,26.1v3h17v9.2h5v-9.2h5.7v-4.5h-5.7L301.4,177.2z M285.9,201.7l10.5-16.1v16.1
				L285.9,201.7z"/>
			<polygon class="st0" points="311,181.9 311,186.8 320.8,183.2 320.8,215.4 325.8,215.4 325.8,177 324.1,177 			"/>
			<path class="st0" d="M371.5,201.3c-0.6-1.3-1.6-2.4-2.9-3.1c-1.3-0.8-2.8-1.2-4.3-1.1c-3-0.1-5.7,1.6-7.1,4.3
				c-0.7,1.3-1,2.7-1,4.2v1.9c0,1.5,0.3,2.9,1,4.2c0.7,1.3,1.6,2.4,2.9,3.1c1.3,0.8,2.8,1.2,4.3,1.2c3,0.1,5.7-1.6,7.1-4.3
				c0.7-1.3,1-2.7,1-4.2v-1.9C372.5,204.1,372.2,202.6,371.5,201.3z M366.4,211.2c-0.6,0.4-1.3,0.6-2,0.6c-0.7,0-1.4-0.2-2-0.6
				c-0.6-0.4-1-0.9-1.2-1.5l0,0c-0.3-0.7-0.4-1.4-0.4-2.2v-1.9c0-0.8,0.1-1.5,0.5-2.3c0.3-0.6,0.7-1.1,1.2-1.5
				c0.6-0.4,1.3-0.6,2-0.6c0.7,0,1.4,0.2,2,0.5c0.5,0.4,1,0.9,1.2,1.5c0.3,0.7,0.5,1.5,0.4,2.3v1.9c0,0.8-0.1,1.5-0.4,2.2
				C367.4,210.3,366.9,210.8,366.4,211.2L366.4,211.2z"/>
			<polygon class="st0" points="362.7,180.5 343.9,210.5 347.5,212.8 366.2,182.8 			"/>
			<path class="st0" d="M350.4,194.4c1.2-0.8,2.2-1.8,2.8-3.1c0.7-1.3,1-2.7,1-4.2v-1.9c0-1.5-0.3-2.9-1-4.2
				c-2-3.9-6.9-5.5-10.8-3.4c-1.5,0.8-2.7,2-3.4,3.4c-0.7,1.3-1,2.8-1,4.2v1.9c0,1.5,0.3,2.9,1,4.2c0.7,1.3,1.6,2.4,2.9,3.1
				c1.3,0.8,2.8,1.2,4.3,1.1C347.7,195.5,349.1,195.1,350.4,194.4z M344.2,181.4c1.2-0.8,2.8-0.8,4,0c0.5,0.4,1,0.9,1.2,1.5
				c0.3,0.7,0.4,1.5,0.4,2.2v1.9c0,0.8-0.1,1.5-0.4,2.2c-0.3,0.6-0.7,1.1-1.2,1.5c-0.6,0.4-1.3,0.6-2,0.6c-1.4,0.1-2.8-0.8-3.3-2.1
				l0,0c-0.3-0.7-0.5-1.4-0.5-2.2v-1.9c0-0.8,0.1-1.5,0.5-2.2C343.1,182.3,343.6,181.7,344.2,181.4L344.2,181.4z"/>
		</g>
	</g>
	<polygon id="bar-1" class="st3" points="38.7,254 38.8,145.8 197.5,146.1 197.5,254.3 	"/>
	<g id="bar-1-label">
		<g class="st2">
			<rect x="63.8" y="185" class="st0" width="13.9" height="4.5"/>
			<path class="st0" d="M103,187.4c-0.9-1.2-2.1-2.2-3.5-2.8c0.5-0.3,1.1-0.7,1.5-1.2c1-0.9,1.8-2,2.4-3.2c0.5-1.1,0.8-2.4,0.8-3.6
				c0.1-2.1-0.4-4.1-1.4-5.9c-1-1.7-2.4-3-4.1-3.8c-1.9-0.9-3.9-1.3-6-1.3c-2.1,0-4.2,0.5-6.1,1.4c-1.8,0.9-3.3,2.2-4.3,3.9
				c-1.1,1.7-1.6,3.7-1.6,5.7v1h5v-1c0-1.2,0.3-2.4,0.9-3.4c0.6-1,1.4-1.7,2.4-2.2c1.1-0.6,2.4-0.8,3.6-0.8c1.8-0.1,3.6,0.5,5,1.7
				c1.2,1.3,1.7,3,1.6,4.7c0,1.1-0.3,2.1-0.8,3.1c-0.6,0.9-1.5,1.7-2.5,2.1c-1.3,0.6-2.7,0.9-4.2,0.8h-4v4.6h4
				c2.2-0.1,4.3,0.4,6.1,1.6c1.4,1.2,2.2,3,2,4.8c0.1,1.9-0.5,3.7-1.8,5c-1.5,1.2-3.4,1.9-5.3,1.7c-1.4,0-2.8-0.3-4-0.9
				c-1.1-0.5-2-1.4-2.7-2.4c-0.7-1.1-1-2.3-1-3.5v-1h-5v1c0,2.2,0.6,4.4,1.9,6.2c1.2,1.7,2.8,3,4.7,3.9c1.9,0.8,4,1.3,6.1,1.3
				c2.1,0,4.2-0.4,6.2-1.3c1.8-0.9,3.3-2.2,4.4-3.9c1.1-1.8,1.6-3.9,1.6-6.1C105,191.3,104.3,189.1,103,187.4L103,187.4z"/>
			<path class="st0" d="M130.2,166h-4.8l-17.2,26.1v3h17v9.2h5v-9.2h5.7v-4.5h-5.7L130.2,166z M114.7,190.6l10.5-16.1v16.1H114.7z"
				/>
			<path class="st0" d="M150.4,183.2c1.2-0.8,2.2-1.8,2.8-3.1c0.7-1.3,1-2.7,1-4.2V174c0-1.5-0.3-2.9-1-4.2c-2-3.9-6.9-5.5-10.8-3.4
				c-1.5,0.8-2.7,2-3.4,3.4c-0.7,1.3-1,2.8-1,4.2v1.9c0,1.5,0.3,2.9,1,4.2c0.7,1.3,1.6,2.3,2.9,3.1c1.3,0.8,2.8,1.2,4.3,1.1
				C147.7,184.4,149.1,184,150.4,183.2z M148.1,179.6c-0.6,0.4-1.3,0.6-2,0.6c-1.4,0.1-2.8-0.8-3.3-2.1l0,0
				c-0.3-0.7-0.5-1.4-0.4-2.2V174c0-0.8,0.1-1.5,0.4-2.2c0.3-0.6,0.7-1.2,1.3-1.6c1.2-0.7,2.8-0.7,4,0c0.5,0.4,1,0.9,1.2,1.5
				c0.3,0.7,0.4,1.5,0.4,2.2v1.9c0,0.8-0.1,1.5-0.4,2.2C149.1,178.7,148.7,179.3,148.1,179.6z"/>
			<path class="st0" d="M171.5,190.2c-0.6-1.3-1.6-2.4-2.9-3.1c-1.3-0.8-2.8-1.2-4.3-1.1c-3-0.1-5.7,1.6-7.1,4.3
				c-0.7,1.3-1,2.7-1,4.2v1.9c0,1.5,0.3,2.9,1,4.2c2.2,4,7.1,5.4,11.1,3.3c0.1-0.1,0.2-0.1,0.3-0.2c1.2-0.8,2.2-1.8,2.8-3.1
				c0.7-1.3,1-2.7,1-4.2v-1.9C172.5,192.9,172.1,191.5,171.5,190.2z M168,194.4v1.9c0,0.8-0.1,1.5-0.4,2.2c-0.2,0.6-0.7,1.1-1.2,1.5
				c-0.6,0.4-1.3,0.6-2,0.6c-0.7,0-1.4-0.2-2-0.6c-0.5-0.4-1-0.9-1.2-1.5l0,0c-0.3-0.7-0.4-1.5-0.4-2.2v-1.9c0-0.8,0.1-1.5,0.4-2.3
				c0.3-0.6,0.7-1.1,1.2-1.5c0.6-0.4,1.3-0.6,2-0.5c0.7,0,1.4,0.2,2,0.5c0.5,0.4,1,0.9,1.2,1.5C167.9,192.8,168,193.6,168,194.4z"/>
			<polygon class="st0" points="162.6,169.4 143.9,199.4 147.4,201.7 166.2,171.6 			"/>
		</g>
		<path class="st0" d="M116.1,215.9v18.5h-2.5v-8.6h-9.3v8.6h-2.5v-18.5h2.5v7.9h9.3v-7.9H116.1z"/>
		<path class="st0" d="M133.3,231.7c-0.6,0.9-1.4,1.7-2.3,2.1c-1.1,0.6-2.4,0.8-3.7,0.8c-1.3,0-2.7-0.3-3.8-1.1
			c-1.1-0.7-2-1.8-2.5-3c-0.6-1.4-0.9-2.9-0.9-4.5v-1.9c0-1.5,0.3-3.1,0.9-4.5c0.6-1.2,1.5-2.3,2.6-3c1.2-0.7,2.6-1.1,4-1.1
			c1.2,0,2.4,0.2,3.5,0.8c0.9,0.5,1.7,1.2,2.3,2.2c0.6,1,0.9,2.1,1,3.3h-2.5c-0.1-1.2-0.5-2.2-1.3-3.1c-0.8-0.8-1.9-1.1-3-1.1
			c-1,0-1.9,0.3-2.7,0.8c-0.8,0.6-1.4,1.4-1.7,2.3c-0.4,1.1-0.6,2.3-0.6,3.5v1.9c0,1.1,0.2,2.3,0.5,3.4c0.3,0.9,0.8,1.7,1.6,2.4
			c0.7,0.6,1.7,0.9,2.6,0.9c0.8,0,1.7-0.1,2.4-0.5c0.6-0.3,1.1-0.8,1.4-1.4c0.4-0.7,0.6-1.5,0.7-2.3h2.5
			C134.3,229.6,133.9,230.7,133.3,231.7z"/>
	</g>
	<g id="label">
		<path class="st4" d="M1.7,79.3V65.1h2.5v14.2H1.7z"/>
		<path class="st4" d="M15.1,69.4c0.7,0.9,1,1.9,0.9,3v6.8h-2.4v-6.8c0.1-0.5-0.1-1.1-0.5-1.5c-0.4-0.3-0.9-0.5-1.4-0.4
			c-0.4,0-0.9,0.1-1.2,0.3c-0.4,0.2-0.7,0.5-0.9,0.9v7.5H7.2V68.7h2.3l0.1,1.2c0.4-0.4,0.8-0.8,1.3-1c0.5-0.3,1.1-0.4,1.7-0.4
			C13.5,68.5,14.4,68.8,15.1,69.4z"/>
		<path class="st4" d="M23.5,77.4v1.9c-0.5,0.2-1,0.2-1.6,0.2c-0.7,0-1.5-0.2-2-0.7c-0.6-0.6-0.8-1.4-0.8-2.3v-6h-1.7v-1.8h1.7v-2.6
			h2.4v2.6h1.8v1.8h-1.8v5.8c-0.1,0.5,0.2,1,0.7,1.1c0.2,0,0.3,0,0.5,0C22.9,77.5,23.2,77.4,23.5,77.4z"/>
		<path class="st4" d="M34.3,74.8h-6.9c0,0.5,0.2,1,0.4,1.4c0.2,0.4,0.6,0.8,1,1c0.4,0.2,0.9,0.4,1.4,0.3c1,0,2-0.4,2.6-1.3l1.3,1.3
			c-0.4,0.6-1,1.1-1.6,1.4c-0.8,0.4-1.6,0.6-2.5,0.6c-0.9,0-1.9-0.2-2.7-0.7c-0.8-0.4-1.4-1.1-1.8-1.8c-0.4-0.8-0.6-1.7-0.6-2.6V74
			c0-1,0.2-2,0.6-2.9c0.8-1.6,2.4-2.6,4.2-2.6c0.9,0,1.8,0.2,2.5,0.7c0.7,0.4,1.2,1.1,1.5,1.8c0.3,0.9,0.5,1.8,0.5,2.7V74.8z
			 M31.9,72.8c0-0.6-0.2-1.2-0.6-1.7c-0.4-0.5-1-0.7-1.6-0.7c-0.6,0-1.1,0.2-1.5,0.7c-0.4,0.5-0.7,1.2-0.7,1.9h4.4L31.9,72.8z"/>
		<path class="st4" d="M41.5,68.6l0.4,0.1v2.3c-0.3-0.1-0.7-0.1-1-0.1c-0.9-0.1-1.8,0.4-2.2,1.2v7.2h-2.4V68.7h2.4v1.2
			c0.2-0.4,0.6-0.8,1-1c0.4-0.2,0.9-0.4,1.4-0.4C41.2,68.5,41.4,68.5,41.5,68.6z"/>
		<path class="st4" d="M51.5,69.4c0.7,0.9,1,1.9,0.9,3v6.8h-2.4v-6.8c0.1-0.5-0.1-1.1-0.5-1.5c-0.4-0.3-0.9-0.5-1.4-0.4
			c-0.4,0-0.9,0.1-1.2,0.3c-0.4,0.2-0.7,0.5-0.9,0.9v7.5h-2.4V68.7h2.3l0.1,1.2c0.4-0.4,0.8-0.8,1.3-1c0.5-0.3,1.1-0.4,1.7-0.4
			C49.9,68.5,50.8,68.8,51.5,69.4z"/>
		<path class="st4" d="M63.7,79.1v0.2h-2.5c-0.1-0.3-0.2-0.7-0.3-1c-0.3,0.4-0.7,0.6-1.2,0.9c-0.5,0.2-1,0.3-1.6,0.3
			c-0.6,0-1.3-0.1-1.9-0.4c-0.5-0.3-1-0.6-1.3-1.1c-0.3-0.5-0.5-1-0.5-1.6c0-1,0.4-2,1.3-2.6c1.1-0.7,2.3-1,3.6-0.9h1.5v-0.7
			c0.1-0.9-0.5-1.7-1.4-1.8c-0.1,0-0.3,0-0.4,0c-0.3,0-0.6,0.1-0.9,0.2c-0.3,0.1-0.5,0.3-0.6,0.5c-0.1,0.2-0.2,0.5-0.2,0.7h-2.4
			c0-0.6,0.2-1.1,0.5-1.6c0.4-0.5,0.9-0.9,1.5-1.2c0.7-0.3,1.5-0.5,2.3-0.4c0.7,0,1.5,0.1,2.1,0.4c0.6,0.3,1.1,0.7,1.4,1.2
			c0.4,0.6,0.5,1.3,0.5,2v4.7C63.3,77.6,63.4,78.4,63.7,79.1z M60,77.1c0.4-0.2,0.7-0.5,0.9-0.9v-2h-1.3c-0.7,0-1.3,0.1-1.9,0.5
			C57.2,75,57,75.5,57,76c0,0.4,0.2,0.7,0.4,1c0.3,0.3,0.8,0.4,1.2,0.4C59.1,77.4,59.6,77.4,60,77.1L60,77.1z"/>
		<path class="st4" d="M70.9,77.4v1.9c-0.5,0.2-1.1,0.2-1.6,0.2c-0.7,0-1.5-0.2-2-0.7c-0.6-0.6-0.8-1.4-0.7-2.3v-6h-1.7v-1.8h1.7
			v-2.6H69v2.6h1.9v1.8H69v5.8c0,0.3,0.1,0.7,0.3,0.9c0.2,0.2,0.5,0.3,0.8,0.2C70.4,77.5,70.6,77.4,70.9,77.4z"/>
		<path class="st4" d="M75.2,65c0.5,0.5,0.5,1.3,0,1.8c-0.6,0.5-1.4,0.5-2,0c-0.2-0.2-0.4-0.6-0.4-0.9c0-0.3,0.1-0.7,0.4-0.9
			C73.8,64.5,74.6,64.5,75.2,65z M73,79.2V68.7h2.4v10.6L73,79.2z"/>
		<path class="st4" d="M78.3,71.1c0.4-0.8,1-1.5,1.7-1.9c0.8-0.5,1.7-0.7,2.6-0.7c0.9,0,1.8,0.2,2.6,0.7c0.7,0.5,1.3,1.1,1.7,1.9
			c0.4,0.9,0.6,1.8,0.6,2.8v0.2c0,1-0.2,1.9-0.6,2.8c-0.4,0.8-1,1.5-1.7,1.9c-1.6,0.9-3.6,0.9-5.3,0c-0.7-0.5-1.3-1.1-1.7-1.9
			c-0.4-0.9-0.6-1.8-0.6-2.8v-0.2C77.7,72.9,77.9,72,78.3,71.1z M80.8,76.6c0.4,0.7,1.1,1,1.9,1c0.5,0,1-0.1,1.4-0.4
			c0.4-0.3,0.7-0.7,0.8-1.2c0.2-0.6,0.3-1.1,0.3-1.7v-0.3c0-0.6-0.1-1.2-0.3-1.7c-0.1-0.5-0.4-0.9-0.8-1.2c-0.4-0.3-0.9-0.5-1.4-0.5
			c-0.5,0-1,0.1-1.4,0.5c-0.4,0.3-0.7,0.8-0.8,1.2c-0.2,0.6-0.3,1.1-0.3,1.7v0.2C80.1,75,80.3,75.8,80.8,76.6z"/>
		<path class="st4" d="M97.6,69.4c0.7,0.9,1,1.9,0.9,3v6.8h-2.4v-6.8c0.1-0.5-0.1-1.1-0.5-1.5c-0.4-0.3-0.9-0.5-1.4-0.4
			c-0.4,0-0.9,0.1-1.2,0.3c-0.4,0.2-0.7,0.5-0.9,0.9v7.5h-2.4V68.7H92l0.1,1.2c0.4-0.4,0.8-0.8,1.4-1c0.5-0.3,1.1-0.4,1.7-0.4
			C96,68.5,96.9,68.8,97.6,69.4z"/>
		<path class="st4" d="M109.8,79.1v0.2h-2.5c-0.1-0.3-0.2-0.7-0.3-1c-0.3,0.4-0.8,0.7-1.2,0.9c-0.5,0.2-1,0.3-1.6,0.3
			c-0.6,0-1.3-0.1-1.9-0.4c-0.5-0.3-1-0.6-1.3-1.1c-0.3-0.5-0.5-1-0.5-1.6c0-1,0.4-2,1.2-2.6c1.1-0.7,2.3-1,3.6-0.9h1.5v-0.7
			c0-0.5-0.1-1-0.5-1.3c-0.4-0.3-0.9-0.5-1.4-0.5c-0.3,0-0.7,0-1,0.2c-0.3,0.1-0.5,0.3-0.6,0.5c-0.2,0.2-0.2,0.5-0.2,0.7h-2.4
			c0-0.6,0.2-1.1,0.5-1.6c0.4-0.5,1-0.9,1.6-1.2c0.7-0.3,1.5-0.5,2.3-0.4c0.7,0,1.5,0.1,2.1,0.4c0.6,0.3,1.1,0.7,1.4,1.2
			c0.4,0.6,0.5,1.3,0.5,2v4.7C109.4,77.6,109.5,78.4,109.8,79.1z M106.1,77.1c0.4-0.2,0.7-0.5,0.9-0.9v-2h-1.3
			c-0.7,0-1.3,0.1-1.9,0.5c-0.4,0.3-0.7,0.8-0.6,1.3c0,0.4,0.2,0.7,0.4,1c0.3,0.3,0.8,0.4,1.2,0.4C105.2,77.5,105.7,77.4,106.1,77.1
			L106.1,77.1z"/>
		<path class="st4" d="M112.2,79.3v-15h2.5v15H112.2z"/>
		<path class="st4" d="M131.4,64.3v15h-2.2l-0.1-1.1c-0.7,0.9-1.7,1.3-2.8,1.3c-0.8,0-1.6-0.2-2.2-0.7c-0.6-0.5-1.1-1.2-1.4-1.9
			c-0.4-0.9-0.5-1.8-0.5-2.8v-0.2c0-1,0.2-1.9,0.5-2.8c0.3-0.8,0.8-1.4,1.4-1.9c0.7-0.5,1.4-0.7,2.2-0.7c1,0,2,0.4,2.7,1.2v-5.4
			L131.4,64.3z M129,76.2v-4.5c-0.4-0.8-1.2-1.3-2.1-1.2c-0.7,0-1.4,0.4-1.8,1c-0.4,0.8-0.6,1.6-0.6,2.5v0.2c0,0.8,0.2,1.7,0.6,2.4
			c0.4,0.6,1,1,1.8,0.9C127.8,77.6,128.6,77.1,129,76.2z"/>
		<path class="st4" d="M143,74.8h-6.9c0,0.5,0.2,1,0.4,1.4c0.2,0.4,0.5,0.8,0.9,1c0.4,0.2,0.9,0.4,1.4,0.3c1,0,2-0.5,2.6-1.3
			l1.3,1.3c-0.4,0.6-1,1.1-1.6,1.4c-0.8,0.4-1.6,0.6-2.5,0.6c-0.9,0-1.9-0.2-2.7-0.7c-0.8-0.4-1.4-1.1-1.8-1.8
			c-0.4-0.8-0.6-1.7-0.6-2.6V74c0-1,0.2-2,0.6-2.9c0.8-1.6,2.4-2.6,4.2-2.6c0.9,0,1.8,0.2,2.5,0.7c0.7,0.4,1.2,1.1,1.5,1.8
			c0.3,0.9,0.5,1.8,0.5,2.7V74.8z M140.6,72.8c0-0.6-0.2-1.2-0.6-1.7c-0.4-0.5-1-0.7-1.6-0.7c-0.6,0-1.1,0.2-1.5,0.7
			c-0.4,0.5-0.7,1.2-0.8,1.9h4.4L140.6,72.8z"/>
		<path class="st4" d="M153.4,68.7l-3.7,10.6h-2.1l-3.7-10.6h2.5l2.3,7.5l2.2-7.5H153.4z"/>
		<path class="st4" d="M164,74.8h-6.9c0,0.5,0.2,1,0.4,1.4c0.5,0.8,1.4,1.4,2.4,1.3c1,0,2-0.5,2.6-1.3l1.3,1.3
			c-0.4,0.6-1,1.1-1.6,1.4c-0.8,0.4-1.6,0.6-2.5,0.6c-0.9,0-1.9-0.2-2.7-0.7c-0.7-0.4-1.4-1.1-1.8-1.8c-0.4-0.8-0.6-1.7-0.6-2.6V74
			c0-1,0.2-2,0.6-2.9c0.8-1.6,2.4-2.6,4.2-2.6c0.9,0,1.8,0.2,2.5,0.7c0.7,0.4,1.2,1.1,1.5,1.8c0.3,0.9,0.5,1.8,0.5,2.7V74.8z
			 M161.6,72.8c0-0.6-0.2-1.2-0.6-1.7c-0.4-0.5-1-0.7-1.6-0.7c-0.6,0-1.1,0.2-1.5,0.7c-0.4,0.5-0.7,1.2-0.8,1.9h4.4L161.6,72.8z"/>
		<path class="st4" d="M166.1,79.3v-15h2.4v15H166.1z"/>
		<path class="st4" d="M171.4,71.1c0.4-0.8,1-1.5,1.7-1.9c0.8-0.5,1.7-0.7,2.6-0.7c0.9,0,1.9,0.2,2.6,0.7c0.7,0.5,1.3,1.1,1.7,1.9
			c0.4,0.9,0.6,1.8,0.6,2.8v0.2c0,1-0.2,1.9-0.6,2.8c-0.4,0.8-1,1.4-1.7,1.9c-1.6,0.9-3.6,0.9-5.3,0c-0.7-0.5-1.3-1.1-1.7-1.9
			c-0.4-0.9-0.6-1.8-0.6-2.8v-0.2C170.8,72.9,171,72,171.4,71.1z M173.9,76.6c0.4,0.6,1.1,1,1.9,1c0.5,0,1-0.1,1.4-0.4
			c0.4-0.3,0.7-0.7,0.8-1.2c0.2-0.6,0.3-1.1,0.3-1.7v-0.3c0-0.6-0.1-1.2-0.3-1.7c-0.2-0.5-0.4-0.9-0.8-1.2c-0.4-0.3-0.9-0.5-1.4-0.5
			c-0.5,0-1,0.1-1.4,0.5c-0.4,0.3-0.7,0.8-0.8,1.2c-0.2,0.6-0.3,1.1-0.3,1.7v0.2C173.2,75,173.5,75.8,173.9,76.6z"/>
		<path class="st4" d="M190.3,69.2c0.6,0.5,1.1,1.1,1.4,1.9c0.3,0.9,0.5,1.9,0.5,2.8v0.2c0,0.9-0.1,1.9-0.5,2.8
			c-0.3,0.8-0.8,1.4-1.4,1.9c-1.5,1.1-3.7,0.9-5-0.4v5h-2.4V68.7h2.2l0.1,1.1c0.7-0.8,1.7-1.3,2.8-1.3
			C188.8,68.5,189.6,68.7,190.3,69.2z M189.7,73.9c0-0.9-0.2-1.7-0.6-2.4c-0.4-0.6-1.1-1-1.8-1c-0.8,0-1.6,0.4-2,1.2v4.6
			c0.4,0.8,1.2,1.3,2.1,1.2c0.7,0,1.4-0.4,1.8-1c0.4-0.8,0.6-1.6,0.6-2.5L189.7,73.9z"/>
		<path class="st4" d="M203.3,74.8h-6.9c0,0.5,0.2,1,0.4,1.4c0.2,0.4,0.5,0.8,0.9,1c0.4,0.2,0.9,0.4,1.4,0.3c1,0,2-0.4,2.6-1.3
			l1.3,1.3c-0.4,0.6-1,1.1-1.6,1.4c-0.8,0.4-1.6,0.6-2.5,0.6c-0.9,0-1.9-0.2-2.7-0.7c-0.8-0.4-1.4-1.1-1.8-1.8
			c-0.4-0.8-0.6-1.7-0.6-2.6V74c0-1,0.2-2,0.6-2.9c0.8-1.6,2.4-2.6,4.2-2.6c0.9,0,1.8,0.2,2.5,0.7c0.7,0.4,1.2,1.1,1.5,1.8
			c0.4,0.9,0.5,1.8,0.5,2.7V74.8z M200.9,72.8c0-0.6-0.2-1.2-0.6-1.7c-0.4-0.5-1-0.7-1.6-0.7c-0.6,0-1.1,0.2-1.5,0.7
			c-0.4,0.5-0.7,1.2-0.8,1.9h4.4V72.8z"/>
		<path class="st4" d="M214.1,64.3v15h-2.2l-0.1-1.1c-0.7,0.9-1.7,1.3-2.8,1.3c-0.8,0-1.6-0.2-2.2-0.7c-0.7-0.5-1.2-1.2-1.4-1.9
			c-0.4-0.9-0.5-1.8-0.5-2.8v-0.2c0-1,0.2-1.9,0.5-2.8c0.3-0.8,0.8-1.4,1.4-1.9c0.7-0.4,1.4-0.7,2.2-0.7c1,0,2,0.4,2.7,1.2v-5.4
			H214.1z M211.7,76.2v-4.5c-0.4-0.8-1.2-1.3-2.1-1.2c-0.7,0-1.4,0.4-1.8,1c-0.4,0.7-0.6,1.6-0.6,2.5v0.2c0,0.8,0.2,1.7,0.6,2.4
			c0.4,0.6,1,1,1.8,0.9C210.5,77.6,211.3,77,211.7,76.2z"/>
		<path class="st4" d="M236.1,69.5c0.7,0.9,1,1.9,0.9,3v6.8h-2.4v-6.8c0.1-0.5-0.1-1.1-0.5-1.5c-0.8-0.6-1.9-0.6-2.7,0
			c-0.3,0.3-0.6,0.7-0.7,1.1v7.3h-2.4v-6.8c0.1-0.5-0.1-1.1-0.5-1.5c-0.4-0.3-0.9-0.5-1.4-0.4c-0.8-0.1-1.6,0.4-2,1.2v7.6H222V68.7
			h2.3l0.1,1.1c0.4-0.4,0.8-0.8,1.3-1c0.5-0.2,1.1-0.4,1.7-0.3c0.6,0,1.2,0.1,1.7,0.4c0.5,0.3,0.9,0.7,1.1,1.2
			c0.4-0.5,0.8-0.8,1.4-1.1c0.6-0.3,1.2-0.4,1.9-0.4C234.4,68.5,235.4,68.8,236.1,69.5z"/>
		<path class="st4" d="M248.3,79.1v0.2h-2.5c-0.1-0.3-0.2-0.7-0.3-1c-0.3,0.4-0.7,0.6-1.2,0.9c-0.5,0.2-1,0.3-1.6,0.3
			c-0.6,0-1.3-0.1-1.9-0.4c-0.5-0.3-0.9-0.6-1.3-1.1c-0.3-0.5-0.5-1-0.5-1.6c0-1,0.4-2,1.3-2.6c1.1-0.7,2.3-1,3.6-0.9h1.5v-0.7
			c0.1-0.9-0.5-1.7-1.4-1.8c-0.1,0-0.3,0-0.4,0c-0.3,0-0.6,0.1-0.9,0.2c-0.3,0.1-0.5,0.3-0.6,0.5c-0.1,0.2-0.2,0.5-0.2,0.7h-2.4
			c0-0.6,0.2-1.1,0.5-1.6c0.4-0.5,0.9-0.9,1.5-1.2c0.7-0.3,1.5-0.5,2.3-0.4c0.7,0,1.5,0.1,2.1,0.4c0.6,0.3,1.1,0.7,1.5,1.2
			c0.4,0.6,0.5,1.3,0.5,2v4.7C247.9,77.6,248,78.4,248.3,79.1z M244.6,77.1c0.4-0.2,0.7-0.5,0.9-0.9v-2h-1.3c-0.7,0-1.3,0.1-1.9,0.5
			c-0.4,0.3-0.7,0.8-0.7,1.3c0,0.4,0.2,0.7,0.4,1c0.3,0.3,0.8,0.4,1.2,0.4C243.7,77.4,244.2,77.4,244.6,77.1L244.6,77.1z"/>
		<path class="st4" d="M255.8,68.6c0.1,0,0.3,0,0.4,0.1v2.3c-0.3-0.1-0.7-0.1-1-0.1c-0.9-0.1-1.8,0.4-2.2,1.2v7.2h-2.4V68.7h2.3
			l0.1,1.2c0.2-0.4,0.6-0.8,1-1c0.4-0.2,0.9-0.4,1.4-0.4C255.5,68.5,255.6,68.5,255.8,68.6z"/>
		<path class="st4" d="M261.3,74.8l-1.1,1.1v3.4h-2.4v-15h2.4v8.6L261,72l2.9-3.3h2.9l-3.9,4.4l4.3,6.2h-2.8L261.3,74.8z"/>
		<path class="st4" d="M277.4,74.8h-6.9c0,0.5,0.2,1,0.4,1.4c0.2,0.4,0.6,0.8,1,1c0.4,0.2,0.9,0.4,1.4,0.3c1,0,2-0.5,2.6-1.3
			l1.3,1.3c-0.4,0.6-1,1.1-1.6,1.4c-0.8,0.4-1.6,0.6-2.5,0.6c-0.9,0-1.9-0.2-2.7-0.7c-0.8-0.4-1.4-1.1-1.8-1.8
			c-0.4-0.8-0.6-1.7-0.6-2.6V74c0-1,0.2-2,0.6-2.9c0.4-0.8,1-1.4,1.7-1.9c0.7-0.4,1.6-0.7,2.5-0.7c0.9,0,1.8,0.2,2.5,0.7
			c0.7,0.4,1.2,1.1,1.6,1.8c0.3,0.9,0.5,1.8,0.5,2.7V74.8z M275,72.8c0-0.6-0.2-1.2-0.6-1.7c-0.4-0.5-1-0.7-1.6-0.7
			c-0.6,0-1.2,0.2-1.5,0.7c-0.4,0.5-0.7,1.2-0.8,1.9h4.4L275,72.8z"/>
		<path class="st4" d="M284.4,77.4v1.9c-0.5,0.2-1.1,0.2-1.6,0.2c-0.7,0-1.5-0.2-2-0.7c-0.6-0.6-0.8-1.4-0.7-2.3v-6h-1.7v-1.8h1.7
			v-2.6h2.4v2.6h1.9v1.8h-1.9v5.8c0,0.3,0.1,0.7,0.3,0.9c0.2,0.2,0.5,0.3,0.8,0.2C283.9,77.5,284.1,77.4,284.4,77.4z"/>
		<path class="st4" d="M287.2,73.8c-0.6-0.5-1-1.2-1-2c0-0.6,0.2-1.1,0.5-1.6c0.4-0.5,0.9-0.9,1.5-1.2c0.7-0.3,1.4-0.5,2.1-0.4
			c0.8,0,1.5,0.1,2.3,0.4c0.6,0.3,1.1,0.7,1.5,1.2c0.3,0.5,0.5,1.1,0.5,1.7h-2.4c0-0.3-0.1-0.5-0.2-0.8c-0.2-0.2-0.4-0.4-0.6-0.6
			c-0.3-0.1-0.7-0.2-1-0.2c-0.5,0-0.9,0.1-1.3,0.4c-0.3,0.2-0.5,0.6-0.5,0.9c0,0.2,0.1,0.4,0.2,0.6c0.2,0.2,0.4,0.3,0.7,0.4
			c0.4,0.1,0.9,0.2,1.3,0.3c0.7,0.1,1.5,0.4,2.1,0.7c0.5,0.2,1,0.6,1.3,1c0.3,0.5,0.5,1,0.5,1.6c0,0.6-0.2,1.2-0.5,1.7
			c-0.4,0.5-0.9,0.9-1.5,1.1c-0.7,0.3-1.5,0.4-2.3,0.4c-0.8,0-1.7-0.2-2.4-0.5c-0.6-0.3-1.2-0.8-1.5-1.3c-0.3-0.5-0.5-1.1-0.5-1.7
			h2.4c0,0.5,0.2,1,0.7,1.3c0.4,0.3,1,0.4,1.5,0.4c0.5,0,1-0.1,1.4-0.3c0.3-0.2,0.5-0.5,0.5-0.9c0-0.2-0.1-0.4-0.2-0.6
			c-0.2-0.2-0.4-0.4-0.7-0.5c-0.5-0.2-0.9-0.3-1.4-0.4C289,74.7,288,74.3,287.2,73.8z"/>
		<path class="st4" d="M20.4,46h-1.6v-8.1l0.1-8.2L12.1,46h-1.2L4,29.7l0.1,8.2V46H2.6V27.5h2.1l6.8,16.3l6.8-16.3h2.1L20.4,46z"/>
		<path class="st4" d="M34.7,44.6c0,0.4,0.2,0.8,0.3,1.2V46h-1.6c-0.2-0.6-0.3-1.3-0.3-1.9c-0.5,0.7-1.2,1.2-1.9,1.6
			c-0.8,0.4-1.8,0.6-2.7,0.6c-0.8,0-1.6-0.2-2.3-0.5c-1.3-0.6-2.1-1.9-2.1-3.4c0-0.9,0.2-1.7,0.8-2.4c0.6-0.7,1.3-1.2,2.2-1.5
			c1.1-0.4,2.2-0.5,3.3-0.5h2.8v-1.6c0-0.9-0.3-1.7-0.9-2.3c-0.7-0.6-1.7-0.9-2.6-0.8c-0.6,0-1.3,0.1-1.9,0.4c-0.5,0.2-1,0.6-1.3,1
			c-0.3,0.4-0.5,0.9-0.5,1.4h-1.5c0-0.7,0.2-1.4,0.7-2c0.5-0.7,1.1-1.2,1.9-1.5c1.7-0.7,3.6-0.8,5.3-0.1c0.7,0.3,1.4,0.9,1.8,1.6
			c0.5,0.7,0.7,1.6,0.7,2.4v6.6C34.7,43.6,34.7,44.1,34.7,44.6z M31.4,44.1c0.7-0.5,1.3-1.1,1.7-2v-3h-2.6c-0.9,0-1.8,0.1-2.7,0.4
			c-0.7,0.2-1.2,0.6-1.7,1.1c-0.4,0.5-0.6,1-0.6,1.6c0,0.5,0.1,1,0.4,1.4c0.3,0.4,0.6,0.8,1.1,1c0.5,0.2,1.1,0.4,1.6,0.3
			C29.6,44.9,30.6,44.7,31.4,44.1z"/>
		<path class="st4" d="M46.7,32.2h1.8L43.9,39l4.8,7h-1.8L43,40.2L39.1,46h-1.8l4.9-7l-4.7-6.7h1.8l3.7,5.6L46.7,32.2z"/>
		<path class="st4" d="M53.1,27.5c0.2,0.2,0.3,0.5,0.3,0.7c0,0.3-0.1,0.5-0.3,0.7c-0.4,0.4-1.1,0.4-1.5,0c-0.2-0.2-0.3-0.5-0.3-0.7
			c0-0.6,0.4-1,1-1C52.6,27.2,52.8,27.3,53.1,27.5z M51.5,46V32.2H53V46H51.5z"/>
		<path class="st4" d="M75.2,33.2c0.8,1.1,1.3,2.4,1.1,3.8v9h-1.5v-9c0.1-1-0.2-2.1-0.8-2.9c-0.7-0.6-1.6-0.9-2.4-0.8
			c-1.4,0-2.8,0.7-3.5,1.9c-0.3,0.5-0.5,1.1-0.6,1.7V46H66v-9.1c0.1-1-0.2-2-0.9-2.8c-0.7-0.6-1.6-0.9-2.5-0.8
			c-0.9,0-1.9,0.3-2.6,0.9c-0.7,0.6-1.2,1.4-1.4,2.3V46h-1.5V32.2h1.5v2.2c0.9-1.6,2.7-2.5,4.5-2.5c0.9,0,1.8,0.2,2.6,0.7
			c0.7,0.5,1.3,1.2,1.5,2c0.5-0.8,1.1-1.5,1.9-1.9c0.8-0.5,1.8-0.8,2.8-0.7C73.1,31.9,74.3,32.3,75.2,33.2z"/>
		<path class="st4" d="M90.6,32.2V46h-1.5v-1.7c-1,1.4-2.7,2.1-4.4,2c-1.3,0.1-2.5-0.4-3.4-1.3c-0.9-1.1-1.3-2.6-1.2-4v-8.8h1.5V41
			c-0.1,1.1,0.2,2.2,0.9,3c0.6,0.6,1.4,0.9,2.3,0.9c1,0,1.9-0.2,2.8-0.7c0.7-0.5,1.2-1.2,1.4-2v-10L90.6,32.2z"/>
		<path class="st4" d="M112.6,33.2c0.8,1.1,1.2,2.4,1.1,3.8v9h-1.5v-9c0.1-1-0.2-2.1-0.9-2.9c-0.7-0.6-1.5-0.9-2.4-0.8
			c-1.4,0-2.8,0.7-3.5,1.9c-0.3,0.5-0.5,1.1-0.6,1.7V46h-1.5v-9.1c0.1-1-0.2-2-0.9-2.8c-0.7-0.6-1.6-0.9-2.5-0.8
			c-0.9,0-1.9,0.3-2.6,0.9c-0.7,0.6-1.2,1.4-1.4,2.3V46h-1.5V32.2h1.5v2.2c0.9-1.6,2.7-2.5,4.5-2.5c0.9,0,1.8,0.2,2.6,0.7
			c0.7,0.5,1.3,1.2,1.5,2c0.4-0.8,1.1-1.5,1.9-1.9c0.8-0.5,1.8-0.8,2.8-0.7C110.5,31.9,111.7,32.3,112.6,33.2z"/>
		<path class="st4" d="M133.5,28.5c1.2,0.7,2.2,1.7,2.8,3c0.7,1.4,1,2.9,1,4.4v1.7c0,1.5-0.3,3-1,4.4c-0.6,1.2-1.6,2.3-2.8,2.9
			c-1.3,0.7-2.7,1-4.2,1h-5V27.5h5.2C130.9,27.5,132.3,27.8,133.5,28.5z M135.8,35.8c0-1.3-0.2-2.5-0.8-3.7c-0.5-1-1.3-1.9-2.2-2.5
			c-1-0.6-2.2-0.9-3.3-0.9h-3.6v15.8h3.5c1.2,0,2.4-0.3,3.4-0.9c1-0.6,1.8-1.5,2.2-2.5c0.5-1.2,0.8-2.4,0.8-3.7V35.8z"/>
		<path class="st4" d="M147.3,33.5c-0.3-0.1-0.7-0.1-1-0.1c-0.9,0-1.8,0.3-2.4,0.8c-0.7,0.6-1.1,1.4-1.4,2.2V46H141V32.2h1.5v2.2
			c0.3-0.7,0.9-1.3,1.6-1.8c0.7-0.4,1.5-0.7,2.3-0.6c0.2,0,0.4,0,0.6,0c0.2,0,0.3,0.1,0.5,0.1L147.3,33.5z"/>
		<path class="st4" d="M159.2,44.6c0.1,0.4,0.2,0.8,0.3,1.2V46h-1.6c-0.2-0.6-0.3-1.3-0.3-1.9c-0.5,0.6-1.2,1.2-1.9,1.5
			c-0.8,0.4-1.8,0.6-2.7,0.6c-0.8,0-1.6-0.2-2.3-0.5c-0.6-0.3-1.2-0.8-1.6-1.4c-0.8-1.4-0.7-3.1,0.2-4.3c0.6-0.7,1.3-1.2,2.2-1.5
			c1.1-0.4,2.2-0.5,3.3-0.5h2.8v-1.6c0-0.9-0.3-1.7-0.9-2.3c-0.7-0.6-1.7-0.9-2.6-0.8c-0.6,0-1.3,0.1-1.9,0.4c-0.5,0.2-1,0.6-1.3,1
			c-0.3,0.4-0.5,0.9-0.5,1.4h-1.5c0-0.7,0.2-1.4,0.7-2c0.5-0.7,1.1-1.2,1.9-1.5c1.7-0.7,3.6-0.8,5.3-0.1c0.7,0.3,1.3,0.8,1.8,1.5
			c0.4,0.7,0.6,1.6,0.6,2.5V43C159.1,43.6,159.2,44.1,159.2,44.6z M155.9,44.1c0.7-0.5,1.3-1.1,1.7-2v-3H155c-0.9,0-1.8,0.1-2.7,0.4
			c-0.7,0.2-1.2,0.6-1.7,1.1c-0.4,0.4-0.6,1-0.6,1.6c0,0.5,0.1,1,0.4,1.4c0.3,0.4,0.6,0.8,1.1,1c0.5,0.2,1.1,0.4,1.6,0.3
			C154.1,44.9,155.1,44.7,155.9,44.1z"/>
		<path class="st4" d="M179.9,32.2l-4,13.7h-1.3l-3.5-10.9l-0.1-0.8l-0.2,0.8L167.3,46H166l-4-13.7h1.6l2.9,10.5l0.2,1.2l0.3-1.2
			l3.3-10.5h1.3l3.2,10.4l0.4,1.4l0.3-1.3l2.8-10.5L179.9,32.2z"/>
		<path class="st4" d="M193.3,26.5V46h-1.4l-0.1-1.8c-0.5,0.7-1.1,1.2-1.8,1.5c-0.8,0.4-1.6,0.6-2.5,0.5c-1,0-2-0.3-2.8-0.9
			c-0.8-0.6-1.5-1.5-1.8-2.5c-0.4-1.2-0.7-2.4-0.6-3.6V39c0-1.3,0.2-2.5,0.6-3.7c0.4-1,1-1.8,1.8-2.5c0.8-0.6,1.8-0.9,2.8-0.9
			c0.9,0,1.7,0.2,2.5,0.6c0.7,0.4,1.3,0.9,1.8,1.6v-7.7H193.3z M190.2,44.2c0.7-0.5,1.2-1.1,1.5-1.8V36c-0.3-0.8-0.8-1.5-1.5-2
			c-0.7-0.5-1.6-0.8-2.5-0.7c-0.8,0-1.6,0.2-2.3,0.7c-0.6,0.5-1.1,1.2-1.4,2c-0.3,1-0.5,2-0.5,3v0.3c0,1,0.1,2,0.4,2.9
			c0.2,0.8,0.7,1.5,1.3,2c0.6,0.5,1.4,0.8,2.2,0.7C188.6,44.9,189.5,44.7,190.2,44.2z"/>
		<path class="st4" d="M197.2,35.3c0.5-1,1.2-1.9,2.1-2.5c2-1.2,4.5-1.2,6.4,0c0.9,0.6,1.7,1.5,2.2,2.5c0.5,1.1,0.8,2.3,0.8,3.6v0.4
			c0,1.2-0.2,2.5-0.8,3.6c-1.4,3-4.9,4.2-7.9,2.8c-1.2-0.6-2.2-1.6-2.8-2.8c-0.5-1.1-0.8-2.3-0.8-3.6v-0.4
			C196.4,37.7,196.7,36.4,197.2,35.3z M198.5,42.1c0.3,0.8,0.9,1.5,1.6,2c0.7,0.5,1.6,0.8,2.5,0.8c0.9,0,1.8-0.2,2.5-0.8
			c0.7-0.5,1.2-1.2,1.6-2c0.4-0.9,0.6-1.9,0.5-2.8v-0.4c0-1-0.2-1.9-0.6-2.8c-0.3-0.8-0.9-1.6-1.6-2.1c-1.5-1-3.5-1-5,0
			c-0.7,0.5-1.2,1.2-1.6,2.1c-0.4,0.9-0.5,1.8-0.5,2.8v0.4C197.9,40.2,198.1,41.2,198.5,42.1z"/>
		<path class="st4" d="M228.6,32.2l-4,13.7h-1.3l-3.6-10.9l-0.2-0.8l-0.2,0.8L215.9,46h-1.3l-4-13.7h1.6l2.9,10.6l0.2,1.2l0.3-1.2
			l3.3-10.5h1.3l3.2,10.4l0.4,1.4l0.3-1.3l2.8-10.5L228.6,32.2z"/>
		<path class="st4" d="M240.7,33.2c0.8,1.1,1.2,2.5,1.1,3.8v9h-1.5v-9c0.1-1-0.2-2.1-0.8-2.9c-0.7-0.6-1.5-0.9-2.4-0.8
			c-0.9,0-1.8,0.3-2.5,0.9c-0.7,0.6-1.2,1.4-1.5,2.3V46h-1.5V32.2h1.5l0,2.3c0.5-0.8,1.1-1.4,1.9-1.9c0.8-0.5,1.7-0.7,2.6-0.7
			C238.6,31.9,239.8,32.3,240.7,33.2z"/>
	</g>
</g>
</svg>
