<?xml version="1.0" encoding="utf-8"?>
<!-- Generator: Adobe Illustrator 22.0.1, SVG Export Plug-In . SVG Version: 6.00 Build 0)  -->
<svg version="1.1" id="Layer_1" xmlns="http://www.w3.org/2000/svg" xmlns:xlink="http://www.w3.org/1999/xlink" x="0px" y="0px"
	 viewBox="0 0 441 334" style="enable-background:new 0 0 441 334;" xml:space="preserve">
<style type="text/css">
	.st0{fill:#FFFFFF;}
	.st1{fill:#414141;}
	.st2{opacity:0.6;}
	.st3{fill:#0077C4;}
	.st4{fill:#333333;}
</style>
<title>downside-emerging</title>
<g id="downside-developed">
	<rect id="background" y="104" class="st0" width="441" height="230"/>
	<polygon id="bar-2" class="st1" points="239,295.8 239.1,146.3 397.8,146.6 397.6,296.1 	"/>
	<g id="bar-2-label">
		<g class="st2">
			<rect x="264" y="206.1" class="st0" width="13.9" height="4.5"/>
			<path class="st0" d="M301.6,187.2h-4.8l-17.2,26.1v3h17v9.2h5v-9.2h5.6v-4.5h-5.6L301.6,187.2z M286.1,211.7l10.5-16.1v16.1
				L286.1,211.7z"/>
			<polygon class="st0" points="308.6,191.7 328.7,191.7 313.3,225.4 318.6,225.4 334.5,190.1 334.5,187.2 308.6,187.2 			"/>
			<path class="st0" d="M350.6,204.4c1.2-0.8,2.2-1.8,2.8-3.1c0.7-1.3,1-2.7,1-4.2v-1.9c0-1.5-0.3-2.9-1-4.2
				c-2-3.9-6.9-5.5-10.8-3.4c-1.5,0.8-2.7,2-3.4,3.4c-0.7,1.3-1,2.8-1,4.2v1.9c0,1.5,0.3,2.9,1,4.2c0.7,1.3,1.6,2.3,2.9,3.1
				c1.3,0.8,2.8,1.2,4.3,1.1C347.9,205.5,349.4,205.1,350.6,204.4z M343.1,199.2L343.1,199.2c-0.3-0.7-0.5-1.4-0.5-2.2v-1.9
				c0-0.8,0.1-1.5,0.5-2.2c0.3-0.6,0.7-1.2,1.3-1.6c1.2-0.8,2.8-0.8,4,0c0.5,0.4,1,0.9,1.2,1.5c0.3,0.7,0.4,1.5,0.4,2.2v1.9
				c0,0.8-0.1,1.5-0.4,2.2c-0.3,0.6-0.7,1.1-1.2,1.5c-0.6,0.4-1.3,0.6-2,0.6c-0.7,0-1.4-0.2-2-0.6
				C343.8,200.4,343.4,199.9,343.1,199.2z"/>
			<path class="st0" d="M371.7,211.3c-0.6-1.3-1.6-2.4-2.9-3.1c-1.3-0.8-2.8-1.2-4.3-1.1c-3-0.1-5.7,1.6-7.1,4.3
				c-0.7,1.3-1,2.7-1,4.2v1.9c0,1.5,0.3,2.9,1,4.2c0.7,1.3,1.6,2.3,2.9,3.1c1.3,0.8,2.8,1.2,4.3,1.2c3,0.1,5.7-1.6,7.1-4.3
				c0.7-1.3,1-2.7,1-4.2v-1.9C372.7,214.1,372.4,212.6,371.7,211.3z M368.3,215.5v1.9c0,0.8-0.1,1.5-0.4,2.2
				c-0.3,0.6-0.7,1.1-1.2,1.5c-0.6,0.4-1.3,0.6-2,0.6c-0.7,0-1.4-0.2-2-0.6c-0.6-0.4-1-0.9-1.2-1.5l0,0c-0.3-0.7-0.4-1.4-0.4-2.2
				v-1.9c0-0.8,0.1-1.5,0.5-2.3c0.3-0.6,0.7-1.1,1.2-1.5c0.6-0.4,1.3-0.6,2-0.6c0.7,0,1.4,0.2,2,0.5c0.5,0.4,1,0.9,1.2,1.5
				C368.1,214,368.3,214.7,368.3,215.5z"/>
			<polygon class="st0" points="362.9,190.5 344.1,220.5 347.6,222.8 366.4,192.8 			"/>
		</g>
		<path class="st0" d="M282.3,255.5l-9.3-14.3v14.3h-2.5v-18.5h2.5l9.3,14.3v-14.3h2.4v18.5H282.3z"/>
		<path class="st0" d="M302.7,251.6c-0.5,1.3-1.4,2.3-2.6,3.1c-3.3,2.2-7.8,1.2-9.9-2.1c-0.2-0.3-0.4-0.6-0.5-1
			c-0.7-1.5-1-3.1-0.9-4.7v-1.2c0-1.6,0.3-3.2,0.9-4.7c1.7-3.6,6.1-5.2,9.7-3.5c0.2,0.1,0.5,0.2,0.7,0.4c1.1,0.8,2,1.8,2.6,3.1
			c0.6,1.5,1,3.1,0.9,4.7v1.2C303.6,248.5,303.3,250.1,302.7,251.6z M300.5,242c-0.3-0.9-0.9-1.7-1.7-2.3c-1.6-1.1-3.7-1.1-5.3,0
			c-0.8,0.6-1.4,1.4-1.7,2.3c-0.4,1.2-0.6,2.4-0.6,3.7v1.2c0,1.3,0.2,2.5,0.6,3.7c0.3,0.9,0.9,1.7,1.8,2.3c0.8,0.5,1.7,0.8,2.6,0.8
			c1.4,0.1,2.8-0.6,3.7-1.8c1-1.5,1.4-3.3,1.3-5.1v-1.2C301.2,244.4,301,243.2,300.5,242z"/>
		<path class="st0" d="M319.2,255.5l-9.2-14.3v14.3h-2.5v-18.5h2.5l9.3,14.3v-14.3h2.4v18.5H319.2z"/>
		<path class="st0" d="M324.6,248.6v-1.9h6.2v1.9H324.6z"/>
		<path class="st0" d="M348,237.1v18.5h-2.5V247h-9.3v8.6h-2.5v-18.5h2.5v7.9h9.3v-7.9L348,237.1z"/>
		<path class="st0" d="M365.1,252.8c-0.6,0.9-1.4,1.7-2.3,2.2c-1.1,0.6-2.4,0.8-3.7,0.8c-1.3,0-2.7-0.3-3.8-1.1
			c-1.1-0.7-2-1.8-2.5-3c-0.6-1.4-0.9-2.9-0.9-4.5v-1.9c0-1.6,0.3-3.1,0.9-4.5c0.6-1.2,1.5-2.3,2.6-3c1.2-0.7,2.6-1.1,4-1.1
			c1.2,0,2.4,0.2,3.5,0.8c0.9,0.5,1.7,1.2,2.3,2.2c0.6,1,0.9,2.1,1,3.2h-2.4c-0.1-1.2-0.5-2.2-1.3-3.1c-0.8-0.7-1.9-1.1-3-1.1
			c-1,0-1.9,0.3-2.7,0.8c-0.8,0.6-1.4,1.4-1.7,2.3c-0.4,1.1-0.6,2.3-0.6,3.5v1.9c0,1.1,0.2,2.3,0.5,3.4c0.3,0.9,0.8,1.7,1.6,2.4
			c0.7,0.6,1.7,0.9,2.6,0.9c0.8,0,1.7-0.1,2.5-0.5c0.6-0.3,1.1-0.8,1.4-1.3c0.4-0.7,0.6-1.5,0.7-2.3h2.5
			C366,250.8,365.7,251.9,365.1,252.8z"/>
	</g>
	<rect id="bar-1" x="39.6" y="146.4" class="st3" width="158.7" height="101.8"/>
	<g id="bar-1-label">
		<path class="st0" d="M117,213.1v18.5h-2.5v-8.6h-9.3v8.6h-2.5v-18.5h2.5v7.9h9.3v-7.9H117z"/>
		<path class="st0" d="M134.1,228.9c-0.6,0.9-1.4,1.7-2.3,2.1c-1.1,0.6-2.4,0.8-3.7,0.8c-1.3,0-2.7-0.3-3.8-1.1
			c-1.1-0.7-2-1.8-2.5-3c-0.6-1.4-0.9-2.9-0.9-4.5v-1.9c0-1.5,0.3-3.1,0.9-4.5c0.6-1.2,1.5-2.3,2.6-3c1.2-0.7,2.6-1.1,3.9-1.1
			c1.2,0,2.4,0.2,3.5,0.8c0.9,0.5,1.7,1.2,2.3,2.2c0.6,1,0.9,2.1,1,3.3h-2.5c-0.1-1.2-0.5-2.2-1.3-3.1c-0.8-0.8-1.9-1.1-3-1.1
			c-1,0-1.9,0.3-2.7,0.8c-0.8,0.6-1.3,1.4-1.7,2.3c-0.4,1.1-0.6,2.3-0.6,3.5v1.9c0,1.1,0.2,2.3,0.5,3.4c0.3,0.9,0.8,1.7,1.6,2.4
			c0.8,0.6,1.7,0.9,2.7,0.9c0.8,0,1.7-0.1,2.4-0.5c0.6-0.3,1.1-0.8,1.4-1.5c0.4-0.7,0.6-1.5,0.7-2.3h2.5
			C135.1,226.9,134.7,227.9,134.1,228.9z"/>
		<g class="st2">
			<rect x="64.6" y="182.3" class="st0" width="13.9" height="4.5"/>
			<path class="st0" d="M100.3,181.9c0.5-0.3,1.1-0.7,1.5-1.1c1-0.9,1.8-2,2.4-3.2c0.5-1.1,0.8-2.4,0.8-3.6c0-2.1-0.5-4.1-1.4-5.9
				c-1-1.7-2.4-3-4.1-3.8c-1.9-0.9-3.9-1.3-6-1.3c-2.1,0-4.2,0.5-6.1,1.4c-1.8,0.9-3.2,2.2-4.3,3.9c-1.1,1.7-1.6,3.7-1.6,5.7v1h5v-1
				c0-1.2,0.3-2.4,0.9-3.4c0.6-1,1.4-1.7,2.4-2.2c1.1-0.5,2.4-0.8,3.6-0.8c1.8-0.2,3.6,0.5,5,1.7c1.2,1.3,1.7,3,1.6,4.7
				c0,1.1-0.3,2.1-0.8,3.1c-0.6,1-1.5,1.7-2.6,2.2c-1.3,0.6-2.7,0.9-4.2,0.8h-4v4.6h4c2.2-0.1,4.3,0.4,6.1,1.6c1.4,1.2,2.2,3,2,4.8
				c0.1,1.9-0.5,3.7-1.8,5c-1.5,1.2-3.4,1.9-5.3,1.7c-1.4,0-2.8-0.3-4-0.9c-1.1-0.5-2-1.4-2.7-2.4c-0.7-1.1-1-2.3-1-3.5v-1H81v1
				c-0.1,2.2,0.5,4.4,1.8,6.2c1.2,1.7,2.8,3,4.7,3.9c1.9,0.8,4,1.3,6.1,1.3c2.1,0,4.2-0.4,6.2-1.3c1.8-0.9,3.3-2.3,4.4-4
				c1.1-1.8,1.6-3.9,1.6-6.1c0-2.2-0.6-4.3-1.9-6.1C102.9,183.5,101.7,182.5,100.3,181.9z"/>
			<path class="st0" d="M126.3,187.3c2-2.2,3.8-4.6,5.3-7.1c1.3-2,2-4.3,2-6.7c0-2-0.4-4-1.4-5.7c-1-1.6-2.4-2.9-4.1-3.7
				c-1.9-0.9-3.9-1.3-6-1.3c-2.2,0-4.5,0.5-6.4,1.6c-1.8,1-3.3,2.5-4.3,4.4c-1,1.8-1.5,3.9-1.5,6v1h5v-1c0-1.3,0.3-2.7,0.9-3.9
				c0.6-1.1,1.4-2,2.5-2.6c1.2-0.6,2.5-1,3.8-0.9c1.3,0,2.5,0.2,3.6,0.8c0.9,0.5,1.7,1.3,2.2,2.2c0.5,1.1,0.8,2.2,0.8,3.4
				c0,1.5-0.5,3-1.2,4.3c-1.3,2.2-2.8,4.2-4.6,6.1l-12.1,13.7v3.7h24.7v-4.5h-17.9L126.3,187.3z"/>
			<path class="st0" d="M172.3,187.5c-0.6-1.3-1.6-2.4-2.9-3.1c-1.3-0.8-2.8-1.2-4.3-1.1c-1.5,0-3,0.4-4.2,1.2
				c-1.2,0.8-2.2,1.8-2.9,3.1c-0.7,1.3-1,2.7-1,4.2v1.9c0,1.5,0.3,2.9,1,4.2c1.4,2.7,4.1,4.3,7.1,4.3c3,0.1,5.7-1.6,7.1-4.3
				c0.7-1.3,1-2.7,1-4.2v-1.9C173.3,190.2,173,188.8,172.3,187.5z M167.2,197.4c-0.6,0.4-1.3,0.6-2,0.6c-1.4,0.1-2.7-0.8-3.3-2.1
				l0,0c-0.3-0.7-0.4-1.4-0.4-2.2v-1.9c0-0.8,0.1-1.5,0.4-2.2c0.3-0.6,0.7-1.1,1.2-1.5c0.6-0.4,1.3-0.6,2-0.6c0.7,0,1.4,0.2,2,0.5
				c0.5,0.4,1,0.9,1.2,1.5c0.3,0.7,0.5,1.5,0.4,2.3v1.9c0,0.8-0.1,1.5-0.4,2.2C168.1,196.5,167.7,197,167.2,197.4L167.2,197.4z"/>
			<polygon class="st0" points="163.5,166.7 144.7,196.7 148.2,199 167,168.9 			"/>
			<path class="st0" d="M151.2,180.5c1.2-0.8,2.2-1.8,2.8-3.1c0.7-1.3,1-2.7,1-4.2v-1.9c0-1.5-0.3-2.9-1-4.2c-2.1-4-7.1-5.4-11-3.3
				c-0.1,0.1-0.2,0.1-0.3,0.2c-1.2,0.8-2.2,1.8-2.9,3.1c-0.7,1.3-1,2.8-1,4.2v1.9c0,1.5,0.3,2.9,1,4.2c0.7,1.3,1.6,2.4,2.9,3.1
				c1.3,0.8,2.8,1.2,4.3,1.1C148.5,181.7,149.9,181.3,151.2,180.5z M144.9,167.5c1.2-0.8,2.8-0.8,4,0c0.6,0.4,1,0.9,1.2,1.5
				c0.3,0.7,0.5,1.5,0.4,2.2v1.9c0,0.8-0.1,1.5-0.4,2.2c-0.2,0.6-0.6,1.2-1.2,1.6c-0.6,0.4-1.3,0.6-2,0.6c-0.7,0-1.4-0.2-2.1-0.6
				c-0.6-0.4-1-0.9-1.2-1.5l0,0c-0.3-0.7-0.5-1.4-0.4-2.2v-1.9c0-0.8,0.1-1.5,0.4-2.2C144,168.5,144.4,167.9,144.9,167.5
				L144.9,167.5z"/>
		</g>
	</g>
	<g id="label">
		<path class="st4" d="M11,77.8v2H1.6V65.6h9.3v2H4.2v3.9H10v2H4.2v4.3L11,77.8z"/>
		<path class="st4" d="M27,70c0.7,0.9,1,1.9,0.9,3v6.8h-2.4v-6.9c0.1-0.5-0.1-1.1-0.5-1.5c-0.4-0.3-0.9-0.5-1.4-0.4
			c-0.5,0-0.9,0.1-1.3,0.4c-0.4,0.3-0.6,0.7-0.7,1.1v7.3h-2.4V73c0.1-0.5-0.1-1.1-0.5-1.5c-0.4-0.3-0.9-0.5-1.4-0.4
			c-0.8-0.1-1.6,0.4-2,1.2v7.6h-2.4V69.2h2.3l0.1,1.1c0.4-0.4,0.8-0.8,1.3-1c0.5-0.2,1.1-0.3,1.7-0.3c0.6,0,1.2,0.1,1.7,0.4
			c0.5,0.3,0.9,0.7,1.1,1.2c0.3-0.5,0.8-0.9,1.4-1.2c0.6-0.3,1.2-0.4,1.9-0.4C25.4,69,26.3,69.3,27,70z"/>
		<path class="st4" d="M39.4,75.3h-6.9c0,0.5,0.2,1,0.4,1.4c0.5,0.8,1.4,1.3,2.4,1.3c1,0,2-0.5,2.6-1.3l1.3,1.3
			c-0.4,0.6-1,1.1-1.6,1.4c-0.8,0.4-1.6,0.6-2.5,0.6c-0.9,0-1.9-0.2-2.7-0.7c-0.8-0.4-1.4-1.1-1.8-1.8c-0.4-0.8-0.6-1.7-0.6-2.6
			v-0.4c0-1,0.2-2,0.7-2.9c0.4-0.8,1-1.4,1.7-1.9c0.7-0.4,1.6-0.7,2.4-0.7c0.9,0,1.8,0.2,2.5,0.7c0.7,0.4,1.2,1.1,1.5,1.8
			c0.3,0.9,0.5,1.8,0.5,2.7L39.4,75.3z M37,73.3c0-0.6-0.2-1.2-0.6-1.7c-0.4-0.4-1-0.7-1.6-0.6c-0.6,0-1.2,0.2-1.6,0.7
			c-0.4,0.5-0.7,1.2-0.8,1.9H37V73.3z"/>
		<path class="st4" d="M46.7,69.1c0.1,0,0.3,0,0.4,0.1v2.3c-0.3-0.1-0.7-0.1-1-0.1c-0.9-0.1-1.8,0.4-2.2,1.2v7.2h-2.4V69.2h2.3
			l0.1,1.2c0.2-0.4,0.6-0.8,1-1c0.4-0.3,0.9-0.4,1.3-0.4C46.4,69,46.5,69,46.7,69.1z"/>
		<path class="st4" d="M57.7,69.2v10.3c0,0.8-0.2,1.7-0.6,2.4c-0.4,0.7-1,1.2-1.7,1.5c-0.8,0.4-1.7,0.5-2.5,0.5
			c-0.5,0-0.9-0.1-1.4-0.2c-0.5-0.1-1-0.3-1.4-0.6c-0.4-0.2-0.8-0.6-1.1-1l1.1-1.4c0.3,0.4,0.8,0.8,1.2,1c0.5,0.2,0.9,0.3,1.4,0.3
			c0.7,0,1.4-0.2,1.9-0.7c0.5-0.5,0.7-1.2,0.7-1.8v-0.7c-0.7,0.8-1.7,1.2-2.7,1.1c-0.8,0-1.6-0.2-2.2-0.7c-0.7-0.5-1.2-1.2-1.5-1.9
			c-0.4-0.9-0.5-1.8-0.5-2.8v-0.2c0-1,0.2-1.9,0.5-2.8c0.3-0.8,0.8-1.4,1.5-1.9c0.7-0.5,1.5-0.7,2.3-0.7c1.1-0.1,2.1,0.4,2.8,1.2
			l0.1-1L57.7,69.2z M55.2,76.8v-4.6C54.8,71.4,54,71,53.2,71c-0.5,0-1,0.1-1.4,0.4c-0.4,0.3-0.7,0.7-0.8,1.2
			c-0.2,0.6-0.2,1.2-0.2,1.7v0.2c0,0.9,0.2,1.7,0.6,2.4c0.4,0.6,1.1,1,1.8,0.9C54.1,78,54.9,77.5,55.2,76.8z"/>
		<path class="st4" d="M62.7,65.5c0.5,0.5,0.5,1.3,0,1.8c-0.6,0.5-1.4,0.5-2,0c-0.2-0.2-0.4-0.6-0.4-0.9c0-0.3,0.1-0.7,0.4-0.9
			C61.2,65.1,62.1,65.1,62.7,65.5z M60.4,79.8V69.2h2.4v10.6H60.4z"/>
		<path class="st4" d="M73.5,70c0.7,0.9,1,1.9,0.9,3v6.8h-2.4V73c0.1-0.5-0.1-1.1-0.5-1.5c-0.4-0.3-0.9-0.5-1.4-0.5
			c-0.4,0-0.9,0.1-1.2,0.3c-0.4,0.2-0.7,0.5-0.9,0.9v7.5h-2.4V69.2h2.3l0.1,1.2c0.4-0.4,0.8-0.8,1.3-1c0.5-0.3,1.1-0.4,1.7-0.4
			C71.9,69,72.8,69.4,73.5,70z"/>
		<path class="st4" d="M85.9,69.2v10.3c0,0.8-0.2,1.7-0.6,2.4c-0.4,0.7-1,1.2-1.7,1.5c-1.2,0.5-2.6,0.7-3.9,0.3
			c-0.5-0.1-1-0.3-1.4-0.6c-0.4-0.2-0.8-0.6-1.1-1l1.1-1.4c0.3,0.4,0.8,0.8,1.2,1c0.5,0.2,0.9,0.3,1.4,0.3c0.7,0,1.4-0.2,1.9-0.7
			c0.5-0.5,0.7-1.2,0.7-1.8v-0.7c-0.7,0.8-1.7,1.2-2.7,1.1c-0.8,0-1.6-0.2-2.2-0.7c-0.7-0.5-1.2-1.2-1.5-1.9
			c-0.4-0.9-0.5-1.8-0.5-2.8v-0.2c0-1,0.2-1.9,0.5-2.8c0.3-0.8,0.8-1.4,1.5-1.9c0.7-0.5,1.4-0.7,2.2-0.7c1.1-0.1,2.1,0.4,2.8,1.2
			l0.1-1L85.9,69.2z M83.5,76.8v-4.6c-0.4-0.8-1.2-1.2-2.1-1.2c-0.5,0-1,0.1-1.4,0.4c-0.4,0.3-0.7,0.7-0.8,1.2
			c-0.2,0.6-0.3,1.1-0.3,1.7v0.2c0,0.9,0.2,1.7,0.6,2.4c0.4,0.6,1.1,1,1.8,0.9C82.2,78,83.1,77.6,83.5,76.8z"/>
		<path class="st4" d="M107.8,70c0.7,0.9,1,1.9,0.9,3v6.8h-2.4v-6.9c0.1-0.5-0.1-1.1-0.5-1.5c-0.4-0.3-0.9-0.5-1.4-0.4
			c-0.5,0-0.9,0.1-1.3,0.4c-0.4,0.3-0.6,0.7-0.7,1.1v7.3H100V73c0.1-0.5-0.1-1.1-0.5-1.5c-0.4-0.3-0.9-0.5-1.4-0.4
			c-0.8-0.1-1.6,0.4-2,1.2v7.6h-2.4V69.2h2.3l0.1,1.1c0.4-0.4,0.8-0.8,1.3-1c0.5-0.2,1.1-0.4,1.7-0.3c0.6,0,1.2,0.1,1.7,0.4
			c0.5,0.3,0.9,0.7,1.1,1.2c0.3-0.5,0.8-0.9,1.4-1.2c0.6-0.3,1.2-0.4,1.9-0.4C106.2,68.9,107.1,69.3,107.8,70z"/>
		<path class="st4" d="M120,79.6v0.2h-2.5c-0.1-0.3-0.2-0.7-0.3-1c-0.3,0.4-0.7,0.6-1.2,0.9c-0.5,0.2-1,0.3-1.6,0.3
			c-0.6,0-1.3-0.1-1.9-0.4c-0.5-0.3-1-0.6-1.3-1.1c-0.3-0.5-0.5-1-0.5-1.6c0-1,0.4-2,1.3-2.6c1.1-0.7,2.3-1,3.6-0.9h1.5v-0.7
			c0.1-0.9-0.5-1.7-1.4-1.8c-0.1,0-0.3,0-0.4,0c-0.3,0-0.6,0.1-0.9,0.2c-0.3,0.1-0.5,0.3-0.6,0.5c-0.1,0.2-0.2,0.5-0.2,0.7h-2.4
			c0-0.6,0.2-1.1,0.5-1.6c0.4-0.5,0.9-0.9,1.5-1.2c0.7-0.3,1.5-0.5,2.3-0.4c0.7,0,1.5,0.1,2.1,0.4c0.6,0.3,1.1,0.7,1.4,1.2
			c0.4,0.6,0.5,1.3,0.5,2v4.7C119.6,78.1,119.7,78.9,120,79.6z M116.3,77.6c0.4-0.2,0.7-0.5,0.9-0.9v-2h-1.3c-0.7,0-1.3,0.1-1.9,0.5
			c-0.4,0.3-0.7,0.8-0.7,1.3c0,0.4,0.2,0.7,0.4,1c0.3,0.3,0.8,0.4,1.2,0.4C115.4,77.9,115.9,77.9,116.3,77.6L116.3,77.6z"/>
		<path class="st4" d="M127.5,69.1c0.1,0,0.3,0,0.4,0.1v2.3c-0.3-0.1-0.7-0.1-1-0.1c-0.9-0.1-1.8,0.4-2.2,1.2v7.2h-2.4V69.2h2.3
			l0.1,1.2c0.2-0.4,0.6-0.8,1-1c0.4-0.2,0.9-0.4,1.4-0.4C127.2,69,127.3,69,127.5,69.1z"/>
		<path class="st4" d="M133,75.3l-1.1,1.1v3.4h-2.4v-15h2.4v8.6l0.7-0.9l2.9-3.3h2.9l-3.9,4.4l4.3,6.2h-2.8L133,75.3z"/>
		<path class="st4" d="M149.1,75.3h-6.9c0,0.5,0.2,1,0.4,1.4c0.2,0.4,0.6,0.8,1,1c0.4,0.2,0.9,0.4,1.4,0.3c1,0,2-0.5,2.6-1.3L149,78
			c-0.4,0.6-1,1.1-1.6,1.4c-0.8,0.4-1.6,0.6-2.5,0.6c-0.9,0-1.9-0.2-2.7-0.7c-0.7-0.4-1.4-1.1-1.8-1.8c-0.4-0.8-0.6-1.7-0.6-2.6
			v-0.4c0-1,0.2-2,0.6-2.9c1.2-2.4,4.1-3.3,6.5-2c0.1,0,0.1,0.1,0.2,0.1c0.7,0.4,1.2,1.1,1.5,1.8c0.4,0.9,0.5,1.8,0.5,2.7
			L149.1,75.3z M146.8,73.3c0-0.6-0.2-1.2-0.6-1.7c-0.4-0.5-1-0.7-1.6-0.7c-0.6,0-1.2,0.2-1.6,0.7c-0.4,0.5-0.7,1.2-0.8,1.9h4.4
			V73.3z"/>
		<path class="st4" d="M156.1,77.9v1.9c-0.5,0.2-1.1,0.2-1.6,0.2c-0.7,0-1.5-0.2-2-0.7c-0.5-0.6-0.8-1.4-0.7-2.3v-6h-1.7v-1.8h1.7
			v-2.6h2.4v2.6h1.9V71h-1.9v5.8c0,0.3,0.1,0.7,0.3,0.9c0.2,0.2,0.5,0.3,0.8,0.2C155.6,78,155.9,77.9,156.1,77.9z"/>
		<path class="st4" d="M158.9,74.2c-0.6-0.5-1-1.2-1-2c0-0.6,0.2-1.1,0.5-1.6c0.4-0.5,0.8-0.9,1.4-1.2c0.7-0.3,1.4-0.5,2.1-0.4
			c0.8,0,1.5,0.1,2.3,0.4c0.6,0.3,1.1,0.7,1.5,1.2c0.3,0.5,0.5,1.1,0.5,1.7h-2.4c0-0.3-0.1-0.5-0.2-0.8c-0.2-0.2-0.4-0.4-0.6-0.6
			c-0.3-0.1-0.7-0.2-1-0.2c-0.5,0-0.9,0.1-1.3,0.4c-0.3,0.2-0.5,0.6-0.4,0.9c0,0.2,0.1,0.4,0.2,0.6c0.2,0.2,0.4,0.3,0.7,0.4
			c0.4,0.2,0.9,0.3,1.3,0.4c0.7,0.1,1.5,0.4,2.1,0.7c0.5,0.2,1,0.6,1.3,1c0.3,0.5,0.5,1,0.5,1.6c0,0.6-0.2,1.2-0.5,1.7
			c-0.4,0.5-0.9,0.9-1.5,1.1c-0.7,0.3-1.5,0.4-2.2,0.4c-0.8,0-1.7-0.2-2.4-0.5c-0.6-0.3-1.2-0.7-1.6-1.3c-0.3-0.5-0.5-1.1-0.5-1.7
			h2.4c0,0.5,0.2,1,0.7,1.3c0.4,0.3,1,0.4,1.5,0.4c0.5,0,1-0.1,1.4-0.3c0.3-0.2,0.5-0.5,0.5-0.9c0-0.2-0.1-0.4-0.2-0.6
			c-0.2-0.2-0.4-0.4-0.7-0.5c-0.5-0.2-0.9-0.3-1.4-0.4C160.7,75.2,159.7,74.8,158.9,74.2z"/>
		<path class="st4" d="M21.5,46.5H20v-8.1l0.1-8.2l-6.9,16.3H12L5.1,30.2l0.1,8.2v8.1H3.7V28h2.1l6.8,16.3L19.4,28h2.1L21.5,46.5z"
			/>
		<path class="st4" d="M35.8,45.1c0,0.4,0.2,0.8,0.3,1.2v0.2h-1.6c-0.2-0.6-0.3-1.3-0.3-1.9c-0.5,0.7-1.2,1.2-1.9,1.6
			c-0.8,0.4-1.8,0.6-2.7,0.6c-0.8,0-1.6-0.2-2.3-0.5c-1.3-0.6-2.1-1.9-2.1-3.4c0-0.8,0.2-1.7,0.8-2.3c0.6-0.7,1.3-1.2,2.2-1.5
			c1.1-0.4,2.2-0.5,3.3-0.5h2.8v-1.6c0-0.9-0.3-1.7-0.9-2.3c-0.7-0.6-1.7-0.9-2.6-0.8c-0.6,0-1.3,0.1-1.9,0.4c-0.5,0.2-1,0.6-1.3,1
			C27.2,35.5,27,36,27,36.5h-1.5c0-0.7,0.2-1.4,0.7-2c0.5-0.7,1.1-1.2,1.9-1.5c1.7-0.7,3.6-0.7,5.3,0c0.7,0.3,1.3,0.8,1.8,1.5
			c0.5,0.7,0.7,1.6,0.7,2.4v6.6C35.8,44.1,35.8,44.6,35.8,45.1z M32.5,44.6c0.7-0.5,1.3-1.1,1.7-2v-3h-2.6c-0.9,0-1.8,0.1-2.7,0.4
			c-0.7,0.2-1.2,0.6-1.7,1.1c-0.4,0.5-0.6,1-0.6,1.6c0,0.5,0.1,1,0.4,1.4c0.3,0.4,0.6,0.8,1.1,1c0.5,0.2,1.1,0.4,1.6,0.3
			C30.7,45.4,31.7,45.2,32.5,44.6z"/>
		<path class="st4" d="M47.8,32.7h1.8l-4.7,6.7l4.8,7H48l-3.9-5.8l-3.9,5.8h-1.8l4.9-7l-4.7-6.7h1.8l3.7,5.6L47.8,32.7z"/>
		<path class="st4" d="M54.2,28c0.2,0.2,0.3,0.5,0.3,0.7c0,0.3-0.1,0.5-0.3,0.7c-0.4,0.4-1.1,0.4-1.5,0c-0.2-0.2-0.3-0.5-0.3-0.7
			c0-0.6,0.4-1,1-1C53.7,27.7,54,27.8,54.2,28z M52.6,46.5V32.7h1.5v13.7H52.6z"/>
		<path class="st4" d="M76.3,33.7c0.8,1.1,1.3,2.4,1.1,3.8v9H76v-9c0.1-1-0.2-2.1-0.8-2.9c-0.7-0.6-1.6-0.9-2.4-0.8
			c-1.4,0-2.8,0.7-3.5,1.9c-0.3,0.5-0.5,1.1-0.6,1.7v9.1h-1.5v-9.1c0.1-1-0.2-2-0.9-2.8c-0.7-0.6-1.6-0.9-2.5-0.8
			c-0.9,0-1.9,0.3-2.6,0.9c-0.7,0.6-1.2,1.4-1.4,2.3v9.4h-1.5V32.7h1.5V35c0.9-1.6,2.6-2.5,4.5-2.5c0.9,0,1.8,0.2,2.6,0.7
			c0.7,0.5,1.3,1.2,1.5,2c0.5-0.8,1.1-1.5,1.9-1.9c0.8-0.5,1.8-0.8,2.8-0.7C74.2,32.4,75.4,32.8,76.3,33.7z"/>
		<path class="st4" d="M91.7,32.7v13.7h-1.5v-1.7c-1,1.4-2.7,2.1-4.4,2c-1.2,0.1-2.4-0.4-3.3-1.2c-0.9-1.1-1.3-2.6-1.2-4v-8.7h1.5
			v8.8c-0.1,1.1,0.2,2.2,0.9,3c0.6,0.6,1.4,0.9,2.3,0.9c1,0,1.9-0.2,2.8-0.7c0.7-0.5,1.2-1.2,1.4-2v-10L91.7,32.7z"/>
		<path class="st4" d="M113.7,33.7c0.8,1.1,1.2,2.5,1.1,3.8v9h-1.5v-9c0.1-1-0.2-2.1-0.9-2.9c-0.7-0.6-1.5-0.9-2.4-0.8
			c-1.4,0-2.8,0.7-3.5,1.9c-0.3,0.5-0.5,1.1-0.6,1.7v9.1h-1.5v-9.1c0.1-1-0.2-2-0.9-2.8c-0.7-0.6-1.6-0.9-2.5-0.8
			c-0.9,0-1.9,0.3-2.6,0.9c-0.7,0.6-1.1,1.4-1.4,2.3v9.4h-1.5V32.7H97V35c0.9-1.6,2.6-2.5,4.4-2.5c0.9,0,1.8,0.2,2.6,0.7
			c0.7,0.5,1.3,1.2,1.5,2c0.4-0.8,1.1-1.5,1.9-1.9c0.8-0.5,1.8-0.8,2.8-0.7C111.5,32.4,112.8,32.8,113.7,33.7z"/>
		<path class="st4" d="M134.6,29c1.2,0.7,2.2,1.7,2.8,3c0.7,1.4,1,2.9,1,4.4v1.7c0,1.5-0.3,3-1,4.4c-0.6,1.2-1.6,2.3-2.8,2.9
			c-1.3,0.7-2.7,1-4.2,1h-5V28h5.2C132,28,133.4,28.3,134.6,29z M136.9,36.3c0-1.3-0.2-2.5-0.8-3.7c-0.5-1-1.3-1.9-2.2-2.5
			c-1-0.6-2.2-0.9-3.3-0.9h-3.6v15.8h3.5c1.2,0,2.4-0.3,3.4-0.9c1-0.6,1.8-1.5,2.2-2.5c0.5-1.2,0.8-2.4,0.8-3.7V36.3z"/>
		<path class="st4" d="M148.4,34c-0.3-0.1-0.7-0.1-1-0.1c-0.9,0-1.8,0.3-2.4,0.8c-0.7,0.6-1.2,1.4-1.4,2.3v9.5H142V32.7h1.5v2.2
			c0.3-0.7,0.9-1.3,1.6-1.8c0.7-0.4,1.5-0.7,2.3-0.6c0.2,0,0.4,0,0.6,0c0.2,0,0.3,0.1,0.5,0.1L148.4,34z"/>
		<path class="st4" d="M160.3,45.1c0.1,0.4,0.2,0.8,0.3,1.2v0.2H159c-0.2-0.6-0.3-1.3-0.3-1.9c-0.5,0.7-1.2,1.2-1.9,1.6
			c-0.8,0.4-1.8,0.6-2.7,0.6c-0.8,0-1.6-0.2-2.3-0.5c-0.6-0.3-1.2-0.8-1.6-1.4c-0.8-1.4-0.7-3.1,0.2-4.3c0.6-0.7,1.3-1.2,2.2-1.5
			c1.1-0.4,2.2-0.5,3.3-0.5h2.8v-1.6c0-0.9-0.3-1.7-0.9-2.3c-0.7-0.6-1.7-0.9-2.6-0.8c-0.6,0-1.3,0.1-1.9,0.4c-0.5,0.2-1,0.6-1.3,1
			c-0.3,0.4-0.5,0.9-0.5,1.4H150c0-0.7,0.2-1.4,0.7-2c0.5-0.7,1.1-1.2,1.9-1.5c1.7-0.7,3.6-0.8,5.3-0.1c0.7,0.3,1.3,0.8,1.8,1.5
			c0.4,0.7,0.6,1.6,0.6,2.5v6.6C160.2,44.1,160.3,44.6,160.3,45.1z M157,44.6c0.7-0.5,1.3-1.1,1.7-2v-3h-2.6c-0.9,0-1.8,0.1-2.7,0.4
			c-0.7,0.2-1.2,0.6-1.7,1.1c-0.4,0.4-0.6,1-0.6,1.6c0,0.5,0.1,1,0.4,1.4c0.3,0.4,0.6,0.8,1.1,1c0.5,0.2,1.1,0.4,1.6,0.3
			C155.2,45.4,156.2,45.2,157,44.6z"/>
		<path class="st4" d="M181,32.7l-4,13.7h-1.3l-3.5-10.9l-0.1-0.8l-0.2,0.8l-3.5,10.9h-1.3l-4-13.7h1.6l2.9,10.6l0.2,1.2l0.3-1.2
			l3.3-10.5h1.3l3.2,10.4l0.4,1.4l0.3-1.3l2.8-10.5L181,32.7z"/>
		<path class="st4" d="M194.4,27v19.5h-1.4l-0.1-1.8c-0.5,0.7-1.1,1.2-1.8,1.5c-0.8,0.4-1.6,0.6-2.5,0.5c-1,0-2-0.3-2.8-0.9
			c-0.8-0.6-1.5-1.5-1.8-2.5c-0.4-1.2-0.7-2.4-0.6-3.6v-0.3c0-1.3,0.2-2.5,0.6-3.7c0.4-1,1-1.9,1.8-2.5c0.8-0.6,1.8-0.9,2.8-0.9
			c0.9,0,1.7,0.2,2.5,0.6c0.7,0.4,1.3,0.9,1.8,1.6V27H194.4z M191.3,44.8c0.7-0.5,1.2-1.1,1.5-1.8v-6.5c-0.3-0.8-0.8-1.4-1.5-1.9
			c-0.7-0.5-1.6-0.8-2.5-0.7c-0.8,0-1.6,0.2-2.3,0.7c-0.6,0.5-1.1,1.2-1.4,2c-0.3,0.9-0.5,1.9-0.4,2.9v0.3c0,1,0.1,2,0.4,2.9
			c0.2,0.8,0.7,1.5,1.3,2c0.6,0.5,1.4,0.8,2.2,0.7C189.7,45.4,190.6,45.2,191.3,44.8L191.3,44.8z"/>
		<path class="st4" d="M198.3,35.8c0.5-1,1.2-1.9,2.1-2.5c2-1.2,4.5-1.2,6.4,0c0.9,0.6,1.7,1.5,2.2,2.5c0.5,1.1,0.8,2.3,0.8,3.6v0.4
			c0,1.2-0.2,2.5-0.8,3.6c-1.4,3-4.9,4.2-7.9,2.8c-1.2-0.6-2.2-1.6-2.8-2.8c-0.5-1.1-0.8-2.3-0.8-3.6v-0.4
			C197.5,38.2,197.8,36.9,198.3,35.8z M199.6,42.6c0.3,0.8,0.9,1.5,1.6,2c0.7,0.5,1.6,0.8,2.5,0.8c0.9,0,1.8-0.2,2.5-0.8
			c0.7-0.5,1.2-1.2,1.6-2c0.4-0.9,0.6-1.9,0.5-2.8v-0.4c0-1-0.2-1.9-0.6-2.8c-0.3-0.8-0.9-1.5-1.6-2.1c-1.5-1-3.5-1-5,0
			c-0.7,0.5-1.2,1.2-1.6,2.1c-0.4,0.9-0.5,1.8-0.5,2.8v0.4C199,40.8,199.2,41.7,199.6,42.6z"/>
		<path class="st4" d="M229.7,32.7l-4,13.7h-1.3l-3.6-10.9l-0.2-0.8l-0.2,0.8L217,46.5h-1.3l-4-13.7h1.6l2.9,10.6l0.2,1.2l0.3-1.2
			l3.3-10.5h1.3l3.2,10.4l0.4,1.4l0.3-1.3l2.8-10.5L229.7,32.7z"/>
		<path class="st4" d="M241.8,33.7c0.8,1.1,1.2,2.5,1.1,3.8v9h-1.5v-9c0.1-1-0.2-2.1-0.8-2.9c-0.7-0.6-1.5-0.9-2.4-0.8
			c-0.9,0-1.8,0.3-2.5,0.9c-0.7,0.6-1.2,1.4-1.5,2.3v9.4h-1.5V32.7h1.5l0,2.3c0.5-0.8,1.1-1.4,1.9-1.9c0.8-0.5,1.7-0.7,2.6-0.7
			C239.7,32.4,240.9,32.8,241.8,33.7z"/>
	</g>
</g>
</svg>
