<svg id="Layer_1" data-name="Layer 1" xmlns="http://www.w3.org/2000/svg" viewBox="0 0 265 265"><defs><style>.cls-1{fill:#c8c8c8;}.cls-2{fill:#0077c4;}.cls-3{fill:#414141;}.cls-4{fill:#707070;}</style></defs><title>emerging-markets</title><g id="emerging-markets"><rect id="bar-48" class="cls-1" x="122.83" y="38.21" width="44" height="5" transform="translate(85.62 179.01) rotate(-82.53)"/><rect id="bar-47" class="cls-1" x="134.17" y="40.41" width="44" height="5" transform="translate(75.64 183.42) rotate(-75.55)"/><rect id="bar-46" class="cls-1" x="146.53" y="44.52" width="44" height="5" transform="translate(60.99 185.03) rotate(-67.66)"/><rect id="bar-45" class="cls-1" x="157.78" y="50.03" width="44" height="5" transform="matrix(0.5, -0.87, 0.87, 0.5, 44.57, 182.15)"/><rect id="bar-44" class="cls-1" x="167.42" y="56.4" width="44" height="5" transform="translate(28.59 175) rotate(-53.1)"/><rect id="bar-43" class="cls-1" x="177.27" y="64.92" width="44" height="5" transform="translate(11.03 161.33) rotate(-45.21)"/><rect id="bar-42" class="cls-1" x="185.65" y="74.43" width="44" height="5" transform="translate(-3.87 142.46) rotate(-37.54)"/><rect id="bar-41" class="cls-1" x="192.12" y="84" width="44" height="5" transform="translate(-14.25 120.81) rotate(-30.54)"/><rect id="bar-40" class="cls-1" x="197.95" y="95.65" width="44" height="5" transform="translate(-20.84 92.31) rotate(-22.66)"/><rect id="bar-39" class="cls-1" x="202" y="107.5" width="44" height="5" transform="translate(-20.9 62.06) rotate(-15.08)"/><rect id="bar-38" class="cls-1" x="204.33" y="118.82" width="44" height="5" transform="matrix(0.99, -0.14, 0.14, 0.99, -14.81, 33.03)"/><rect id="bar-37" class="cls-1" x="205.27" y="131.81" width="44" height="5" transform="translate(-0.47 0.8) rotate(-0.2)"/><rect id="bar-36" class="cls-1" x="223.97" y="124.97" width="5" height="44" transform="translate(51.32 352.42) rotate(-82.54)"/><rect id="bar-35" class="cls-1" x="221.77" y="136.31" width="5" height="44" transform="translate(15 335.97) rotate(-75.55)"/><rect id="bar-34" class="cls-1" x="217.66" y="148.67" width="5" height="44" transform="translate(-21.38 309.44) rotate(-67.66)"/><rect id="bar-33" class="cls-1" x="212.14" y="159.92" width="5" height="44" transform="translate(-50.09 277.22) rotate(-60.08)"/><rect id="bar-32" class="cls-1" x="205.78" y="169.56" width="5" height="44" transform="translate(-69.97 243.07) rotate(-53.09)"/><rect id="bar-31" class="cls-1" x="197.26" y="179.41" width="5" height="44" transform="translate(-83.91 201.28) rotate(-45.21)"/><rect id="bar-30" class="cls-1" x="187.75" y="187.79" width="5" height="44" transform="translate(-88.43 159.34) rotate(-37.53)"/><rect id="bar-29" class="cls-1" x="178.17" y="194.26" width="5" height="44" transform="translate(-84.84 121.84) rotate(-30.55)"/><rect id="bar-28" class="cls-1" x="166.53" y="200.09" width="5" height="44" transform="translate(-72.52 82.27) rotate(-22.66)"/><rect id="bar-27" class="cls-1" x="154.67" y="204.15" width="5" height="44" transform="translate(-53.43 48.69) rotate(-15.08)"/><rect id="bar-26" class="cls-1" x="143.36" y="206.47" width="5" height="44" transform="translate(-30.71 22.81) rotate(-8.09)"/><rect id="bar-25" class="cls-1" x="130.36" y="207.41" width="5" height="44" transform="translate(-0.83 0.49) rotate(-0.21)"/><rect id="bar-24" class="cls-1" x="98.21" y="226.11" width="44" height="5" transform="translate(-122.09 318.06) rotate(-82.53)"/><rect id="bar-23" class="cls-1" x="86.87" y="223.91" width="44" height="5" transform="translate(-137.55 275.32) rotate(-75.55)"/><rect id="bar-22" class="cls-1" x="74.51" y="219.8" width="44" height="5" transform="translate(-145.79 227.08) rotate(-67.66)"/><rect id="bar-21" class="cls-1" x="63.26" y="214.28" width="44" height="5" transform="matrix(0.5, -0.87, 0.87, 0.5, -145.16, 182.55)"/><rect id="bar-20" class="cls-1" x="53.62" y="207.92" width="44" height="5" transform="translate(-138.05 144.55) rotate(-53.1)"/><rect id="bar-19" class="cls-1" x="43.77" y="199.4" width="44" height="5" transform="translate(-123.85 106.32) rotate(-45.21)"/><rect id="bar-18" class="cls-1" x="35.38" y="189.89" width="44" height="5" transform="translate(-105.34 74.81) rotate(-37.54)"/><rect id="bar-17" class="cls-1" x="28.92" y="180.31" width="44" height="5" transform="translate(-85.84 51.24) rotate(-30.54)"/><rect id="bar-16" class="cls-1" x="23.08" y="168.67" width="44" height="5" transform="translate(-62.46 30.58) rotate(-22.66)"/><rect id="bar-15" class="cls-1" x="19.03" y="156.81" width="44" height="5" transform="translate(-40.03 16.16) rotate(-15.08)"/><rect id="bar-14" class="cls-1" x="16.71" y="145.5" width="44" height="5" transform="matrix(0.99, -0.14, 0.14, 0.99, -20.43, 6.91)"/><rect id="bar-13" class="cls-1" x="15.77" y="132.5" width="44" height="5" transform="translate(-0.47 0.13) rotate(-0.2)"/><rect id="bar-12" class="cls-1" x="36.07" y="100.35" width="5" height="44" transform="translate(-87.75 144.7) rotate(-82.54)"/><rect id="bar-11" class="cls-1" x="38.27" y="89.01" width="5" height="44" transform="translate(-76.9 122.78) rotate(-75.55)"/><rect id="bar-10" class="cls-1" x="42.38" y="76.65" width="5" height="44" transform="translate(-63.42 102.67) rotate(-67.66)"/><rect id="bar-09" class="cls-2" x="47.9" y="65.4" width="5" height="44" transform="translate(-50.49 87.49) rotate(-60.08)"/><rect id="bar-08" class="cls-2" x="54.26" y="55.76" width="5" height="44" transform="translate(-39.51 76.45) rotate(-53.09)"/><rect id="bar-07" class="cls-2" x="62.78" y="45.9" width="5" height="44" transform="translate(-28.9 66.39) rotate(-45.21)"/><rect id="bar-06" class="cls-2" x="72.29" y="37.52" width="5" height="44" transform="translate(-20.78 57.89) rotate(-37.53)"/><rect id="bar-05" class="cls-2" x="81.86" y="31.06" width="5" height="44" transform="translate(-15.26 50.24) rotate(-30.55)"/><rect id="bar-04" class="cls-2" x="93.51" y="25.22" width="5" height="44" transform="translate(-10.78 40.64) rotate(-22.66)"/><rect id="bar-03" class="cls-2" x="105.36" y="21.17" width="5" height="44" transform="translate(-7.52 29.55) rotate(-15.08)"/><rect id="bar-02" class="cls-2" x="116.68" y="18.85" width="5" height="44" transform="translate(-4.56 17.18) rotate(-8.09)"/><rect id="bar-01" class="cls-2" x="129.67" y="17.91" width="5" height="44" transform="translate(-0.14 0.48) rotate(-0.21)"/><g id="label"><path class="cls-2" d="M110.25,115.59V112L120,101.42a37.13,37.13,0,0,0,2.52-3.08A10.43,10.43,0,0,0,123.84,96a5.78,5.78,0,0,0,.39-2.06,4.9,4.9,0,0,0-1.17-3.41,4.1,4.1,0,0,0-3.23-1.3,4.65,4.65,0,0,0-3.73,1.5,5.85,5.85,0,0,0-1.29,4h-5.14a9.84,9.84,0,0,1,1.22-4.85,8.8,8.8,0,0,1,3.53-3.47,11.14,11.14,0,0,1,5.47-1.28,11.89,11.89,0,0,1,5.12,1A7.44,7.44,0,0,1,128.26,89a8.5,8.5,0,0,1,1.11,4.41,10.22,10.22,0,0,1-1.57,5.28,34.13,34.13,0,0,1-4.58,5.79l-6.53,7h13.84v4.13Z"/><path class="cls-2" d="M151,97a8.3,8.3,0,0,1,2.89,3.68,12.86,12.86,0,0,1,.95,5,11.58,11.58,0,0,1-1.17,5.25,8.91,8.91,0,0,1-3.4,3.69,10,10,0,0,1-5.24,1.34,9.32,9.32,0,0,1-5.45-1.6,10.24,10.24,0,0,1-3.52-4.29,14.41,14.41,0,0,1-1.21-5.92v-2a22.41,22.41,0,0,1,1.55-8.54,13.05,13.05,0,0,1,4.9-6,14.89,14.89,0,0,1,8.48-2.25h.62v4.23h-.35a11.16,11.16,0,0,0-5.22,1.11,8.23,8.23,0,0,0-3.28,3,10.88,10.88,0,0,0-1.43,4.41,7.68,7.68,0,0,1,2.7-1.86,9,9,0,0,1,3.43-.64A8,8,0,0,1,151,97Zm-3.49,14.07A4.8,4.8,0,0,0,149.2,109a7.86,7.86,0,0,0,.58-3.12,8,8,0,0,0-.56-3.07,4.87,4.87,0,0,0-1.64-2.17,4.19,4.19,0,0,0-2.59-.81,5.35,5.35,0,0,0-4.93,3.28v1.59a10.4,10.4,0,0,0,.66,3.92A5.49,5.49,0,0,0,142.5,111a4.09,4.09,0,0,0,2.51.83A4.24,4.24,0,0,0,147.55,111.09Z"/><path class="cls-3" d="M106.57,181.26v-24l-7.33,2.46v-4.3l11.83-4.33h.64v30.17Z"/><path class="cls-3" d="M140.71,168.56a7.46,7.46,0,0,1,1.24,4.27,8.45,8.45,0,0,1-1.32,4.75,8.36,8.36,0,0,1-3.63,3,12.72,12.72,0,0,1-5.23,1,12.36,12.36,0,0,1-4.93-1,8.48,8.48,0,0,1-3.61-2.9,7.86,7.86,0,0,1-1.35-4.63H127a4.36,4.36,0,0,0,.6,2.28,4,4,0,0,0,1.69,1.55,5.55,5.55,0,0,0,2.54.55,5.09,5.09,0,0,0,3.65-1.24,4.59,4.59,0,0,0,1.31-3.49,4.52,4.52,0,0,0-1.44-3.68,6.15,6.15,0,0,0-4-1.19h-3v-4.05h3a5.16,5.16,0,0,0,3.74-1.24,5.13,5.13,0,0,0,.14-6.59,4.53,4.53,0,0,0-3.37-1.15,5.21,5.21,0,0,0-2.33.5,3.91,3.91,0,0,0-1.62,1.44,4,4,0,0,0-.59,2.17h-5.14a7.5,7.5,0,0,1,1.24-4.24,8.38,8.38,0,0,1,3.43-2.94,11.18,11.18,0,0,1,4.93-1.06,12.47,12.47,0,0,1,5.12,1,7.47,7.47,0,0,1,3.4,2.89,8.66,8.66,0,0,1,1.21,4.68,6.58,6.58,0,0,1-1.2,3.7,7.83,7.83,0,0,1-3.41,2.79A7.19,7.19,0,0,1,140.71,168.56Z"/><path class="cls-3" d="M147,181.26V177.7l9.79-10.61a37,37,0,0,0,2.52-3.09,10.9,10.9,0,0,0,1.29-2.32,6,6,0,0,0,.38-2.07,4.88,4.88,0,0,0-1.17-3.4,4.09,4.09,0,0,0-3.23-1.3,4.67,4.67,0,0,0-3.73,1.49,5.9,5.9,0,0,0-1.29,4h-5.14a9.85,9.85,0,0,1,1.22-4.86,8.84,8.84,0,0,1,3.53-3.46,11.06,11.06,0,0,1,5.47-1.28,11.72,11.72,0,0,1,5.12,1,7.32,7.32,0,0,1,3.25,2.88,8.45,8.45,0,0,1,1.11,4.41,10.16,10.16,0,0,1-1.57,5.27,33.28,33.28,0,0,1-4.58,5.8l-6.53,7h13.84v4.13Z"/><path class="cls-4" d="M109.82,139.52a5.25,5.25,0,0,1-9.58,0,8.06,8.06,0,0,1-.68-3.4v-1.5a8.07,8.07,0,0,1,.68-3.41,5.27,5.27,0,0,1,1.92-2.26,5.13,5.13,0,0,1,2.85-.79,5,5,0,0,1,4.8,3,8,8,0,0,1,.68,3.41v1.5A8.23,8.23,0,0,1,109.82,139.52Zm-1-7.8a4,4,0,0,0-1.48-1.87,4,4,0,0,0-2.31-.66,3.92,3.92,0,0,0-2.27.66,4.11,4.11,0,0,0-1.48,1.87,7.4,7.4,0,0,0-.51,2.87v1.52a7.48,7.48,0,0,0,.51,2.88,4.23,4.23,0,0,0,1.5,1.88,3.92,3.92,0,0,0,2.27.66,3.86,3.86,0,0,0,3.78-2.53,7.51,7.51,0,0,0,.5-2.89v-1.52A7.33,7.33,0,0,0,108.8,131.72Z"/><path class="cls-4" d="M123.35,137.84a4.92,4.92,0,0,1-.65,2.6,4.15,4.15,0,0,1-1.78,1.59,5.72,5.72,0,0,1-2.52.54,5.92,5.92,0,0,1-2.54-.53,4,4,0,0,1-1.74-1.6,4.91,4.91,0,0,1-.64-2.6v-9.5h1.18v9.5a4.05,4.05,0,0,0,.47,2,3.05,3.05,0,0,0,1.33,1.26,4.29,4.29,0,0,0,1.94.42,4.38,4.38,0,0,0,2-.42,3,3,0,0,0,1.32-1.26,4.05,4.05,0,0,0,.48-2v-9.5h1.19Z"/><path class="cls-4" d="M136.38,129.35h-4.81v13H130.4v-13h-4.81v-1h10.79Z"/><path class="cls-4" d="M153.08,139.52a5.36,5.36,0,0,1-7.65,2.25,5.24,5.24,0,0,1-1.93-2.26,8.06,8.06,0,0,1-.68-3.4v-1.5a7.92,7.92,0,0,1,.68-3.41,5.27,5.27,0,0,1,1.92-2.26,5.13,5.13,0,0,1,2.85-.79,5,5,0,0,1,4.8,3,8,8,0,0,1,.68,3.41v1.5A8.23,8.23,0,0,1,153.08,139.52Zm-1-7.8a4,4,0,0,0-1.48-1.87,4,4,0,0,0-2.31-.66,3.92,3.92,0,0,0-2.27.66,4.11,4.11,0,0,0-1.48,1.87,7.21,7.21,0,0,0-.52,2.87v1.52a7.48,7.48,0,0,0,.52,2.88,4.28,4.28,0,0,0,1.49,1.88,4.32,4.32,0,0,0,4.59,0,4,4,0,0,0,1.47-1.87,7.7,7.7,0,0,0,.5-2.89v-1.52A7.33,7.33,0,0,0,152.06,131.72Z"/><path class="cls-4" d="M158.14,129.35v5.45h6.53v1h-6.53v6.55H157v-14h8.69v1Z"/></g></g></svg>