<?xml version="1.0" encoding="utf-8"?>
<!-- Generator: Adobe Illustrator 22.0.1, SVG Export Plug-In . SVG Version: 6.00 Build 0)  -->
<svg version="1.1" id="Layer_1" xmlns="http://www.w3.org/2000/svg" xmlns:xlink="http://www.w3.org/1999/xlink" x="0px" y="0px"
	 viewBox="0 0 441 216.5" style="enable-background:new 0 0 441 216.5;" xml:space="preserve">

	<rect id="background" y="-1" class="bg-primary-dark" width="441" height="217"/>
	<g class="bar-horiz">
		<rect id="NONHC-bar" x="37.5" y="137.8" class="bg-white" width="193.3" height="40.2"/>
		<rect id="HC-bar" x="37.5" y="81" class="bg-gray-light" width="132.2" height="40.2"/>
	</g>
	<g class="bar-horiz-percent">
		<g id="NONHC-percent">
			<path class="bg-white" d="M261.5,159.1c0.8,1.1,1.2,2.4,1.2,3.8c0,1.3-0.3,2.7-1,3.8c-0.6,1.1-1.6,1.9-2.7,2.4
				c-1.2,0.6-2.6,0.9-3.9,0.9c-1.3,0-2.7-0.3-3.9-0.8c-1.2-0.5-2.2-1.4-2.9-2.4c-0.8-1.1-1.2-2.5-1.1-3.9h2c0,1,0.2,1.9,0.8,2.8
				c0.5,0.8,1.2,1.5,2.1,1.9c1,0.5,2,0.7,3.1,0.7c1.5,0.1,3-0.4,4.1-1.4c1-1,1.6-2.5,1.5-3.9c0.1-1.5-0.5-2.9-1.6-3.9
				c-1.4-0.9-3-1.3-4.6-1.2h-2.1V156h2.1c1.1,0,2.2-0.2,3.2-0.6c0.8-0.4,1.5-1,2-1.7c0.5-0.7,0.7-1.6,0.7-2.5
				c0.1-1.4-0.4-2.7-1.3-3.7c-1.1-1-2.5-1.5-3.9-1.3c-1,0-1.9,0.2-2.8,0.6c-0.8,0.4-1.5,1-2,1.8c-0.5,0.8-0.7,1.8-0.7,2.7h-2
				c0-1.3,0.3-2.5,1-3.5c0.7-1,1.6-1.9,2.7-2.4c1.2-0.6,2.5-0.9,3.9-0.9c1.3,0,2.6,0.2,3.8,0.8c1.1,0.5,1.9,1.3,2.5,2.4
				c0.6,1.1,0.9,2.4,0.9,3.7c0,0.8-0.2,1.5-0.5,2.2c-0.3,0.8-0.8,1.4-1.5,2c-0.7,0.6-1.5,1.1-2.3,1.4
				C259.4,157.2,260.7,158,261.5,159.1z"/>
			<path class="bg-white" d="M281.6,159.2c0.8,1.1,1.3,2.4,1.3,3.8c0,1.3-0.3,2.6-1,3.8c-0.7,1-1.7,1.9-2.8,2.4c-2.6,1.1-5.5,1.1-8.1,0
				c-1.2-0.5-2.1-1.3-2.8-2.4c-0.7-1.1-1-2.4-1-3.8c0-1.4,0.4-2.7,1.3-3.8c0.9-1.1,2.1-2,3.4-2.4c-1.2-0.4-2.2-1.2-2.9-2.2
				c-0.7-1-1.1-2.2-1.1-3.5c0-1.3,0.3-2.5,0.9-3.6c0.6-1,1.5-1.8,2.6-2.3c2.4-1.1,5.1-1.1,7.5,0c1.1,0.5,2,1.3,2.6,2.3
				c0.7,1.1,1,2.3,1,3.6c0,1.2-0.4,2.5-1.1,3.5c-0.8,1-1.8,1.8-3,2.2C279.5,157.3,280.7,158.1,281.6,159.2z M278,167.6
				c0.8-0.4,1.6-1,2.1-1.8c0.5-0.8,0.8-1.8,0.8-2.8c0-1-0.2-1.9-0.8-2.8c-0.5-0.8-1.2-1.5-2.1-1.9c-0.9-0.5-2-0.7-3-0.7
				c-1,0-2.1,0.2-3,0.7c-0.9,0.4-1.6,1.1-2.1,1.9c-1,1.7-1,3.9,0,5.6c0.5,0.8,1.2,1.4,2.1,1.8C273.9,168.4,276.1,168.4,278,167.6
				L278,167.6z M270.4,153.6c0.4,0.7,1.1,1.3,1.9,1.7c1.7,0.8,3.7,0.8,5.4,0c0.8-0.4,1.4-1,1.9-1.7c0.5-0.8,0.7-1.7,0.7-2.6
				c0-0.9-0.2-1.8-0.7-2.6c-0.5-0.8-1.1-1.4-1.9-1.8c-0.8-0.4-1.7-0.7-2.7-0.6c-0.9,0-1.9,0.2-2.7,0.6c-0.8,0.4-1.4,1-1.9,1.7
				c-0.5,0.8-0.7,1.7-0.7,2.6C269.7,152,269.9,152.9,270.4,153.6L270.4,153.6z"/>
			<path class="bg-white" d="M287.4,146.9c0.8-1.6,2.5-2.6,4.3-2.6c1.8,0,3.5,0.9,4.3,2.6c0.4,0.8,0.6,1.7,0.6,2.6v1.3
				c0,0.9-0.2,1.8-0.6,2.6c-0.4,0.8-1,1.4-1.7,1.9c-0.8,0.5-1.6,0.7-2.5,0.7c-0.9,0-1.8-0.2-2.6-0.7c-0.7-0.4-1.3-1.1-1.7-1.9
				c-0.4-0.8-0.6-1.7-0.6-2.6v-1.3C286.8,148.6,287,147.7,287.4,146.9z M288.8,152.6c0.5,1.2,1.6,1.9,2.9,1.8c0.6,0,1.2-0.2,1.8-0.5
				c0.5-0.3,0.8-0.8,1.1-1.3c0.2-0.6,0.4-1.2,0.4-1.8v-1.3c0-0.6-0.1-1.2-0.4-1.8c-0.2-0.5-0.6-1-1.1-1.4c-0.5-0.4-1.1-0.5-1.8-0.5
				c-0.6,0-1.2,0.2-1.8,0.5c-0.5,0.3-0.9,0.8-1.1,1.4c-0.2,0.6-0.4,1.2-0.4,1.8v1.3C288.5,151.4,288.6,152,288.8,152.6z M291.1,166.7
				l12.1-19.4l1.3,0.8l-12.1,19.4L291.1,166.7z M299.9,160.9c0.4-0.8,1-1.4,1.7-1.9c0.8-0.5,1.7-0.7,2.6-0.7c0.9,0,1.8,0.2,2.6,0.7
				c0.7,0.5,1.3,1.1,1.7,1.9c0.4,0.8,0.6,1.7,0.6,2.6v1.3c0,0.9-0.2,1.8-0.6,2.6c-0.4,0.8-1,1.4-1.7,1.9c-0.8,0.5-1.6,0.7-2.5,0.7
				c-0.9,0-1.8-0.2-2.6-0.7c-0.7-0.5-1.3-1.1-1.7-1.9c-0.4-0.8-0.6-1.7-0.6-2.6v-1.3C299.3,162.6,299.5,161.7,299.9,160.9z
				 M301.4,166.6c0.2,0.5,0.6,1,1.1,1.4c0.5,0.4,1.2,0.5,1.8,0.5c0.6,0,1.2-0.1,1.8-0.5c0.5-0.3,0.8-0.8,1.1-1.3
				c0.2-0.6,0.4-1.2,0.4-1.8v-1.3c0-0.6-0.1-1.3-0.4-1.8c-0.2-0.5-0.6-1-1.1-1.3c-0.5-0.3-1.1-0.5-1.8-0.5c-0.6,0-1.2,0.2-1.8,0.5
				c-0.5,0.3-0.9,0.8-1.1,1.3c-0.2,0.6-0.4,1.2-0.4,1.8v1.3C301,165.5,301.1,166.1,301.4,166.6z"/>
		</g>
		<g id="HC-percent">
			<path class="bg-white" d="M186.8,113.6V112l8.1-9.2c1.2-1.3,2.3-2.8,3.2-4.3c0.6-1,0.9-2.1,0.9-3.3c0-0.9-0.2-1.8-0.6-2.7
				c-0.4-0.8-1-1.4-1.8-1.8c-1.8-0.9-4-0.9-5.8,0.1c-0.9,0.5-1.6,1.2-2,2.1c-0.5,0.9-0.7,2-0.7,3h-2.1c0-1.3,0.3-2.6,0.9-3.8
				c0.6-1.1,1.5-2.1,2.7-2.7c1.2-0.7,2.6-1,4.1-1c1.3,0,2.6,0.2,3.9,0.8c1.1,0.5,1.9,1.3,2.5,2.3c0.6,1.1,0.9,2.3,0.9,3.6
				c0,1.5-0.5,3-1.3,4.2c-1.1,1.7-2.3,3.3-3.6,4.8l-7,7.8h13.1v1.8L186.8,113.6z"/>
			<path class="bg-white" d="M218.6,98.3c1.1,0.7,1.9,1.8,2.4,3c1.1,2.7,1.1,5.8-0.1,8.4c-0.6,1.2-1.4,2.3-2.6,3c-1.2,0.8-2.5,1.1-3.9,1.1
				c-1.5,0-3-0.4-4.3-1.2c-1.2-0.8-2.2-2-2.8-3.3c-0.7-1.4-1-3-1-4.6v-2.2c-0.1-2.6,0.4-5.1,1.3-7.5c0.8-2,2.2-3.7,4-4.9
				c2-1.2,4.3-1.8,6.6-1.7h0.3v1.8h-0.3c-1.8,0-3.5,0.4-5.1,1.2c-1.4,0.8-2.6,2-3.3,3.4c-0.8,1.6-1.3,3.5-1.4,5.3
				c0.7-1,1.6-1.7,2.6-2.2c1.1-0.5,2.3-0.8,3.6-0.8C216.1,97.2,217.4,97.6,218.6,98.3z M217.3,111.3c0.8-0.6,1.5-1.5,1.9-2.4
				c0.8-2.1,0.8-4.5,0-6.7c-0.4-0.9-1-1.8-1.8-2.3c-0.9-0.6-1.9-0.9-3-0.9c-0.9,0-1.7,0.2-2.5,0.5c-0.8,0.3-1.5,0.8-2.1,1.4
				c-0.6,0.6-1,1.3-1.2,2.1v1.7c0,1.3,0.2,2.7,0.8,3.9c0.5,1,1.2,1.9,2.2,2.6c0.9,0.6,2,0.9,3.1,0.9
				C215.5,112.2,216.5,111.9,217.3,111.3L217.3,111.3z"/>
			<path class="bg-white" d="M226.4,90.9c0.8-1.6,2.5-2.6,4.3-2.6c1.8,0,3.5,0.9,4.3,2.6c0.4,0.8,0.6,1.7,0.6,2.6v1.3
				c0,0.9-0.2,1.8-0.6,2.6c-0.4,0.8-1,1.4-1.7,1.8c-0.8,0.5-1.6,0.7-2.5,0.7c-0.9,0-1.8-0.2-2.6-0.7c-0.7-0.4-1.3-1.1-1.7-1.8
				c-0.4-0.8-0.6-1.7-0.6-2.6v-1.3C225.8,92.6,226,91.7,226.4,90.9z M227.8,96.6c0.5,1.2,1.6,1.9,2.9,1.8c0.6,0,1.2-0.2,1.8-0.5
				c0.5-0.3,0.8-0.8,1.1-1.3c0.2-0.6,0.4-1.2,0.4-1.8v-1.3c0-0.6-0.1-1.2-0.4-1.8c-0.2-0.5-0.6-1-1.1-1.3c-0.5-0.4-1.1-0.5-1.8-0.5
				c-0.6,0-1.2,0.2-1.8,0.5c-0.5,0.3-0.9,0.8-1.1,1.3c-0.2,0.6-0.4,1.2-0.4,1.8v1.3C227.5,95.4,227.6,96,227.8,96.6z M230.1,110.7
				l12.1-19.5l1.3,0.8l-12.1,19.5L230.1,110.7z M238.9,104.9c0.4-0.8,1-1.4,1.7-1.9c0.8-0.5,1.7-0.7,2.6-0.7c0.9,0,1.8,0.2,2.6,0.7
				c0.7,0.5,1.3,1.1,1.7,1.9c0.4,0.8,0.6,1.7,0.6,2.6v1.3c0,0.9-0.2,1.8-0.6,2.6c-0.4,0.8-1,1.4-1.7,1.9c-0.8,0.5-1.6,0.7-2.5,0.7
				c-0.9,0-1.8-0.2-2.6-0.7c-0.7-0.5-1.3-1.1-1.7-1.9c-0.4-0.8-0.6-1.7-0.6-2.6v-1.3C238.3,106.6,238.5,105.7,238.9,104.9
				L238.9,104.9z M240.3,110.6c0.2,0.5,0.6,1,1.1,1.3c0.5,0.4,1.2,0.5,1.8,0.5c0.6,0,1.2-0.1,1.8-0.5c0.5-0.3,0.8-0.8,1.1-1.3
				c0.2-0.6,0.4-1.2,0.4-1.8v-1.3c0-0.6-0.1-1.3-0.4-1.8c-0.2-0.5-0.6-1-1.1-1.3c-0.5-0.3-1.1-0.5-1.8-0.5c-0.6,0-1.2,0.2-1.8,0.5
				c-0.5,0.3-0.9,0.8-1.1,1.3c-0.2,0.6-0.4,1.2-0.4,1.8v1.3C240,109.5,240.1,110.1,240.3,110.6L240.3,110.6z"/>
		</g>
	</g>
	<g class="bar-horiz-labels">
		<g id="NONHC-label">
			<path class="bg-primary-dark" d="M59.1,163.6l-5.3-8.5v8.5h-2.1v-12.1h2.2l5.3,8.5v-8.5h2.1v12.1H59.1z"/>
			<path class="bg-primary-dark" d="M72.9,161c-0.4,0.8-1,1.5-1.8,2c-1.6,0.9-3.6,0.9-5.3,0c-0.8-0.5-1.4-1.2-1.8-2c-0.4-1-0.7-2.1-0.6-3.1v-0.6
				c0-1.1,0.2-2.1,0.6-3.1c0.4-0.8,1-1.6,1.8-2.1c0.8-0.5,1.7-0.7,2.6-0.7c0.9,0,1.8,0.2,2.6,0.7c0.8,0.5,1.4,1.2,1.8,2
				c0.4,1,0.7,2.1,0.6,3.1v0.6C73.6,158.9,73.4,160,72.9,161z M70.7,154.2c-0.5-0.7-1.3-1.1-2.1-1.1c-0.6,0-1.1,0.2-1.5,0.5
				c-0.5,0.4-0.8,0.8-1,1.4c-0.2,0.7-0.4,1.5-0.3,2.2v0.6c0,0.8,0.1,1.5,0.4,2.2c0.2,0.6,0.5,1,1,1.4c0.4,0.3,1,0.5,1.5,0.5
				c0.8,0,1.6-0.4,2.1-1.1c0.5-0.9,0.8-2,0.7-3.1v-0.6C71.5,156.2,71.2,155.1,70.7,154.2L70.7,154.2z"/>
			<path class="bg-primary-dark" d="M83.2,163.6l-5.3-8.5v8.5h-2.2v-12.1h2.2l5.3,8.5v-8.5h2.1v12.1H83.2z"/>
			<path class="bg-primary-dark" d="M87.4,159.3v-1.7h4.4v1.7H87.4z"/>
			<path class="bg-primary-dark" d="M103.5,151.5v12.1h-2.2v-5.4h-5.3v5.4h-2.1v-12.1h2.2v5h5.3v-5H103.5z"/>
			<path class="bg-primary-dark" d="M114.7,161.8c-0.4,0.6-0.9,1.1-1.6,1.4c-0.8,0.4-1.6,0.5-2.5,0.5c-0.9,0-1.8-0.2-2.6-0.7
				c-0.7-0.5-1.3-1.2-1.7-2c-0.4-0.9-0.6-2-0.6-3v-1c0-1,0.2-2.1,0.6-3c0.4-0.8,1-1.5,1.7-2c0.8-0.5,1.7-0.7,2.6-0.7
				c0.8,0,1.7,0.2,2.4,0.5c0.6,0.3,1.2,0.8,1.6,1.5c0.4,0.7,0.6,1.4,0.7,2.2h-2.1c0-0.7-0.3-1.3-0.7-1.8c-1.2-1-2.9-0.8-3.9,0.4
				c-0.5,0.9-0.8,2-0.7,3v1c-0.1,1,0.2,2,0.7,2.9c0.5,0.7,1.2,1.1,2.1,1c0.5,0,1-0.1,1.4-0.3c0.4-0.2,0.6-0.4,0.8-0.8
				c0.2-0.4,0.3-0.9,0.4-1.3h2.1C115.3,160.4,115.1,161.1,114.7,161.8z"/>
		</g>
		<g id="HC-label">
			<path class="bg-primary-dark" d="M61.3,95.5v12.1h-2.1v-5.4h-5.3v5.4h-2.1V95.5h2.2v5h5.3v-5H61.3z"/>
			<path class="bg-primary-dark" d="M72.5,105.8c-0.4,0.6-0.9,1.1-1.6,1.4c-0.8,0.4-1.6,0.5-2.5,0.5c-0.9,0-1.8-0.2-2.6-0.7
				c-0.8-0.5-1.3-1.2-1.7-2c-0.4-0.9-0.6-2-0.6-3v-1c0-1,0.2-2.1,0.6-3c0.4-0.8,1-1.5,1.7-2c0.8-0.5,1.7-0.7,2.6-0.7
				c0.8,0,1.7,0.2,2.4,0.5c0.7,0.3,1.2,0.8,1.6,1.5c0.4,0.7,0.6,1.4,0.7,2.2H71c0-0.7-0.3-1.3-0.7-1.8c-0.5-0.4-1.1-0.7-1.8-0.6
				c-0.8,0-1.6,0.3-2.1,1c-0.5,0.9-0.8,2-0.7,3v1c-0.1,1,0.2,2,0.7,2.9c0.5,0.7,1.3,1,2.1,1c0.5,0,1-0.1,1.4-0.3
				c0.4-0.2,0.6-0.4,0.8-0.8c0.2-0.4,0.3-0.9,0.4-1.3h2.1C73.1,104.4,72.9,105.1,72.5,105.8z"/>
			<path class="bg-primary-dark" d="M80.4,100.9c-0.7-0.6-1-1.4-1-2.2c0-0.6,0.2-1.2,0.5-1.7c0.4-0.5,0.9-0.9,1.5-1.2c0.7-0.3,1.5-0.4,2.2-0.4
				c0.8,0,1.6,0.2,2.3,0.5c0.6,0.3,1.1,0.8,1.5,1.3c0.3,0.5,0.5,1.2,0.5,1.8h-2.1c0-0.5-0.2-1.1-0.6-1.4c-1-0.7-2.3-0.7-3.3-0.1
				c-0.4,0.3-0.6,0.7-0.5,1.2c0,0.4,0.2,0.9,0.6,1.1c0.6,0.4,1.2,0.7,1.9,0.8c0.8,0.2,1.5,0.5,2.3,0.9c0.5,0.3,1,0.7,1.3,1.2
				c0.3,0.5,0.5,1.1,0.4,1.7c0,0.6-0.2,1.2-0.5,1.8c-0.4,0.5-0.9,0.9-1.5,1.1c-0.7,0.3-1.5,0.4-2.3,0.4c-0.8,0-1.6-0.1-2.3-0.4
				c-0.7-0.3-1.3-0.7-1.8-1.3c-0.5-0.6-0.7-1.3-0.7-2.1h2.2c0,0.6,0.2,1.2,0.7,1.6c0.6,0.4,1.2,0.6,1.9,0.5c0.6,0,1.1-0.1,1.6-0.4
				c0.4-0.3,0.6-0.7,0.6-1.2c0-0.3-0.1-0.6-0.2-0.8c-0.2-0.3-0.5-0.5-0.8-0.6c-0.5-0.3-1-0.5-1.6-0.6
				C82.3,102.1,81.3,101.6,80.4,100.9z"/>
			<path class="bg-primary-dark" d="M94,106v1.6c-0.4,0.1-0.9,0.2-1.3,0.2c-0.6,0-1.3-0.2-1.7-0.6c-0.5-0.5-0.7-1.2-0.6-1.9v-5.1h-1.4v-1.6h1.5
				v-2.2h2.1v2.2H94v1.5h-1.6v4.9c0,0.3,0.1,0.6,0.2,0.8c0.2,0.1,0.4,0.2,0.7,0.2C93.6,106,93.8,106,94,106z"/>
			<path class="bg-primary-dark" d="M100.1,98.5c0.1,0,0.2,0,0.3,0.1v2c-0.3,0-0.5-0.1-0.8-0.1c-0.8-0.1-1.5,0.3-1.9,1v6.1h-2.1v-9h2l0.1,1
				c0.2-0.4,0.5-0.7,0.8-0.9c0.4-0.2,0.8-0.3,1.2-0.3L100.1,98.5z"/>
			<path class="bg-primary-dark" d="M109.2,107.4v0.1h-2.1c-0.1-0.3-0.2-0.6-0.2-0.8c-0.3,0.3-0.6,0.5-1,0.7c-0.4,0.2-0.9,0.3-1.3,0.3
				c-0.5,0-1.1-0.1-1.6-0.3c-0.5-0.2-0.8-0.6-1.1-1c-0.3-0.4-0.4-0.9-0.4-1.4c0-0.9,0.4-1.7,1.1-2.2c0.9-0.6,1.9-0.8,3-0.8h1.2v-0.6
				c0.1-0.8-0.5-1.4-1.3-1.5c-0.1,0-0.2,0-0.3,0c-0.3,0-0.5,0-0.8,0.2c-0.2,0.1-0.4,0.2-0.5,0.4c-0.1,0.2-0.2,0.4-0.2,0.6h-2.1
				c0-0.5,0.2-1,0.5-1.3c0.3-0.4,0.8-0.8,1.3-1c0.6-0.3,1.3-0.4,1.9-0.4c0.6,0,1.2,0.1,1.8,0.3c0.5,0.2,0.9,0.6,1.2,1
				c0.3,0.5,0.5,1.1,0.4,1.7v3.9C108.8,106.2,108.9,106.8,109.2,107.4z M106,105.8c0.3-0.2,0.6-0.4,0.7-0.7v-1.7h-1.1
				c-0.6,0-1.1,0.1-1.6,0.4c-0.4,0.2-0.6,0.7-0.6,1.1c0,0.3,0.1,0.7,0.4,0.9c0.3,0.2,0.6,0.4,1,0.3C105.2,106.1,105.6,106,106,105.8z
				"/>
			<path class="bg-primary-dark" d="M115.3,106v1.6c-0.4,0.1-0.9,0.2-1.3,0.2c-0.6,0-1.3-0.2-1.7-0.6c-0.5-0.5-0.7-1.2-0.6-1.9v-5.1h-1.5v-1.6
				h1.5v-2.2h2.1v2.2h1.6v1.5h-1.6v4.9c0,0.3,0.1,0.6,0.2,0.8c0.2,0.1,0.4,0.2,0.7,0.2C114.8,106.1,115,106,115.3,106z"/>
			<path class="bg-primary-dark" d="M124.5,103.7h-5.9c0,0.4,0.1,0.9,0.4,1.3c0.2,0.3,0.5,0.6,0.8,0.8c0.4,0.2,0.8,0.3,1.2,0.3
				c0.9,0,1.7-0.4,2.2-1.1l1.1,1.1c-0.4,0.5-0.8,0.9-1.4,1.2c-0.7,0.3-1.4,0.5-2.1,0.5c-0.8,0-1.6-0.2-2.3-0.6
				c-0.6-0.4-1.2-0.9-1.5-1.6c-0.3-0.7-0.5-1.4-0.5-2.2v-0.3c0-0.8,0.2-1.7,0.5-2.4c0.7-1.4,2-2.2,3.6-2.2c0.7,0,1.5,0.2,2.1,0.6
				c0.6,0.4,1,0.9,1.3,1.6c0.3,0.7,0.4,1.5,0.4,2.3L124.5,103.7z M122.5,102.1c0-0.5-0.2-1-0.5-1.4c-0.3-0.4-0.8-0.6-1.3-0.6
				c-0.5,0-1,0.2-1.3,0.6c-0.4,0.5-0.6,1-0.6,1.6h3.8V102.1z"/>
			<path class="bg-primary-dark" d="M133.8,98.6v8.7c0,0.7-0.2,1.4-0.5,2c-0.3,0.6-0.8,1-1.4,1.3c-0.7,0.3-1.4,0.5-2.1,0.4
				c-0.4,0-0.8-0.1-1.2-0.2c-0.4-0.1-0.8-0.3-1.2-0.5c-0.4-0.2-0.7-0.5-1-0.8l1-1.2c0.3,0.3,0.7,0.6,1.1,0.8c0.4,0.2,0.8,0.3,1.2,0.3
				c0.6,0,1.1-0.2,1.6-0.6c0.4-0.4,0.6-1,0.6-1.6v-0.6c-0.6,0.7-1.4,1-2.3,1c-0.7,0-1.3-0.2-1.9-0.6c-0.6-0.4-1-1-1.3-1.6
				c-0.3-0.7-0.5-1.5-0.4-2.3V103c0-0.8,0.1-1.6,0.4-2.4c0.3-0.6,0.7-1.2,1.2-1.6c0.6-0.4,1.2-0.6,1.9-0.6c0.9-0.1,1.8,0.3,2.4,1
				l0.1-0.9L133.8,98.6z M131.8,105v-3.9c-0.3-0.7-1-1-1.8-1c-0.4,0-0.8,0.1-1.1,0.4c-0.3,0.3-0.6,0.6-0.7,1c-0.2,0.5-0.2,1-0.2,1.5
				v0.2c0,0.7,0.1,1.4,0.5,2.1c0.3,0.5,0.9,0.8,1.5,0.8C130.7,106,131.4,105.7,131.8,105z"/>
			<path class="bg-primary-dark" d="M138,95.5c0.2,0.2,0.3,0.5,0.3,0.8c0,0.3-0.1,0.6-0.3,0.8c-0.2,0.2-0.5,0.3-0.9,0.3c-0.3,0-0.6-0.1-0.9-0.3
				c-0.4-0.4-0.4-1.1,0-1.6c0.2-0.2,0.5-0.3,0.9-0.3C137.5,95.2,137.8,95.3,138,95.5z M136.1,107.6v-9h2.1v9H136.1z"/>
			<path class="bg-primary-dark" d="M148.1,103.7h-5.8c0,0.4,0.2,0.8,0.4,1.2c0.2,0.3,0.5,0.6,0.8,0.8c0.4,0.2,0.8,0.3,1.2,0.3
				c0.9,0,1.7-0.4,2.2-1.1l1.1,1.1c-0.4,0.5-0.8,0.9-1.4,1.2c-0.7,0.3-1.4,0.5-2.1,0.5c-0.8,0-1.6-0.2-2.3-0.6
				c-0.6-0.4-1.2-0.9-1.5-1.6c-0.4-0.7-0.5-1.4-0.5-2.2v-0.3c0-0.8,0.2-1.7,0.5-2.4c0.7-1.4,2-2.2,3.6-2.2c0.7,0,1.5,0.2,2.1,0.6
				c0.6,0.4,1,0.9,1.3,1.6c0.3,0.7,0.4,1.5,0.4,2.3V103.7z M146.1,102.1c0-0.5-0.2-1-0.5-1.4c-0.3-0.4-0.8-0.6-1.3-0.6
				c-0.5,0-1,0.2-1.3,0.6c-0.4,0.5-0.6,1-0.6,1.6h3.8L146.1,102.1z"/>
			<path class="bg-primary-dark" d="M150.6,102.9c-0.6-0.4-0.9-1-0.8-1.7c0-0.5,0.1-1,0.4-1.4c0.3-0.4,0.7-0.8,1.2-1c0.6-0.3,1.2-0.4,1.8-0.4
				c0.7,0,1.3,0.1,1.9,0.4c0.5,0.2,0.9,0.6,1.3,1c0.3,0.4,0.4,0.9,0.4,1.5h-2.1c0-0.2-0.1-0.5-0.2-0.7c-0.1-0.2-0.3-0.4-0.5-0.5
				c-0.3-0.1-0.5-0.2-0.8-0.2c-0.4,0-0.8,0.1-1.1,0.3c-0.2,0.2-0.4,0.5-0.4,0.8c0,0.2,0,0.4,0.2,0.5c0.2,0.2,0.3,0.3,0.6,0.4
				c0.4,0.1,0.7,0.2,1.1,0.3c0.6,0.1,1.2,0.3,1.8,0.6c0.4,0.2,0.8,0.5,1.1,0.9c0.3,0.4,0.4,0.9,0.4,1.3c0,0.5-0.2,1-0.4,1.4
				c-0.3,0.4-0.8,0.8-1.3,1c-0.6,0.2-1.3,0.4-1.9,0.3c-0.7,0-1.4-0.1-2-0.4c-0.5-0.2-1-0.6-1.3-1.1c-0.3-0.4-0.4-0.9-0.4-1.4h2
				c0,0.4,0.2,0.9,0.6,1.1c0.4,0.2,0.8,0.4,1.3,0.4c0.4,0,0.8-0.1,1.2-0.3c0.3-0.2,0.4-0.5,0.4-0.8c0-0.2,0-0.4-0.1-0.5
				c-0.1-0.2-0.3-0.3-0.6-0.4c-0.4-0.2-0.8-0.3-1.2-0.3C152.1,103.7,151.3,103.4,150.6,102.9z"/>
		</g>
		<g id="label">
			<path class="bg-white" d="M38.8,55.1V41.6h1.8v13.5H38.8z"/>
			<path class="bg-white" d="M51.4,48.5v6.6h-1.7v-6.6c0.1-0.6-0.1-1.2-0.5-1.7c-0.4-0.4-1-0.6-1.5-0.5c-0.5,0-1,0.1-1.4,0.4
				c-0.4,0.3-0.8,0.7-1,1.2v7.2h-1.7v-10h1.6v1.2c0.4-0.4,0.8-0.8,1.3-1c0.5-0.3,1.1-0.4,1.7-0.4C50.3,44.9,51.4,46.1,51.4,48.5z"/>
			<path class="bg-white" d="M58.3,55.1c-0.4,0.1-0.9,0.2-1.3,0.2c-0.6,0-1.2-0.2-1.7-0.6c-0.5-0.6-0.7-1.3-0.6-2v-6.3h-1.8v-1.3h1.8v-2.4
				h1.7v2.4h1.9v1.3h-1.9v6.2c-0.1,0.5,0.2,1.1,0.8,1.2c0.1,0,0.2,0,0.3,0h0.4l0.4-0.1L58.3,55.1z"/>
			<path class="bg-white" d="M68.3,50.6h-6.8c0,0.6,0.1,1.2,0.4,1.7c0.2,0.5,0.6,0.9,1,1.2c0.5,0.3,1,0.5,1.6,0.5c0.5,0,1.1-0.1,1.5-0.4
				c0.4-0.3,0.8-0.6,1.1-1l1,0.8c-0.4,0.6-0.9,1.1-1.5,1.4c-0.7,0.4-1.5,0.6-2.3,0.5c-0.8,0-1.6-0.2-2.4-0.6c-0.7-0.4-1.3-1-1.6-1.7
				c-0.4-0.8-0.6-1.6-0.6-2.5V50c0-1,0.2-1.9,0.6-2.8c0.4-0.7,0.9-1.3,1.6-1.8c0.6-0.4,1.4-0.6,2.2-0.6c0.8,0,1.6,0.2,2.3,0.6
				c0.6,0.4,1.1,1,1.4,1.7c0.3,0.8,0.5,1.7,0.4,2.6L68.3,50.6z M66.6,49c0-0.7-0.2-1.4-0.6-2c-0.4-0.5-1.1-0.8-1.8-0.8
				c-0.7,0-1.3,0.3-1.7,0.8c-0.5,0.6-0.8,1.4-0.9,2.1L66.6,49L66.6,49z"/>
			<path class="bg-white" d="M74.8,44.9c0.1,0,0.2,0,0.3,0.1v1.6c-0.3,0-0.6-0.1-0.8-0.1c-0.5,0-1,0.1-1.4,0.4c-0.4,0.3-0.7,0.7-0.9,1.1
				v7.1h-1.7v-10H72v1.1c0.2-0.4,0.6-0.8,1-1c0.4-0.2,0.9-0.4,1.4-0.3C74.5,44.9,74.7,44.9,74.8,44.9z"/>
			<path class="bg-white" d="M84.7,48.5v6.6h-1.7v-6.6c0.1-0.6-0.1-1.2-0.5-1.7c-0.4-0.4-1-0.6-1.5-0.5c-0.5,0-1,0.1-1.4,0.4
				c-0.4,0.3-0.8,0.7-1,1.2v7.2h-1.7v-10h1.6v1.2c0.4-0.4,0.8-0.8,1.3-1c0.5-0.3,1.1-0.4,1.7-0.4C83.6,44.9,84.7,46.1,84.7,48.5z"/>
			<path class="bg-white" d="M95,54c0,0.3,0.1,0.7,0.3,1v0.2h-1.8c-0.1-0.3-0.2-0.7-0.2-1c-0.3,0.4-0.8,0.7-1.2,0.9
				c-0.5,0.2-1,0.3-1.6,0.3c-0.6,0-1.2-0.1-1.8-0.4c-0.5-0.2-0.9-0.6-1.2-1.1c-0.3-0.4-0.4-1-0.4-1.5c0-0.6,0.2-1.3,0.6-1.8
				c0.4-0.5,0.9-0.9,1.6-1.1c0.8-0.3,1.6-0.4,2.4-0.4h1.7v-0.8c0-0.5-0.2-1.1-0.5-1.5c-0.4-0.4-1-0.6-1.6-0.5c-0.4,0-0.8,0.1-1.1,0.2
				c-0.3,0.1-0.6,0.3-0.8,0.6C89,47.3,89,47.6,89,47.9h-1.8c0-0.5,0.2-1,0.5-1.4c0.4-0.5,0.9-0.9,1.4-1.1c1.3-0.5,2.7-0.6,4-0.1
				c0.5,0.2,1,0.6,1.3,1.1c0.3,0.6,0.5,1.2,0.5,1.8V53C94.9,53.3,94.9,53.7,95,54z M91.7,53.6c0.3-0.1,0.6-0.3,0.9-0.6
				c0.2-0.2,0.4-0.5,0.6-0.7v-2h-1.4c-0.8,0-1.6,0.1-2.3,0.5c-0.5,0.3-0.8,0.8-0.8,1.4c0,0.3,0.1,0.6,0.2,0.9
				c0.2,0.3,0.4,0.5,0.7,0.6c0.3,0.2,0.7,0.2,1,0.2C91,53.8,91.4,53.7,91.7,53.6z"/>
			<path class="bg-white" d="M101.8,55.1c-0.4,0.1-0.9,0.2-1.3,0.2c-0.6,0-1.2-0.2-1.7-0.6c-0.5-0.6-0.7-1.3-0.6-2v-6.3h-1.8v-1.3h1.8
				v-2.4h1.7v2.4h1.9v1.3h-1.9v6.2c-0.1,0.5,0.2,1.1,0.8,1.2c0.1,0,0.2,0,0.3,0h0.4c0.1,0,0.2,0,0.4-0.1L101.8,55.1z"/>
			<path class="bg-white" d="M105.6,41.7c0.2,0.2,0.3,0.4,0.3,0.7c0,0.3-0.1,0.5-0.3,0.7c-0.2,0.2-0.5,0.3-0.8,0.3c-0.3,0-0.5-0.1-0.8-0.3
				c-0.2-0.2-0.3-0.4-0.3-0.7c0-0.3,0.1-0.5,0.3-0.7c0.2-0.2,0.5-0.3,0.8-0.3C105.1,41.4,105.4,41.5,105.6,41.7z M104,55.1v-10h1.7
				v10H104z"/>
			<path class="bg-white" d="M108.5,47.4c0.7-1.6,2.3-2.5,4-2.5c0.9,0,1.7,0.2,2.4,0.7c0.7,0.4,1.2,1.1,1.6,1.8c0.4,0.8,0.6,1.7,0.6,2.6
				v0.2c0,0.9-0.2,1.8-0.6,2.6c-0.4,0.7-0.9,1.4-1.6,1.8c-0.7,0.5-1.6,0.7-2.4,0.7c-1.7,0-3.3-0.9-4-2.5c-0.4-0.8-0.6-1.7-0.6-2.6V50
				C108,49.1,108.2,48.2,108.5,47.4z M110,52.1c0.2,0.5,0.5,1,1,1.3c0.9,0.7,2.2,0.7,3.1,0c0.4-0.3,0.8-0.8,1-1.3
				c0.2-0.6,0.3-1.2,0.3-1.9V50c0-0.6-0.1-1.3-0.3-1.9c-0.2-0.5-0.5-1-1-1.3c-0.4-0.3-1-0.5-1.6-0.5c-0.6,0-1.1,0.2-1.5,0.5
				c-0.5,0.3-0.8,0.8-1,1.3c-0.2,0.6-0.3,1.2-0.3,1.9v0.2C109.7,50.8,109.8,51.5,110,52.1L110,52.1z"/>
			<path class="bg-white" d="M127.2,48.5v6.6h-1.7v-6.6c0.1-0.6-0.1-1.2-0.5-1.7c-0.4-0.4-1-0.6-1.5-0.5c-0.5,0-1,0.1-1.4,0.4
				c-0.4,0.3-0.8,0.7-1,1.2v7.2h-1.7v-10h1.6v1.2c0.4-0.4,0.8-0.8,1.3-1c0.5-0.3,1.1-0.4,1.7-0.4C126.1,44.9,127.2,46.1,127.2,48.5z"
				/>
			<path class="bg-white" d="M137.5,54c0,0.3,0.1,0.7,0.3,1v0.2H136c-0.1-0.3-0.2-0.7-0.2-1c-0.4,0.4-0.8,0.7-1.2,0.9
				c-0.5,0.2-1,0.3-1.6,0.3c-0.6,0-1.2-0.1-1.8-0.4c-0.5-0.2-0.9-0.6-1.2-1.1c-0.3-0.4-0.4-1-0.4-1.5c0-0.6,0.2-1.3,0.6-1.8
				c0.4-0.5,0.9-0.9,1.6-1.1c0.8-0.3,1.6-0.4,2.4-0.4h1.7v-0.8c0-0.5-0.2-1.1-0.6-1.5c-0.4-0.4-1-0.6-1.6-0.5c-0.4,0-0.8,0.1-1.1,0.2
				c-0.3,0.1-0.6,0.3-0.8,0.6c-0.2,0.2-0.3,0.5-0.3,0.8h-1.7c0-0.5,0.2-1,0.5-1.4c0.4-0.5,0.9-0.9,1.4-1.1c1.3-0.5,2.7-0.6,4-0.1
				c0.6,0.2,1.1,0.6,1.4,1.2c0.3,0.6,0.5,1.2,0.5,1.8v4.7C137.5,53.3,137.5,53.6,137.5,54z M134.2,53.6c0.3-0.1,0.6-0.3,0.9-0.5
				c0.2-0.2,0.4-0.5,0.6-0.7v-2.1h-1.4c-0.8,0-1.6,0.1-2.3,0.5c-0.5,0.3-0.8,0.8-0.8,1.4c0,0.3,0.1,0.6,0.2,0.9
				c0.2,0.3,0.4,0.5,0.6,0.6c0.3,0.2,0.7,0.2,1,0.2C133.5,53.8,133.9,53.7,134.2,53.6z"/>
			<path class="bg-white" d="M140.3,55.1V40.8h1.7v14.2H140.3z"/>
			<path class="bg-white" d="M157.5,40.8v14.2h-1.6l-0.1-1.1c-0.7,0.9-1.7,1.3-2.8,1.3c-0.7,0-1.5-0.2-2.1-0.7c-0.6-0.5-1.1-1.1-1.4-1.8
				c-0.3-0.8-0.5-1.7-0.5-2.6V50c0-0.9,0.1-1.8,0.5-2.7c0.3-0.7,0.8-1.3,1.4-1.8c0.6-0.4,1.3-0.7,2.1-0.6c1.1-0.1,2.1,0.4,2.8,1.2
				v-5.2H157.5z M155.8,52.4v-4.6c-0.2-0.4-0.5-0.8-0.9-1c-0.4-0.3-0.9-0.4-1.4-0.4c-0.5,0-1.1,0.2-1.5,0.5c-0.4,0.3-0.7,0.8-0.9,1.3
				c-0.2,0.6-0.3,1.2-0.3,1.9v0.2c0,0.6,0.1,1.3,0.3,1.9c0.2,0.5,0.5,1,0.9,1.3c0.4,0.3,1,0.5,1.5,0.5
				C154.4,53.9,155.4,53.3,155.8,52.4L155.8,52.4z"/>
			<path class="bg-white" d="M168.3,50.6h-6.8c0,0.6,0.1,1.2,0.4,1.7c0.2,0.5,0.6,0.9,1,1.2c0.5,0.3,1,0.5,1.6,0.5c0.5,0,1-0.1,1.5-0.4
				c0.4-0.2,0.8-0.6,1.1-1l1,0.8c-0.4,0.6-0.9,1-1.5,1.4c-0.7,0.4-1.5,0.6-2.3,0.5c-0.8,0-1.7-0.2-2.4-0.6c-0.7-0.4-1.3-1-1.6-1.7
				c-0.4-0.8-0.6-1.6-0.6-2.5V50c0-1,0.2-1.9,0.6-2.8c0.4-0.7,1-1.3,1.7-1.8c0.6-0.4,1.4-0.6,2.2-0.6c0.8,0,1.6,0.2,2.3,0.6
				c0.6,0.4,1.1,1,1.4,1.7c0.3,0.8,0.5,1.7,0.4,2.6L168.3,50.6z M166.5,49c0-0.7-0.2-1.4-0.6-2c-0.4-0.6-1.1-0.8-1.8-0.8
				c-0.7,0-1.3,0.3-1.7,0.8c-0.5,0.6-0.8,1.4-0.9,2.1L166.5,49L166.5,49z"/>
			<path class="bg-white" d="M177.7,45.1l-3.6,10h-1.3l-3.6-10h1.8l2.5,7.7l2.5-7.7H177.7z"/>
			<path class="bg-white" d="M187.4,50.6h-6.8c0,0.6,0.1,1.2,0.4,1.7c0.2,0.5,0.6,0.9,1,1.2c0.5,0.3,1,0.5,1.6,0.5c0.5,0,1-0.1,1.5-0.4
				c0.4-0.3,0.8-0.6,1.1-1l1.1,0.8c-0.8,1.3-2.3,2-3.8,1.9c-0.8,0-1.7-0.2-2.4-0.6c-0.7-0.4-1.3-1-1.6-1.7c-0.4-0.8-0.6-1.6-0.6-2.5
				V50c0-1,0.2-1.9,0.6-2.8c0.4-0.7,0.9-1.4,1.6-1.8c0.6-0.4,1.4-0.6,2.2-0.6c0.8,0,1.6,0.2,2.3,0.6c0.6,0.4,1.1,1,1.4,1.8
				c0.3,0.8,0.5,1.7,0.4,2.6L187.4,50.6z M185.7,49c0-0.7-0.2-1.4-0.6-2c-0.4-0.6-1.1-0.8-1.8-0.8c-0.7,0-1.3,0.3-1.7,0.8
				c-0.5,0.6-0.8,1.4-0.9,2.1L185.7,49L185.7,49z"/>
			<path class="bg-white" d="M189.6,55.1V40.8h1.7v14.2H189.6z"/>
			<path class="bg-white" d="M194.2,47.4c0.3-0.7,0.9-1.4,1.6-1.8c2.1-1.3,4.8-0.7,6.2,1.3c0.1,0.2,0.2,0.3,0.3,0.5
				c0.4,0.8,0.6,1.7,0.6,2.6v0.2c0,0.9-0.2,1.8-0.6,2.6c-1.1,2.2-3.7,3.1-5.9,2c-0.9-0.4-1.6-1.2-2.1-2c-0.4-0.8-0.6-1.7-0.6-2.6V50
				C193.6,49.1,193.8,48.2,194.2,47.4z M195.7,52.1c0.2,0.5,0.5,1,1,1.3c0.4,0.3,1,0.5,1.6,0.5c0.6,0,1.1-0.2,1.6-0.5
				c0.5-0.3,0.8-0.8,1-1.3c0.2-0.6,0.3-1.2,0.3-1.9V50c0-0.6-0.1-1.3-0.3-1.9c-0.2-0.5-0.5-1-1-1.3c-0.4-0.3-1-0.5-1.6-0.5
				c-0.6,0-1.1,0.2-1.5,0.5c-0.5,0.3-0.8,0.8-1,1.3c-0.2,0.6-0.3,1.2-0.3,1.9v0.2C195.3,50.8,195.4,51.5,195.7,52.1z"/>
			<path class="bg-white" d="M211.6,45.5c0.6,0.5,1.1,1.1,1.3,1.8c0.3,0.9,0.5,1.8,0.4,2.7v0.2c0,0.9-0.1,1.8-0.5,2.6
				c-0.3,0.7-0.7,1.3-1.3,1.8c-0.6,0.4-1.3,0.7-2.1,0.7c-1.1,0.1-2.1-0.4-2.9-1.2V59h-1.7V45.1h1.6l0.1,1.1
				C207.9,44.8,210,44.5,211.6,45.5L211.6,45.5z M211.6,50c0-0.6-0.1-1.3-0.3-1.9c-0.2-0.5-0.5-1-0.9-1.3c-0.4-0.3-1-0.5-1.5-0.5
				c-0.5,0-1,0.1-1.4,0.4c-0.4,0.2-0.7,0.6-0.9,1v4.8c0.4,0.9,1.4,1.4,2.4,1.4c0.5,0,1.1-0.2,1.5-0.5c0.4-0.4,0.7-0.8,0.9-1.3
				c0.2-0.6,0.3-1.2,0.3-1.9L211.6,50z"/>
			<path class="bg-white" d="M223.6,50.6h-6.8c0,0.6,0.1,1.2,0.4,1.7c0.2,0.5,0.6,0.9,1,1.2c0.5,0.3,1,0.5,1.6,0.5c0.5,0,1-0.1,1.5-0.4
				c0.4-0.3,0.8-0.6,1.1-1l1,0.8c-0.4,0.6-0.9,1-1.4,1.4c-0.7,0.4-1.5,0.6-2.3,0.5c-0.8,0-1.7-0.2-2.4-0.6c-0.7-0.4-1.3-1-1.6-1.7
				c-0.4-0.8-0.6-1.6-0.6-2.5V50c0-1,0.2-1.9,0.6-2.8c0.4-0.7,0.9-1.4,1.6-1.8c0.6-0.4,1.4-0.6,2.2-0.6c0.8,0,1.6,0.2,2.3,0.6
				c0.6,0.4,1.1,1,1.4,1.7c0.3,0.8,0.5,1.7,0.4,2.6L223.6,50.6z M221.9,49c0-0.7-0.2-1.4-0.6-2c-0.4-0.5-1.1-0.8-1.8-0.8
				c-0.7,0-1.3,0.3-1.7,0.8c-0.5,0.6-0.8,1.4-0.9,2.1L221.9,49L221.9,49z"/>
			<path class="bg-white" d="M233.7,40.8v14.2h-1.6L232,54c-0.7,0.8-1.8,1.3-2.9,1.3c-0.7,0-1.5-0.2-2.1-0.7c-0.6-0.5-1.1-1.1-1.4-1.8
				c-0.3-0.8-0.5-1.7-0.5-2.6V50c0-0.9,0.1-1.8,0.5-2.7c0.3-0.7,0.8-1.3,1.4-1.8c0.6-0.4,1.3-0.7,2.1-0.6c1.1-0.1,2.1,0.4,2.8,1.2
				v-5.2H233.7z M232,52.4v-4.7c-0.2-0.4-0.5-0.7-0.9-1c-0.4-0.3-0.9-0.4-1.4-0.4c-0.5,0-1.1,0.2-1.5,0.5c-0.4,0.3-0.7,0.8-0.9,1.3
				c-0.2,0.6-0.3,1.2-0.3,1.9v0.2c0,0.6,0.1,1.3,0.3,1.9c0.2,0.5,0.5,1,0.9,1.3c0.4,0.3,1,0.5,1.5,0.5
				C230.6,53.9,231.6,53.3,232,52.4z"/>
			<path class="bg-white" d="M254.3,45.8c0.6,0.8,0.9,1.8,0.9,2.7v6.6h-1.7v-6.6c0.1-0.6-0.1-1.2-0.6-1.7c-0.5-0.4-1-0.5-1.6-0.5
				c-0.4,0-0.8,0.1-1.2,0.3c-0.3,0.2-0.6,0.4-0.8,0.8c-0.2,0.3-0.3,0.7-0.4,1.1v6.6h-1.7v-6.6c0.2-1-0.6-2-1.6-2.2
				c-0.2,0-0.4,0-0.5,0c-0.5,0-1,0.1-1.4,0.4c-0.4,0.2-0.7,0.6-0.9,1v7.4h-1.7v-10h1.6l0.1,1.1c0.3-0.4,0.8-0.7,1.3-0.9
				c0.5-0.2,1.1-0.3,1.7-0.3c0.6,0,1.2,0.1,1.7,0.4c0.5,0.3,0.9,0.7,1.1,1.2c0.3-0.5,0.8-0.9,1.3-1.2c0.6-0.3,1.2-0.4,1.9-0.4
				C252.7,44.8,253.6,45.1,254.3,45.8z"/>
			<path class="bg-white" d="M265.5,54c0,0.3,0.1,0.7,0.3,1v0.2h-1.8c-0.1-0.3-0.2-0.7-0.2-1c-0.4,0.4-0.8,0.7-1.2,0.9
				c-0.5,0.2-1,0.3-1.6,0.3c-0.6,0-1.2-0.1-1.8-0.4c-0.5-0.2-0.9-0.6-1.2-1.1c-0.3-0.4-0.4-1-0.4-1.5c0-0.6,0.2-1.3,0.5-1.8
				c0.4-0.5,0.9-0.9,1.6-1.1c0.8-0.3,1.6-0.4,2.4-0.4h1.7v-0.8c0-0.5-0.2-1.1-0.5-1.5c-0.4-0.4-1-0.6-1.6-0.5c-0.4,0-0.8,0.1-1.1,0.2
				c-0.3,0.1-0.6,0.3-0.8,0.6c-0.2,0.2-0.3,0.5-0.3,0.8h-1.7c0-0.5,0.2-1,0.5-1.4c0.4-0.5,0.9-0.9,1.4-1.1c1.3-0.5,2.7-0.6,4-0.1
				c0.5,0.2,1,0.6,1.3,1.1c0.3,0.6,0.5,1.2,0.5,1.8v4.7C265.4,53.3,265.4,53.6,265.5,54z M262.2,53.6c0.3-0.1,0.6-0.3,0.9-0.5
				c0.2-0.2,0.4-0.5,0.6-0.7v-2.1h-1.4c-0.8,0-1.6,0.1-2.3,0.5c-0.5,0.3-0.8,0.8-0.8,1.4c0,0.3,0.1,0.6,0.2,0.9
				c0.2,0.3,0.4,0.5,0.6,0.6c0.3,0.2,0.7,0.2,1,0.2C261.5,53.8,261.8,53.7,262.2,53.6z"/>
			<path class="bg-white" d="M272.6,44.9c0.1,0,0.3,0,0.4,0.1v1.6c-0.3,0-0.6-0.1-0.9-0.1c-0.5,0-1,0.1-1.4,0.4c-0.4,0.3-0.7,0.6-0.9,1.1
				v7.1h-1.7v-10h1.7v1.1c0.2-0.4,0.6-0.8,1-1c0.4-0.2,0.9-0.4,1.4-0.3C272.3,44.9,272.5,44.9,272.6,44.9z"/>
			<path class="bg-white" d="M277.3,50.4l-1.1,1.1v3.5h-1.7V40.8h1.7v8.6l0.9-1.1l3.1-3.3h2.1l-3.9,4.2l4.4,5.8h-2L277.3,50.4z"/>
			<path class="bg-white" d="M292.2,50.6h-6.8c0,0.6,0.1,1.2,0.4,1.7c0.2,0.5,0.6,0.9,1,1.2c0.5,0.3,1,0.5,1.5,0.5c0.5,0,1-0.1,1.5-0.4
				c0.4-0.2,0.8-0.6,1.1-1l1,0.8c-0.8,1.3-2.3,2-3.8,1.9c-0.8,0-1.7-0.2-2.4-0.6c-0.7-0.4-1.3-1-1.6-1.7c-0.4-0.8-0.6-1.6-0.6-2.5V50
				c0-1,0.2-1.9,0.6-2.8c0.4-0.7,1-1.3,1.7-1.8c0.6-0.4,1.4-0.6,2.1-0.6c0.8,0,1.6,0.2,2.3,0.6c0.6,0.4,1.1,1,1.4,1.7
				c0.3,0.8,0.5,1.7,0.4,2.6L292.2,50.6z M290.5,49c0-0.7-0.2-1.4-0.6-2c-0.4-0.6-1.1-0.8-1.8-0.8c-0.7,0-1.3,0.3-1.7,0.8
				c-0.5,0.6-0.8,1.4-0.9,2.1L290.5,49L290.5,49z"/>
			<path class="bg-white" d="M298.5,55.1c-0.4,0.1-0.9,0.2-1.3,0.2c-0.6,0-1.2-0.2-1.7-0.6c-0.5-0.6-0.7-1.3-0.6-2v-6.3H293v-1.3h1.8v-2.4
				h1.7v2.4h1.9v1.3h-1.9v6.2c-0.1,0.4,0.1,0.7,0.3,1c0.2,0.2,0.5,0.3,0.8,0.2h0.4l0.4-0.1L298.5,55.1z"/>
			<path class="bg-white" d="M301.3,49.7c-0.6-0.4-0.9-1.1-0.9-1.8c0-0.5,0.2-1,0.5-1.5c0.3-0.5,0.8-0.8,1.3-1.1c0.6-0.3,1.3-0.4,2-0.4
				c0.7,0,1.4,0.1,2,0.4c0.5,0.2,1,0.6,1.3,1.1c0.3,0.5,0.5,1,0.5,1.6h-1.7c0-0.3-0.1-0.6-0.2-0.8c-0.2-0.3-0.4-0.5-0.7-0.7
				c-0.3-0.2-0.7-0.3-1.1-0.2c-0.4,0-0.8,0.1-1.1,0.2c-0.3,0.1-0.5,0.3-0.6,0.5c-0.1,0.2-0.2,0.5-0.2,0.7c0,0.2,0.1,0.5,0.2,0.7
				c0.2,0.2,0.4,0.4,0.7,0.5c0.5,0.2,0.9,0.3,1.4,0.4c0.7,0.1,1.4,0.4,2,0.7c0.5,0.2,0.9,0.5,1.2,1c0.3,0.4,0.4,0.9,0.4,1.4
				c0,0.6-0.2,1.1-0.5,1.5c-0.4,0.5-0.8,0.8-1.4,1c-0.6,0.3-1.3,0.4-2,0.4c-0.8,0-1.5-0.1-2.2-0.5c-0.6-0.3-1.1-0.7-1.4-1.2
				c-0.3-0.5-0.5-1-0.6-1.6h1.7c0,0.4,0.1,0.8,0.4,1.1c0.2,0.3,0.5,0.5,0.9,0.6c0.4,0.1,0.7,0.2,1.1,0.2c0.4,0,0.8-0.1,1.2-0.2
				c0.3-0.1,0.5-0.3,0.7-0.5c0.2-0.2,0.3-0.5,0.3-0.8c0-0.3-0.1-0.5-0.2-0.7c-0.2-0.2-0.4-0.4-0.7-0.6c-0.5-0.2-0.9-0.4-1.5-0.5
				C303,50.5,302.1,50.2,301.3,49.7z"/>
		</g>
	</g>
</svg>
