<?xml version="1.0" encoding="utf-8"?>
<!-- Generator: Adobe Illustrator 22.0.1, SVG Export Plug-In . SVG Version: 6.00 Build 0)  -->
<svg version="1.1" id="Layer_1" xmlns="http://www.w3.org/2000/svg" xmlns:xlink="http://www.w3.org/1999/xlink" x="0px" y="0px"
	 viewBox="0 0 441 216.5" style="enable-background:new 0 0 441 216.5;" xml:space="preserve">
<rect id="bg-primary" y="-1" class="bg-primary-dark" width="441" height="217"/>
<g id="bar-horiz">
	<rect x="37.5" y="78.6" class="bg-gray-light" width="167.9" height="40.2"/>
	<rect x="37.5" y="135.3" class="bg-white" width="183.1" height="40.2"/>
</g>
<g id="bar-horiz-labels_1_">
	<path class="bg-white" d="M47.2,50.9v1.4h-8.6V38.8h8.5v1.5h-6.7v4.3h5.8v1.5h-5.8v4.8L47.2,50.9z"/>
	<path class="bg-white" d="M62.4,43c0.6,0.8,0.9,1.8,0.8,2.8v6.6h-1.7v-6.6c0.1-0.6-0.1-1.2-0.5-1.7c-0.4-0.4-1-0.5-1.6-0.5
		c-0.4,0-0.8,0.1-1.2,0.3c-0.3,0.2-0.6,0.4-0.8,0.8c-0.2,0.3-0.3,0.7-0.4,1.1v6.7h-1.7v-6.6c0.2-1-0.6-2-1.6-2.2c-0.2,0-0.4,0-0.5,0
		c-0.5,0-1,0.1-1.4,0.4c-0.4,0.3-0.7,0.7-0.9,1.1v7.4h-1.7v-10h1.6l0.1,1.1c0.3-0.4,0.8-0.7,1.3-0.9c0.5-0.2,1.1-0.3,1.7-0.3
		c0.6,0,1.2,0.1,1.7,0.4c0.5,0.3,0.9,0.7,1.1,1.2c0.3-0.5,0.8-1,1.3-1.2c0.6-0.3,1.2-0.4,1.9-0.4C60.8,42,61.7,42.4,62.4,43z"/>
	<path class="bg-white" d="M73.9,47.8h-6.8c0,0.6,0.1,1.2,0.4,1.7c0.2,0.5,0.6,0.9,1,1.2c0.5,0.3,1,0.5,1.6,0.4c0.5,0,1-0.1,1.5-0.3
		c0.4-0.3,0.8-0.6,1.1-1l1.1,0.8c-0.4,0.6-0.9,1.1-1.5,1.4c-0.7,0.4-1.5,0.6-2.3,0.5c-0.9,0-1.7-0.2-2.4-0.6c-0.7-0.4-1.2-1-1.6-1.7
		c-0.4-0.8-0.6-1.6-0.6-2.5v-0.4c0-1,0.2-1.9,0.6-2.8c0.4-0.7,0.9-1.4,1.6-1.8c1.4-0.8,3.1-0.8,4.5,0c0.6,0.4,1.1,1,1.4,1.7
		c0.3,0.8,0.4,1.7,0.4,2.6V47.8z M72.2,46.2c0-0.7-0.2-1.4-0.6-2c-0.4-0.6-1.1-0.9-1.8-0.8c-0.7,0-1.3,0.3-1.7,0.8
		c-0.5,0.6-0.8,1.4-0.9,2.1L72.2,46.2L72.2,46.2z"/>
	<path class="bg-white" d="M80.4,42.1c0.1,0,0.2,0,0.3,0.1v1.6c-0.3-0.1-0.6-0.1-0.8-0.1c-0.5,0-1,0.1-1.4,0.4c-0.4,0.3-0.7,0.6-0.9,1.1
		v7.1h-1.7v-10h1.7v1.1c0.2-0.4,0.6-0.8,1-1c0.4-0.2,0.9-0.4,1.4-0.3C80.1,42.1,80.3,42.1,80.4,42.1z"/>
	<path class="bg-white" d="M90.4,42.3v9.8c0,0.8-0.2,1.6-0.5,2.2c-0.3,0.6-0.9,1.1-1.5,1.4c-0.7,0.3-1.5,0.5-2.2,0.5
		c-0.4,0-0.9-0.1-1.3-0.2c-0.5-0.1-0.9-0.3-1.4-0.6c-0.4-0.2-0.8-0.6-1.1-1l0.9-1c0.6,0.8,1.6,1.3,2.7,1.4c0.7,0,1.4-0.2,1.9-0.7
		c0.5-0.5,0.8-1.3,0.7-2v-0.9c-0.7,0.8-1.7,1.2-2.8,1.2c-0.7,0-1.5-0.2-2.1-0.7c-0.6-0.5-1.1-1.1-1.4-1.8c-0.3-0.8-0.5-1.7-0.5-2.6
		v-0.2c0-0.9,0.1-1.8,0.5-2.7c0.3-0.7,0.8-1.3,1.4-1.8c0.6-0.4,1.4-0.7,2.1-0.6c1.1-0.1,2.2,0.4,2.9,1.3l0.1-1.1L90.4,42.3z
		 M88.7,49.6V45c-0.2-0.4-0.5-0.8-0.9-1.1c-0.4-0.3-0.9-0.4-1.4-0.4c-0.5,0-1.1,0.2-1.5,0.5c-0.4,0.3-0.7,0.8-0.9,1.3
		c-0.2,0.6-0.3,1.2-0.3,1.9v0.2c0,0.6,0.1,1.3,0.3,1.9c0.2,0.5,0.5,1,0.9,1.3c0.4,0.3,0.9,0.5,1.5,0.5
		C87.3,51.1,88.3,50.5,88.7,49.6z"/>
	<path class="bg-white" d="M94.8,38.9c0.2,0.2,0.3,0.4,0.3,0.7c0,0.3-0.1,0.5-0.3,0.7c-0.2,0.2-0.5,0.3-0.8,0.3c-0.5,0-1-0.3-1-0.9
		c0,0,0-0.1,0-0.1c0-0.3,0.1-0.5,0.3-0.7c0.2-0.2,0.5-0.3,0.7-0.3C94.3,38.6,94.6,38.7,94.8,38.9z M93.1,52.3v-10h1.7v10H93.1z"/>
	<path class="bg-white" d="M105.5,45.7v6.6h-1.7v-6.6c0.1-0.6-0.1-1.2-0.5-1.7c-0.4-0.4-0.9-0.6-1.5-0.5c-0.5,0-1,0.1-1.4,0.4
		c-0.4,0.3-0.8,0.7-1,1.2v7.2h-1.7v-10h1.6l0.1,1.2c0.7-0.9,1.8-1.4,3-1.4C104.4,42.1,105.5,43.3,105.5,45.7z"/>
	<path class="bg-white" d="M116.2,42.3v9.8c0,0.8-0.2,1.6-0.5,2.2c-0.3,0.6-0.9,1.1-1.5,1.4c-0.7,0.3-1.5,0.5-2.2,0.5
		c-0.4,0-0.9-0.1-1.3-0.2c-0.5-0.1-0.9-0.3-1.4-0.6c-0.4-0.2-0.8-0.6-1.1-1l0.9-1c0.6,0.9,1.6,1.4,2.7,1.4c0.7,0,1.4-0.2,1.9-0.7
		c0.5-0.5,0.8-1.3,0.7-2v-0.9c-0.7,0.8-1.7,1.2-2.8,1.2c-0.7,0-1.5-0.2-2.1-0.7c-0.6-0.5-1.1-1.1-1.4-1.8c-0.3-0.8-0.5-1.7-0.5-2.6
		v-0.2c0-0.9,0.1-1.8,0.5-2.7c0.3-0.7,0.8-1.3,1.4-1.8c0.6-0.4,1.4-0.7,2.1-0.6c1.1-0.1,2.2,0.4,2.9,1.3l0.1-1.1L116.2,42.3z
		 M114.5,49.6V45c-0.2-0.4-0.5-0.8-0.9-1.1c-0.4-0.3-0.9-0.4-1.4-0.4c-0.5,0-1.1,0.2-1.5,0.5c-0.4,0.3-0.7,0.8-0.9,1.3
		c-0.2,0.6-0.3,1.2-0.3,1.9v0.2c0,0.6,0.1,1.3,0.3,1.9c0.2,0.5,0.5,1,0.9,1.3c0.4,0.3,1,0.5,1.5,0.5C113.1,51.1,114,50.5,114.5,49.6
		z"/>
	<path class="bg-white" d="M136.7,43c0.6,0.8,0.9,1.8,0.9,2.8v6.6h-1.7v-6.6c0.1-0.6-0.1-1.2-0.6-1.7c-0.4-0.4-1-0.5-1.6-0.5
		c-0.4,0-0.8,0.1-1.2,0.3c-0.3,0.2-0.6,0.4-0.8,0.8c-0.2,0.3-0.3,0.7-0.4,1.1v6.7h-1.7v-6.6c0.2-1-0.6-2-1.6-2.2c-0.2,0-0.4,0-0.5,0
		c-0.5,0-1,0.1-1.4,0.4c-0.4,0.3-0.7,0.6-0.9,1v7.4h-1.7v-10h1.6v1.1c0.3-0.4,0.8-0.7,1.3-0.9c0.5-0.2,1.1-0.3,1.7-0.3
		c0.6,0,1.2,0.1,1.7,0.4c0.5,0.3,0.9,0.7,1.2,1.2c0.3-0.5,0.8-0.9,1.3-1.2c0.6-0.3,1.2-0.4,1.9-0.4C135.1,42,136,42.4,136.7,43z"/>
	<path class="bg-white" d="M147.9,51.2c0,0.3,0.1,0.7,0.3,1v0.1h-1.8c-0.1-0.3-0.2-0.7-0.2-1c-0.4,0.4-0.8,0.7-1.2,0.9
		c-0.5,0.2-1,0.3-1.6,0.3c-0.6,0-1.2-0.1-1.8-0.4c-0.5-0.2-0.9-0.6-1.2-1.1c-0.3-0.4-0.4-1-0.4-1.5c0-0.6,0.2-1.3,0.6-1.8
		c0.4-0.6,1-1,1.6-1.2c0.8-0.3,1.6-0.4,2.4-0.4h1.7v-0.8c0-0.5-0.2-1.1-0.5-1.4c-0.4-0.4-1-0.6-1.6-0.5c-0.4,0-0.8,0.1-1.1,0.2
		c-0.3,0.1-0.6,0.3-0.8,0.6c-0.2,0.2-0.3,0.5-0.3,0.8h-1.7c0-0.5,0.2-1,0.5-1.4c0.4-0.5,0.8-0.9,1.4-1.1c1.3-0.5,2.7-0.6,4,0
		c0.5,0.2,1,0.6,1.3,1.1c0.3,0.6,0.5,1.2,0.5,1.8v4.7C147.8,50.5,147.8,50.9,147.9,51.2z M144.6,50.8c0.3-0.1,0.6-0.3,0.9-0.6
		c0.2-0.2,0.4-0.5,0.6-0.7v-2.1h-1.4c-0.8,0-1.6,0.1-2.3,0.5c-0.5,0.3-0.8,0.8-0.8,1.4c0,0.3,0.1,0.6,0.2,0.9
		c0.2,0.3,0.4,0.5,0.6,0.6c0.3,0.2,0.7,0.2,1,0.2C143.9,51,144.2,51,144.6,50.8z"/>
	<path class="bg-white" d="M155,42.1c0.1,0,0.2,0,0.4,0.1v1.6c-0.3-0.1-0.6-0.1-0.9-0.1c-0.5,0-1,0.1-1.4,0.4c-0.4,0.3-0.7,0.6-0.9,1.1
		v7.1h-1.7v-10h1.7v1.1c0.2-0.4,0.6-0.8,1-1c0.4-0.2,0.9-0.4,1.4-0.3C154.7,42.1,154.9,42.1,155,42.1z"/>
	<path class="bg-white" d="M159.7,47.7l-1.1,1.1v3.5h-1.7V38.1h1.7v8.6l0.9-1.1l3.1-3.3h2.1l-3.9,4.2l4.4,5.8h-2L159.7,47.7z"/>
	<path class="bg-white" d="M174.6,47.8h-6.8c0,0.6,0.1,1.2,0.4,1.7c0.2,0.5,0.6,0.9,1,1.2c0.5,0.3,1,0.5,1.6,0.4c0.5,0,1-0.1,1.5-0.3
		c0.4-0.3,0.8-0.6,1.1-1l1.1,0.8c-0.4,0.6-0.9,1.1-1.5,1.4c-0.7,0.4-1.5,0.6-2.3,0.5c-0.8,0-1.7-0.2-2.4-0.6c-0.7-0.4-1.3-1-1.6-1.7
		c-0.4-0.8-0.6-1.6-0.6-2.5v-0.4c0-0.9,0.2-1.9,0.6-2.7c0.4-0.7,0.9-1.4,1.6-1.8c1.4-0.8,3.1-0.8,4.5,0c0.6,0.4,1.1,1,1.4,1.7
		c0.3,0.8,0.5,1.7,0.4,2.5L174.6,47.8z M172.9,46.2c0-0.7-0.2-1.4-0.6-2c-0.4-0.6-1.1-0.9-1.8-0.8c-0.7,0-1.3,0.3-1.7,0.8
		c-0.5,0.6-0.8,1.4-0.9,2.1L172.9,46.2L172.9,46.2z"/>
	<path class="bg-white" d="M180.9,52.3c-0.4,0.1-0.9,0.2-1.3,0.2c-0.6,0-1.2-0.2-1.7-0.6c-0.5-0.6-0.7-1.3-0.6-2v-6.3h-1.8v-1.3h1.8v-2.4
		h1.7v2.4h1.9v1.3H179v6.2c-0.1,0.4,0.1,0.7,0.3,1c0.2,0.2,0.5,0.3,0.8,0.2h0.4c0.1,0,0.3,0,0.4-0.1L180.9,52.3z"/>
	<path class="bg-white" d="M183.7,46.9c-0.6-0.4-0.9-1.1-0.9-1.8c0-0.5,0.2-1,0.5-1.5c0.3-0.5,0.8-0.8,1.3-1.1c0.6-0.3,1.3-0.4,1.9-0.4
		c0.7,0,1.4,0.1,2,0.4c0.5,0.2,1,0.6,1.3,1.1c0.3,0.5,0.5,1,0.5,1.6h-1.7c0-0.3-0.1-0.6-0.2-0.8c-0.2-0.3-0.4-0.5-0.7-0.7
		c-0.3-0.2-0.7-0.3-1.1-0.3c-0.4,0-0.8,0.1-1.1,0.2c-0.3,0.1-0.5,0.3-0.6,0.5c-0.1,0.2-0.2,0.5-0.2,0.7c0,0.2,0.1,0.5,0.2,0.7
		c0.2,0.2,0.4,0.4,0.7,0.5c0.5,0.2,0.9,0.3,1.4,0.4c0.7,0.1,1.4,0.4,2,0.7c0.5,0.2,0.9,0.6,1.2,1c0.3,0.4,0.4,0.9,0.4,1.4
		c0,0.6-0.2,1.1-0.5,1.5c-0.4,0.5-0.8,0.8-1.4,1c-0.6,0.3-1.3,0.4-2,0.4c-0.8,0-1.5-0.1-2.2-0.5c-0.6-0.3-1.1-0.7-1.4-1.2
		c-0.3-0.5-0.5-1-0.5-1.6h1.7c0,0.4,0.1,0.8,0.4,1.1c0.2,0.3,0.5,0.5,0.9,0.6c0.4,0.1,0.7,0.2,1.1,0.2c0.4,0,0.8-0.1,1.2-0.2
		c0.3-0.1,0.5-0.3,0.7-0.5c0.2-0.2,0.2-0.5,0.2-0.8c0-0.3-0.1-0.5-0.2-0.7c-0.2-0.3-0.4-0.4-0.7-0.6c-0.5-0.2-0.9-0.4-1.4-0.5
		C185.4,47.7,184.5,47.4,183.7,46.9z"/>
	<path class="bg-primary-dark" d="M59.1,161.1l-5.3-8.5v8.5h-2.1v-12.1h2.2l5.3,8.5v-8.5h2.1v12.1H59.1z"/>
	<path class="bg-primary-dark" d="M72.9,158.6c-0.4,0.8-1,1.5-1.8,2c-1.6,0.9-3.6,0.9-5.3,0c-0.8-0.5-1.4-1.2-1.8-2c-0.4-1-0.7-2.1-0.6-3.1v-0.6
		c0-1.1,0.2-2.2,0.6-3.1c1.2-2.5,4.2-3.5,6.7-2.2c0.1,0,0.2,0.1,0.3,0.2c0.8,0.5,1.4,1.2,1.8,2c0.4,1,0.7,2.1,0.6,3.1v0.6
		C73.6,156.5,73.4,157.5,72.9,158.6z M70.7,151.7c-0.5-0.7-1.3-1.1-2.1-1.1c-0.6,0-1.1,0.2-1.5,0.5c-0.5,0.4-0.8,0.8-1,1.4
		c-0.2,0.7-0.4,1.5-0.3,2.2v0.6c0,0.8,0.1,1.5,0.3,2.2c0.2,0.6,0.5,1,1,1.4c0.4,0.3,1,0.5,1.5,0.5c0.8,0,1.6-0.4,2.1-1.1
		c0.5-0.9,0.8-2,0.7-3.1v-0.6C71.5,153.7,71.2,152.7,70.7,151.7z"/>
	<path class="bg-primary-dark" d="M83.2,161.1l-5.3-8.5v8.5h-2.2v-12.1h2.2l5.3,8.5v-8.5h2.1v12.1H83.2z"/>
	<path class="bg-primary-dark" d="M87.4,156.8v-1.7h4.4v1.7H87.4z"/>
	<path class="bg-primary-dark" d="M103.5,149.1v12.1h-2.2v-5.3h-5.3v5.4h-2.1v-12.1h2.2v5h5.3v-5H103.5z"/>
	<path class="bg-primary-dark" d="M114.7,159.3c-0.4,0.6-0.9,1.1-1.6,1.4c-0.8,0.4-1.6,0.5-2.5,0.5c-0.9,0-1.8-0.2-2.6-0.7
		c-0.8-0.5-1.3-1.2-1.7-2c-0.4-0.9-0.6-2-0.6-3v-1c0-1,0.2-2.1,0.6-3c0.4-0.8,1-1.5,1.7-2c0.8-0.5,1.7-0.7,2.6-0.7
		c0.8,0,1.7,0.2,2.4,0.5c0.6,0.3,1.2,0.8,1.6,1.5c0.4,0.7,0.6,1.4,0.7,2.2h-2.1c0-0.7-0.3-1.3-0.7-1.8c-1.2-1-2.9-0.8-3.9,0.4
		c-0.5,0.9-0.8,2-0.7,3v1c-0.1,1,0.2,2,0.7,2.9c0.5,0.7,1.2,1.1,2.1,1c0.5,0,1-0.1,1.4-0.3c0.4-0.2,0.6-0.4,0.8-0.8
		c0.2-0.4,0.3-0.9,0.4-1.3h2.1C115.3,158,115.1,158.7,114.7,159.3z"/>
	<path class="bg-primary-dark" d="M61.3,93.1v12.1h-2.1v-5.3h-5.3v5.3h-2.1V93.1h2.2v5h5.3v-5H61.3z"/>
	<path class="bg-primary-dark" d="M72.5,103.3c-0.4,0.6-0.9,1.1-1.6,1.4c-0.8,0.4-1.6,0.5-2.5,0.5c-0.9,0-1.8-0.2-2.6-0.7
		c-0.8-0.5-1.3-1.2-1.7-2c-0.4-0.9-0.6-2-0.6-3v-1c0-1,0.2-2.1,0.6-3c0.4-0.8,1-1.5,1.7-2c0.8-0.5,1.7-0.7,2.6-0.7
		c0.8,0,1.7,0.2,2.4,0.5c0.6,0.3,1.2,0.8,1.6,1.5c0.4,0.7,0.6,1.4,0.7,2.2H71c0-0.7-0.3-1.3-0.7-1.8c-1.2-1-2.9-0.8-3.9,0.4
		c-0.5,0.9-0.8,2-0.7,3v1c-0.1,1,0.2,2,0.7,2.9c0.5,0.7,1.3,1.1,2.1,1c0.5,0,1-0.1,1.4-0.3c0.4-0.2,0.6-0.4,0.8-0.8
		c0.2-0.4,0.3-0.9,0.4-1.4h2.1C73.1,102,72.9,102.7,72.5,103.3z"/>
	<path class="bg-primary-dark" d="M80.4,98.5c-0.7-0.6-1-1.4-1-2.2c0-0.6,0.2-1.2,0.5-1.7c0.4-0.5,0.9-0.9,1.5-1.2c0.7-0.3,1.5-0.4,2.2-0.4
		c0.8,0,1.6,0.1,2.3,0.5c0.6,0.3,1.1,0.8,1.5,1.3c0.3,0.6,0.5,1.2,0.5,1.9h-2.1c0-0.5-0.2-1.1-0.6-1.4c-0.5-0.4-1.1-0.6-1.7-0.5
		c-0.6,0-1.1,0.1-1.6,0.4c-0.4,0.3-0.6,0.7-0.5,1.2c0,0.4,0.2,0.9,0.6,1.1c0.6,0.4,1.2,0.7,1.9,0.8c0.8,0.2,1.5,0.5,2.3,0.9
		c0.5,0.3,1,0.7,1.3,1.2c0.3,0.5,0.4,1.1,0.4,1.7c0,0.6-0.2,1.2-0.5,1.8c-0.4,0.5-0.9,0.9-1.5,1.2c-0.7,0.3-1.5,0.4-2.3,0.4
		c-0.8,0-1.6-0.1-2.3-0.4c-0.7-0.3-1.3-0.7-1.8-1.3c-0.5-0.6-0.7-1.3-0.7-2.1h2.2c0,0.6,0.2,1.2,0.7,1.6c0.6,0.4,1.2,0.6,1.9,0.5
		c0.6,0,1.1-0.1,1.6-0.4c0.4-0.3,0.6-0.7,0.6-1.2c0-0.3-0.1-0.6-0.2-0.8c-0.2-0.3-0.5-0.5-0.8-0.6c-0.5-0.3-1-0.5-1.6-0.6
		C82.3,99.7,81.3,99.2,80.4,98.5z"/>
	<path class="bg-primary-dark" d="M94,103.5v1.6c-0.4,0.1-0.9,0.2-1.3,0.2c-0.6,0-1.3-0.2-1.7-0.6c-0.5-0.5-0.7-1.2-0.6-1.9v-5.1h-1.4v-1.5h1.5
		V94h2.1v2.2H94v1.5h-1.6v4.9c0,0.3,0.1,0.6,0.2,0.8c0.2,0.1,0.4,0.2,0.7,0.2C93.6,103.6,93.8,103.6,94,103.5z"/>
	<path class="bg-primary-dark" d="M100.1,96c0.1,0,0.2,0,0.3,0.1v2c-0.3,0-0.6-0.1-0.8-0.1c-0.8-0.1-1.5,0.3-1.9,1v6.1h-2.1v-9h2l0.1,1
		c0.2-0.4,0.5-0.7,0.8-0.9c0.4-0.2,0.7-0.3,1.1-0.2H100.1z"/>
	<path class="bg-primary-dark" d="M109.2,105v0.1h-2.1c-0.1-0.3-0.2-0.6-0.2-0.8c-0.3,0.3-0.6,0.6-1,0.7c-0.4,0.2-0.9,0.3-1.3,0.3
		c-0.5,0-1.1-0.1-1.6-0.3c-0.4-0.2-0.8-0.6-1.1-1c-0.7-1.2-0.4-2.7,0.7-3.6c0.9-0.6,1.9-0.8,3-0.8h1.2V99c0-0.4-0.1-0.8-0.4-1.1
		c-0.3-0.3-0.7-0.4-1.2-0.4c-0.3,0-0.5,0-0.8,0.2c-0.2,0.1-0.4,0.2-0.5,0.4c-0.1,0.2-0.2,0.4-0.2,0.6h-2.1c0-0.5,0.2-1,0.5-1.4
		c0.3-0.4,0.8-0.8,1.3-1c0.6-0.3,1.3-0.4,1.9-0.4c0.6,0,1.2,0.1,1.8,0.3c0.5,0.2,0.9,0.6,1.2,1.1c0.3,0.5,0.5,1.1,0.4,1.7v4
		C108.8,103.7,108.9,104.4,109.2,105z M106,103.4c0.3-0.2,0.6-0.4,0.7-0.7v-1.7h-1.1c-0.6,0-1.1,0.1-1.6,0.4
		c-0.4,0.2-0.6,0.7-0.6,1.1c0,0.3,0.1,0.7,0.4,0.9c0.3,0.2,0.6,0.4,1,0.3C105.2,103.7,105.6,103.6,106,103.4z"/>
	<path class="bg-primary-dark" d="M115.3,103.5v1.6c-0.4,0.1-0.9,0.2-1.3,0.2c-0.6,0-1.3-0.2-1.7-0.6c-0.5-0.5-0.7-1.2-0.6-1.9v-5.1h-1.5v-1.5
		h1.5V94h2.1v2.2h1.6v1.5h-1.6v4.9c0,0.3,0.1,0.6,0.2,0.8c0.2,0.1,0.4,0.2,0.7,0.2C114.8,103.6,115,103.6,115.3,103.5z"/>
	<path class="bg-primary-dark" d="M124.5,101.3h-5.9c0,0.4,0.2,0.9,0.4,1.2c0.2,0.3,0.5,0.6,0.8,0.8c0.4,0.2,0.8,0.3,1.2,0.3
		c0.9,0,1.7-0.4,2.2-1.1l1.1,1.1c-0.4,0.5-0.8,0.9-1.4,1.2c-0.7,0.3-1.4,0.5-2.1,0.5c-0.8,0-1.6-0.2-2.3-0.6
		c-0.6-0.4-1.2-0.9-1.5-1.6c-0.3-0.7-0.5-1.4-0.5-2.2v-0.3c0-0.8,0.2-1.7,0.5-2.4c0.3-0.7,0.8-1.2,1.5-1.6c0.6-0.4,1.4-0.6,2.1-0.6
		c0.7,0,1.5,0.2,2.1,0.6c0.6,0.4,1,0.9,1.3,1.6c0.3,0.7,0.4,1.5,0.4,2.3L124.5,101.3z M122.5,99.7c0-0.5-0.2-1-0.5-1.4
		c-0.3-0.4-0.8-0.6-1.3-0.6c-0.5,0-1,0.2-1.3,0.6c-0.4,0.4-0.6,1-0.6,1.6h3.8V99.7z"/>
	<path class="bg-primary-dark" d="M133.8,96.2v8.7c0,0.7-0.2,1.4-0.5,2c-0.3,0.6-0.8,1-1.4,1.3c-0.7,0.3-1.4,0.5-2.1,0.4c-0.4,0-0.8-0.1-1.2-0.2
		c-0.4-0.1-0.8-0.3-1.2-0.5c-0.4-0.2-0.7-0.5-1-0.8l1-1.2c0.3,0.3,0.7,0.6,1.1,0.8c0.4,0.2,0.8,0.3,1.2,0.3c0.6,0,1.1-0.2,1.6-0.6
		c0.4-0.4,0.6-1,0.6-1.6v-0.6c-0.6,0.7-1.4,1-2.3,1c-0.7,0-1.3-0.2-1.9-0.6c-0.6-0.4-1-1-1.3-1.6c-0.3-0.7-0.5-1.5-0.4-2.3v-0.2
		c0-0.8,0.1-1.6,0.4-2.4c0.3-0.6,0.7-1.2,1.2-1.6c0.6-0.4,1.2-0.6,1.9-0.6c0.9-0.1,1.8,0.3,2.4,1l0.1-0.9L133.8,96.2z M131.8,102.6
		v-3.9c-0.3-0.7-1-1-1.8-1c-0.4,0-0.8,0.1-1.1,0.4c-0.3,0.3-0.6,0.6-0.7,1c-0.2,0.5-0.2,1-0.2,1.5v0.2c0,0.7,0.1,1.4,0.5,2.1
		c0.3,0.5,0.9,0.8,1.5,0.8C130.7,103.6,131.4,103.2,131.8,102.6z"/>
	<path class="bg-primary-dark" d="M138,93c0.4,0.4,0.4,1.1,0,1.6c-0.2,0.2-0.5,0.3-0.9,0.3c-0.3,0-0.6-0.1-0.9-0.3c-0.2-0.2-0.3-0.5-0.3-0.8
		c0-0.3,0.1-0.6,0.3-0.8c0.2-0.2,0.5-0.3,0.9-0.3C137.5,92.7,137.8,92.8,138,93z M136.1,105.1v-9h2.1v9H136.1z"/>
	<path class="bg-primary-dark" d="M148.1,101.3h-5.8c0,0.4,0.2,0.8,0.4,1.2c0.2,0.3,0.5,0.6,0.8,0.8c0.4,0.2,0.8,0.3,1.2,0.3
		c0.9,0,1.7-0.4,2.2-1.1l1.1,1.1c-0.4,0.5-0.8,0.9-1.4,1.2c-0.7,0.3-1.4,0.5-2.1,0.5c-0.8,0-1.6-0.2-2.3-0.6
		c-0.6-0.4-1.2-0.9-1.5-1.6c-0.4-0.7-0.5-1.4-0.5-2.2v-0.3c0-0.8,0.2-1.7,0.5-2.4c0.3-0.7,0.8-1.2,1.5-1.6c0.6-0.4,1.4-0.6,2.1-0.6
		c0.7,0,1.5,0.2,2.1,0.6c0.6,0.4,1,0.9,1.3,1.6c0.3,0.7,0.4,1.5,0.4,2.3V101.3z M146.1,99.7c0-0.5-0.2-1-0.5-1.4
		c-0.3-0.4-0.8-0.6-1.3-0.6c-0.5,0-1,0.2-1.3,0.6c-0.4,0.5-0.6,1-0.6,1.6h3.8L146.1,99.7z"/>
	<path class="bg-primary-dark" d="M150.6,100.4c-0.6-0.4-0.9-1-0.8-1.7c0-0.5,0.1-1,0.4-1.4c0.3-0.4,0.7-0.8,1.2-1c0.6-0.3,1.2-0.4,1.8-0.4
		c0.7,0,1.3,0.1,1.9,0.4c0.5,0.2,0.9,0.6,1.3,1c0.3,0.4,0.4,0.9,0.4,1.5h-2.1c0-0.2-0.1-0.5-0.2-0.7c-0.1-0.2-0.3-0.4-0.5-0.5
		c-0.3-0.1-0.5-0.2-0.8-0.2c-0.4,0-0.8,0.1-1.1,0.3c-0.2,0.2-0.4,0.5-0.4,0.8c0,0.2,0,0.4,0.2,0.5c0.2,0.2,0.3,0.3,0.6,0.4
		c0.4,0.1,0.7,0.2,1.1,0.3c0.6,0.1,1.2,0.3,1.8,0.6c0.4,0.2,0.8,0.5,1.1,0.9c0.3,0.4,0.4,0.9,0.4,1.3c0,0.5-0.2,1-0.4,1.4
		c-0.3,0.4-0.8,0.8-1.3,1c-0.6,0.2-1.3,0.4-1.9,0.3c-0.7,0-1.4-0.1-2-0.4c-0.5-0.2-1-0.6-1.3-1.1c-0.3-0.4-0.4-0.9-0.4-1.4h2
		c0,0.4,0.2,0.9,0.6,1.1c0.4,0.2,0.8,0.4,1.3,0.4c0.4,0,0.8-0.1,1.2-0.3c0.3-0.2,0.4-0.5,0.4-0.8c0-0.2,0-0.4-0.1-0.5
		c-0.1-0.2-0.3-0.3-0.6-0.4c-0.4-0.2-0.8-0.3-1.2-0.3C152.1,101.3,151.3,100.9,150.6,100.4z"/>
</g>
<g id="bar-horiz-percent">
	<path class="bg-white" d="M251.5,156.6c0.8,1.1,1.2,2.4,1.2,3.8c0,1.3-0.3,2.7-1,3.8c-0.6,1.1-1.6,1.9-2.7,2.4c-1.2,0.6-2.6,0.9-3.9,0.9
		c-1.3,0-2.7-0.3-3.9-0.8c-1.2-0.5-2.2-1.4-2.9-2.4c-0.8-1.1-1.2-2.5-1.1-3.9h2c0,1,0.2,1.9,0.8,2.8c0.5,0.8,1.2,1.5,2.1,1.9
		c1,0.5,2,0.7,3.1,0.7c1.5,0.1,3-0.4,4.1-1.4c1-1,1.6-2.5,1.5-3.9c0.1-1.5-0.5-2.9-1.6-3.8c-1.4-0.9-3-1.4-4.6-1.3h-2.1v-1.8h2.1
		c1.1,0,2.2-0.2,3.2-0.6c0.8-0.4,1.5-1,2-1.7c0.5-0.7,0.7-1.6,0.7-2.5c0.2-2.6-1.6-4.8-4.2-5.1c-0.3,0-0.7,0-1,0
		c-1,0-1.9,0.2-2.8,0.6c-0.8,0.4-1.5,1-2,1.8c-0.5,0.8-0.7,1.8-0.7,2.7h-2c0-1.3,0.3-2.5,1-3.5c0.7-1,1.6-1.9,2.7-2.4
		c2.4-1.2,5.2-1.2,7.7-0.1c1.1,0.5,1.9,1.3,2.5,2.4c0.6,1.1,0.9,2.4,0.9,3.7c0,0.8-0.2,1.5-0.5,2.2c-0.3,0.8-0.8,1.4-1.5,2
		c-0.7,0.6-1.5,1.1-2.3,1.4C249.4,154.7,250.6,155.5,251.5,156.6z"/>
	<path class="bg-white" d="M269.6,151.9c1.1,0.7,1.9,1.8,2.4,3c1.1,2.7,1.1,5.8-0.1,8.4c-0.6,1.2-1.4,2.3-2.6,3.1
		c-1.2,0.8-2.5,1.2-3.9,1.1c-1.5,0-3-0.4-4.3-1.2c-1.2-0.8-2.2-2-2.8-3.3c-0.7-1.4-1-3-1-4.6v-2.2c-0.1-2.6,0.4-5.1,1.3-7.5
		c0.8-2,2.2-3.7,4-4.9c2-1.2,4.3-1.8,6.6-1.7h0.3v1.8h-0.3c-1.8,0-3.5,0.4-5.1,1.2c-1.4,0.8-2.6,2-3.3,3.4c-0.8,1.6-1.3,3.5-1.4,5.3
		c0.7-0.9,1.6-1.7,2.6-2.2c1.1-0.5,2.3-0.8,3.5-0.8C267.1,150.8,268.4,151.2,269.6,151.9z M268.3,164.9c0.8-0.6,1.5-1.5,1.9-2.4
		c0.8-2.1,0.8-4.5,0-6.7c-0.4-0.9-1-1.8-1.8-2.4c-0.9-0.6-1.9-0.9-3-0.9c-0.9,0-1.7,0.2-2.5,0.5c-0.8,0.3-1.5,0.9-2.1,1.5
		c-0.6,0.6-1,1.3-1.2,2.1v1.7c0,1.3,0.2,2.7,0.8,3.9c0.5,1,1.2,1.9,2.2,2.6c0.9,0.6,2,0.9,3.1,0.9
		C266.5,165.8,267.5,165.5,268.3,164.9L268.3,164.9z"/>
	<path class="bg-white" d="M277.4,144.5c0.4-0.8,1-1.4,1.7-1.9c0.8-0.5,1.7-0.7,2.6-0.7c1.8,0,3.5,0.9,4.3,2.6c0.4,0.8,0.6,1.7,0.6,2.6
		v1.3c0,0.9-0.2,1.8-0.6,2.6c-0.4,0.8-1,1.4-1.7,1.9c-0.8,0.5-1.6,0.7-2.5,0.7c-0.9,0-1.8-0.2-2.6-0.7c-0.7-0.4-1.3-1.1-1.7-1.9
		c-0.4-0.8-0.6-1.7-0.6-2.6v-1.3C276.8,146.2,277,145.3,277.4,144.5z M278.8,150.2c0.2,0.5,0.6,1,1.1,1.3c0.5,0.3,1.2,0.5,1.8,0.5
		c0.6,0,1.2-0.2,1.8-0.5c0.5-0.3,0.8-0.8,1.1-1.3c0.2-0.6,0.4-1.2,0.4-1.8v-1.3c0-0.6-0.1-1.2-0.4-1.8c-0.2-0.5-0.6-1-1.1-1.3
		c-0.5-0.4-1.1-0.5-1.8-0.5c-0.6,0-1.2,0.2-1.8,0.5c-0.5,0.3-0.9,0.8-1.1,1.4c-0.3,0.6-0.4,1.2-0.4,1.8v1.3
		C278.5,149,278.6,149.6,278.8,150.2L278.8,150.2z M281.1,164.3l12.1-19.4l1.3,0.8l-12.1,19.4L281.1,164.3z M289.9,158.5
		c0.4-0.8,1-1.4,1.7-1.9c0.8-0.5,1.7-0.7,2.6-0.7c0.9,0,1.8,0.2,2.6,0.7c0.7,0.5,1.3,1.1,1.7,1.9c0.4,0.8,0.6,1.7,0.6,2.6v1.3
		c0,0.9-0.2,1.8-0.6,2.6c-0.8,1.6-2.4,2.6-4.2,2.6c-0.9,0-1.8-0.2-2.6-0.7c-0.7-0.5-1.3-1.1-1.7-1.9c-0.4-0.8-0.6-1.7-0.6-2.6v-1.3
		C289.3,160.2,289.5,159.3,289.9,158.5L289.9,158.5z M291.4,164.2c0.2,0.5,0.6,1,1.1,1.3c0.5,0.4,1.2,0.5,1.8,0.5
		c0.6,0,1.2-0.2,1.8-0.5c0.5-0.3,0.8-0.8,1.1-1.3c0.2-0.6,0.4-1.2,0.4-1.8v-1.3c0-0.6-0.1-1.3-0.4-1.8c-0.2-0.5-0.6-1-1.1-1.3
		c-0.5-0.3-1.1-0.5-1.8-0.5c-0.6,0-1.2,0.1-1.8,0.5c-0.5,0.3-0.9,0.8-1.1,1.3c-0.2,0.6-0.4,1.2-0.4,1.8v1.3
		C291,163,291.1,163.6,291.4,164.2L291.4,164.2z"/>
	<path class="bg-white" d="M236.5,100.6c0.8,1.1,1.2,2.4,1.2,3.8c0,1.3-0.3,2.7-1,3.8c-0.6,1.1-1.6,1.9-2.7,2.4c-1.2,0.6-2.6,0.9-3.9,0.8
		c-1.3,0-2.7-0.3-3.9-0.8c-1.2-0.5-2.2-1.4-2.9-2.4c-0.8-1.1-1.2-2.5-1.1-3.9h2c0,1,0.2,1.9,0.8,2.8c0.5,0.8,1.2,1.5,2.1,1.9
		c1,0.5,2,0.7,3.1,0.7c1.5,0.1,3-0.4,4.1-1.4c1-1,1.6-2.5,1.5-3.9c0.1-1.5-0.5-2.9-1.6-3.8c-1.4-0.9-3-1.4-4.6-1.3h-2.1v-1.8h2.1
		c1.1,0,2.2-0.2,3.2-0.6c0.8-0.4,1.5-1,2-1.7c0.5-0.7,0.7-1.6,0.7-2.5c0.2-2.6-1.6-4.8-4.2-5.1c-0.3,0-0.7,0-1,0
		c-1,0-1.9,0.2-2.8,0.6c-0.8,0.4-1.5,1-2,1.8c-0.5,0.8-0.7,1.8-0.7,2.7h-2c0-1.3,0.3-2.5,1-3.5c0.7-1,1.6-1.9,2.7-2.4
		c2.4-1.2,5.2-1.2,7.7-0.1c1.1,0.5,1.9,1.3,2.5,2.3c0.6,1.1,0.9,2.4,0.9,3.7c0,0.8-0.2,1.5-0.5,2.2c-0.3,0.8-0.8,1.4-1.5,2
		c-0.7,0.6-1.5,1.1-2.3,1.4C234.4,98.7,235.6,99.5,236.5,100.6z"/>
	<path class="bg-white" d="M256.3,100.6c0.8,1.1,1.2,2.4,1.2,3.8c0,1.3-0.3,2.7-1,3.8c-0.7,1.1-1.6,1.9-2.7,2.4c-1.2,0.6-2.6,0.9-3.9,0.8
		c-1.3,0-2.7-0.3-3.9-0.8c-1.2-0.5-2.2-1.4-2.9-2.4c-0.8-1.1-1.2-2.5-1.1-3.9h2.1c0,1,0.2,1.9,0.8,2.8c0.5,0.8,1.2,1.5,2.1,1.9
		c1,0.5,2,0.7,3.1,0.7c1.5,0.1,3-0.4,4.1-1.4c1-1,1.6-2.5,1.5-3.9c0.1-1.5-0.5-2.9-1.7-3.8c-1.4-0.9-3-1.4-4.6-1.3h-2.1v-1.8h2.1
		c1.1,0,2.2-0.2,3.2-0.6c0.8-0.4,1.5-1,2-1.7c0.5-0.7,0.7-1.6,0.7-2.5c0.2-2.6-1.6-4.8-4.2-5.1c-0.3,0-0.7,0-1,0
		c-1,0-1.9,0.2-2.8,0.6c-0.8,0.4-1.5,1-1.9,1.8c-0.5,0.8-0.7,1.8-0.7,2.7h-2c0-1.3,0.3-2.5,1-3.5c0.7-1,1.6-1.9,2.7-2.4
		c2.4-1.2,5.2-1.2,7.7-0.1c1.1,0.5,2,1.3,2.5,2.3c0.6,1.1,0.9,2.4,0.9,3.7c0,0.8-0.2,1.5-0.5,2.2c-0.3,0.8-0.8,1.4-1.4,2
		c-0.7,0.6-1.5,1.1-2.3,1.4C254.2,98.7,255.4,99.5,256.3,100.6z"/>
	<path id="bar-horiz-labels" class="bg-white" d="M262.4,88.5c0.4-0.8,1-1.4,1.7-1.9c0.8-0.5,1.7-0.7,2.6-0.7c1.8-0.1,3.5,0.9,4.3,2.6
		c0.4,0.8,0.6,1.7,0.6,2.6v1.3c0,0.9-0.2,1.8-0.6,2.6c-0.4,0.8-1,1.4-1.7,1.8c-0.8,0.5-1.6,0.7-2.5,0.7c-0.9,0-1.8-0.2-2.6-0.7
		c-0.7-0.4-1.3-1.1-1.7-1.8c-0.4-0.8-0.6-1.7-0.6-2.6v-1.3C261.8,90.2,262,89.3,262.4,88.5z M263.8,94.2c0.2,0.5,0.6,1,1.1,1.3
		c0.5,0.3,1.2,0.5,1.8,0.5c0.6,0,1.2-0.2,1.8-0.5c0.5-0.3,0.8-0.8,1.1-1.3c0.2-0.6,0.4-1.2,0.4-1.8v-1.3c0-0.6-0.1-1.2-0.4-1.8
		c-0.2-0.5-0.6-1-1.1-1.3c-0.5-0.4-1.1-0.5-1.8-0.5c-0.6,0-1.2,0.2-1.8,0.5c-0.5,0.3-0.9,0.8-1.1,1.3c-0.3,0.6-0.4,1.2-0.4,1.8v1.3
		C263.5,93,263.6,93.6,263.8,94.2z M266.1,108.3l12.1-19.5l1.3,0.8l-12.1,19.5L266.1,108.3z M274.9,102.5c0.4-0.8,1-1.4,1.7-1.9
		c0.8-0.5,1.7-0.7,2.6-0.7c0.9,0,1.8,0.2,2.6,0.7c0.7,0.5,1.3,1.1,1.7,1.9c0.4,0.8,0.6,1.7,0.6,2.6v1.3c0,0.9-0.2,1.8-0.6,2.6
		c-0.8,1.6-2.4,2.6-4.2,2.6c-0.9,0-1.8-0.2-2.6-0.7c-0.7-0.5-1.3-1.1-1.7-1.9c-0.4-0.8-0.6-1.7-0.6-2.6V105
		C274.3,104.2,274.5,103.3,274.9,102.5z M276.4,108.2c0.2,0.5,0.6,1,1.1,1.3c0.5,0.4,1.2,0.5,1.8,0.5c0.6,0,1.2-0.2,1.8-0.5
		c0.5-0.3,0.8-0.8,1.1-1.3c0.2-0.6,0.4-1.2,0.4-1.8v-1.3c0-0.6-0.1-1.3-0.4-1.8c-0.2-0.5-0.6-1-1.1-1.3c-0.5-0.3-1.1-0.5-1.8-0.5
		c-0.6,0-1.2,0.1-1.8,0.5c-0.5,0.3-0.9,0.8-1.1,1.3c-0.2,0.6-0.4,1.2-0.4,1.8v1.3C276,107,276.1,107.6,276.4,108.2z"/>
</g>
</svg>
