<svg id="Layer_1" data-name="Layer 1" xmlns="http://www.w3.org/2000/svg" viewBox="0 0 150 150"><defs><style>.cls-1{fill:#fff;}</style></defs><title>icon-updown</title><g id="icon"><path class="cls-1" d="M104.37,106.92H45.63a2.55,2.55,0,0,1-2.55-2.55v-9.1a4.89,4.89,0,0,1,1.25-3.08l20-20.45a2.85,2.85,0,0,1,3.59-.26L82.22,82.42a.41.41,0,0,0,.22,0l21.4-21.76a2,2,0,0,1,1.43-.67,1.72,1.72,0,0,1,1.65,1.93v42.46A2.55,2.55,0,0,1,104.37,106.92Zm0-2.55ZM66.26,73.49a.15.15,0,0,0-.12,0L46.16,94a2.41,2.41,0,0,0-.53,1.3v9.1h58.73V63.75L84.26,84.2a2.85,2.85,0,0,1-3.59.25L66.35,73.51A.14.14,0,0,0,66.26,73.49Z"/><path class="cls-1" d="M101.71,43.93a.86.86,0,0,0-.85-.85h-6.4a.86.86,0,0,0-.85.85v.85a.86.86,0,0,0,.85.85h2.88L82.12,61.07a.45.45,0,0,1-.23,0L67.58,50.15a2.85,2.85,0,0,0-3.6.26S49.48,65.3,48.71,66a1.28,1.28,0,1,0,1.89,1.72c1.22-1.18,15.21-15.57,15.21-15.57a.22.22,0,0,1,.12,0,.22.22,0,0,1,.1,0L80.34,63.12a2.87,2.87,0,0,0,3.6-.26L99.15,47.44v2.88a.85.85,0,0,0,.85.85h.86a.86.86,0,0,0,.85-.85Z"/><path class="cls-1" d="M75,6.5A68.5,68.5,0,1,1,6.5,75,68.58,68.58,0,0,1,75,6.5m0-3A71.5,71.5,0,1,0,146.5,75,71.5,71.5,0,0,0,75,3.5Z"/></g></svg>