<svg id="Layer_1" data-name="Layer 1" xmlns="http://www.w3.org/2000/svg" viewBox="0 0 150 150"><defs><style>.cls-1{fill:#fff;}</style></defs><title>icon-active</title><g id="icon"><path class="cls-1" d="M62.25,99.76H58a4,4,0,0,1-4-4v-24a4,4,0,0,1,4-4h4.21a4,4,0,0,1,4,4v24A4,4,0,0,1,62.25,99.76ZM58,70.4a1.34,1.34,0,0,0-1.33,1.33v24A1.34,1.34,0,0,0,58,97.1h4.21a1.34,1.34,0,0,0,1.33-1.33v-24a1.34,1.34,0,0,0-1.33-1.33Z"/><path class="cls-1" d="M79.42,99.76H75.21a4,4,0,0,1-4-4V63.87a4,4,0,0,1,4-4h4.21a4,4,0,0,1,4,4v31.9A4,4,0,0,1,79.42,99.76ZM75.21,62.54a1.33,1.33,0,0,0-1.33,1.33v31.9a1.33,1.33,0,0,0,1.33,1.33h4.21a1.34,1.34,0,0,0,1.33-1.33V63.87a1.34,1.34,0,0,0-1.33-1.33Z"/><path class="cls-1" d="M96.58,99.76h-4.2a4,4,0,0,1-4-4V56a4,4,0,0,1,4-4h4.2a4,4,0,0,1,4,4V95.77A4,4,0,0,1,96.58,99.76Zm-4.2-45.09A1.33,1.33,0,0,0,91.05,56V95.77a1.33,1.33,0,0,0,1.33,1.33h4.2a1.33,1.33,0,0,0,1.33-1.33V56a1.33,1.33,0,0,0-1.33-1.33Z"/><path class="cls-1" d="M106.9,105.57H44.43v-10h1.33a1.33,1.33,0,1,0,0-2.66H44.43V84.49h1.33a1.33,1.33,0,1,0,0-2.66H44.43V73.41h1.33a1.33,1.33,0,1,0,0-2.66H44.43V62.34h1.33a1.33,1.33,0,1,0,0-2.66H44.43V51.26h1.33a1.33,1.33,0,1,0,0-2.66H44.43V43.1a1.33,1.33,0,0,0-2.66,0v63.8a1.34,1.34,0,0,0,1.33,1.33h63.8a1.33,1.33,0,0,0,0-2.66Z"/><path class="cls-1" d="M75,6.5A68.5,68.5,0,1,1,6.5,75,68.58,68.58,0,0,1,75,6.5m0-3A71.5,71.5,0,1,0,146.5,75,71.5,71.5,0,0,0,75,3.5Z"/></g></svg>