<svg id="Layer_1" data-name="Layer 1" xmlns="http://www.w3.org/2000/svg" viewBox="0 0 150 150"><defs><style>.cls-1{fill:#fff;}</style></defs><title>icon-tracking-error</title><g id="icon"><path class="cls-1" d="M75,6.5A68.5,68.5,0,1,1,6.5,75,68.58,68.58,0,0,1,75,6.5m0-3A71.5,71.5,0,1,0,146.5,75,71.5,71.5,0,0,0,75,3.5Z"/><path class="cls-1" d="M108,102l-4.7-4.7a.89.89,0,0,0-1.26,0l-.63.62a.91.91,0,0,0,0,1.26l2.12,2.12H48.69V46.5l2.12,2.12a.91.91,0,0,0,1.26,0l.62-.63a.89.89,0,0,0,0-1.26L48,42a.89.89,0,0,0-1.26,0L42,46.73A.89.89,0,0,0,42,48l.63.63a.89.89,0,0,0,1.25,0L46,46.5v54.81H43.1a1.33,1.33,0,0,0,0,2.66H46v2.93a1.33,1.33,0,0,0,2.66,0V104H103.5l-2.12,2.12a.89.89,0,0,0,0,1.25l.63.63a.89.89,0,0,0,1.26,0l4.7-4.7A.89.89,0,0,0,108,102Z"/><path class="cls-1" d="M55.69,72.3,69.87,57.69c.51-.52.76-.61,1.25-.07L82.54,70.18l1.85-1.89L71.52,54.08a1.24,1.24,0,0,0-1.82,0L53.78,70.44a1.33,1.33,0,0,0,1.91,1.86Z"/><path class="cls-1" d="M101.44,73.54a1.33,1.33,0,0,0-1.88-.08L94.8,77.8c-.53.5-.94,1-1.43.41l-3.62-4-1.84,1.88,4.86,5.35a1.35,1.35,0,0,0,1.9.08l6.68-6.1A1.34,1.34,0,0,0,101.44,73.54Z"/><path class="cls-1" d="M97.39,62.63a1.33,1.33,0,0,0,0-1.88h0a1.33,1.33,0,0,0-1.88,0L79.3,77.28c-.51.52-.75.86-1.24.32l-6.55-7.17a1.24,1.24,0,0,0-1.82,0L53.78,86.78a1.33,1.33,0,0,0,0,1.88h0a1.33,1.33,0,0,0,1.88,0L69.91,74c.51-.53.72-.56,1.21,0l6.43,7a1.25,1.25,0,0,0,1.83,0Z"/></g></svg>