<svg id="Layer_1" data-name="Layer 1" xmlns="http://www.w3.org/2000/svg" viewBox="0 0 150 150"><defs><style>.cls-1{fill:#fff;}</style></defs><title>icon-beta</title><g id="icon"><path class="cls-1" d="M107.87,100.79h-3.41L90.92,53.86a1.39,1.39,0,0,0-2.67,0L85.17,64.51,79.83,44.78a1.39,1.39,0,0,0-2.68,0L68.39,77.1l-2.13-6.44a1.39,1.39,0,0,0-2.64,0l-10,30.13H49.21V97h2.54a.5.5,0,0,0,.5-.5V94.73a.5.5,0,0,0-.5-.5H49.21v-5h2.54a.51.51,0,0,0,.5-.5V86.91a.5.5,0,0,0-.5-.5H49.21v-5h2.54a.51.51,0,0,0,.5-.5V79.09a.5.5,0,0,0-.5-.5H49.21v-5h2.54a.51.51,0,0,0,.5-.5V71.27a.5.5,0,0,0-.5-.5H49.21v-5h2.54a.51.51,0,0,0,.5-.5V63.44a.51.51,0,0,0-.5-.5H49.21v-5h2.54a.5.5,0,0,0,.5-.5V55.62a.51.51,0,0,0-.5-.5H49.21v-5h2.54a.5.5,0,0,0,.5-.5V47.8a.51.51,0,0,0-.5-.5H49.21V42.13a.5.5,0,0,0-.5-.5H46.93a.5.5,0,0,0-.5.5v58.66h-4.3a.5.5,0,0,0-.5.5v1.78a.5.5,0,0,0,.5.5h4.3v4.3a.5.5,0,0,0,.5.5h1.78a.5.5,0,0,0,.5-.5v-4.3h58.66a.5.5,0,0,0,.5-.5v-1.78A.5.5,0,0,0,107.87,100.79Zm-22.78-26,7,26H77.6Zm1.49-5.15,3-10.41,12,41.52H95ZM80.17,81.83,75.43,98.29,70,81.88l8.51-31.42,5.2,19.2ZM62,100.79H56.55l8.39-25.28L67.08,82Zm2.88,0,3.8-14.05,4.67,14.05Zm23-37.22,1.76-6.11h0Zm2.49-9.83a.89.89,0,0,0-.73-.38h0A.89.89,0,0,1,90.31,53.74ZM65.78,70.81,68.16,78h0l-2.38-7.16a.85.85,0,0,0-.13-.25A.85.85,0,0,1,65.78,70.81Zm-1.69,0a.91.91,0,0,1,.33-.44.91.91,0,0,0-.33.44l-10,30h0Z"/><path class="cls-1" d="M75,6.5A68.5,68.5,0,1,1,6.5,75,68.58,68.58,0,0,1,75,6.5m0-3A71.5,71.5,0,1,0,146.5,75,71.5,71.5,0,0,0,75,3.5Z"/></g></svg>