<svg id="Layer_1" data-name="Layer 1" xmlns="http://www.w3.org/2000/svg" viewBox="0 0 150 150"><defs><style>.cls-1{fill:#fff;}</style></defs><title>icon-high-conviction</title><g id="icon"><path class="cls-1" d="M41.12,101.57A20.56,20.56,0,0,1,20.59,81,1.44,1.44,0,0,1,22,79.59H60.21A1.44,1.44,0,0,1,61.65,81,20.56,20.56,0,0,1,41.12,101.57ZM23.53,82.48a17.65,17.65,0,0,0,35.18,0Z"/><rect class="cls-1" x="41.2" y="36.35" width="33.8" height="2.89"/><path class="cls-1" d="M60.09,82.48H22a1.45,1.45,0,0,1-1.21-.66,1.42,1.42,0,0,1-.11-1.37l19-43.24a1.44,1.44,0,0,1,2.64,0l19,43.24a1.48,1.48,0,0,1-.11,1.37A1.46,1.46,0,0,1,60.09,82.48ZM24.24,79.59H57.88L41.06,41.38Z"/><path class="cls-1" d="M108.88,101.57A20.56,20.56,0,0,1,88.35,81a1.44,1.44,0,0,1,1.44-1.44H128A1.44,1.44,0,0,1,129.41,81,20.56,20.56,0,0,1,108.88,101.57ZM91.29,82.48a17.65,17.65,0,0,0,35.18,0Z"/><rect class="cls-1" x="75" y="36.35" width="33.8" height="2.89"/><path class="cls-1" d="M128,82.48H89.91a1.46,1.46,0,0,1-1.21-.66,1.48,1.48,0,0,1-.11-1.37l19-43.24a1.44,1.44,0,0,1,2.64,0l19,43.24a1.42,1.42,0,0,1-.11,1.37A1.45,1.45,0,0,1,128,82.48ZM92.12,79.59h33.64L108.94,41.38Z"/><path class="cls-1" d="M101.78,123H48.85a5.09,5.09,0,0,1,0-10.18h52.93a5.09,5.09,0,0,1,0,10.18Zm-52.93-7.29a2.21,2.21,0,0,0,0,4.41h52.93a2.21,2.21,0,0,0,0-4.41Z"/><path class="cls-1" d="M79,115.72H71.67a1.44,1.44,0,0,1-1.44-1.44V32.08a5.09,5.09,0,1,1,10.17,0v82.2A1.44,1.44,0,0,1,79,115.72Zm-5.85-2.89h4.41V32.08a2.21,2.21,0,1,0-4.41,0Z"/><rect class="cls-1" x="71.67" y="42.32" width="7.29" height="2.89"/></g></svg>