<svg id="Layer_1" data-name="Layer 1" xmlns="http://www.w3.org/2000/svg" viewBox="0 0 150 150"><defs><style>.cls-1{fill:#fff;}</style></defs><title>icon-rsquared</title><g id="icon"><path class="cls-1" d="M108,102l-4.7-4.7a.89.89,0,0,0-1.26,0l-.63.62a.91.91,0,0,0,0,1.26l2.12,2.12H48.69V46.5l2.12,2.12a.91.91,0,0,0,1.26,0l.62-.63a.89.89,0,0,0,0-1.26L48,42a.89.89,0,0,0-1.26,0L42,46.73A.89.89,0,0,0,42,48l.63.63a.89.89,0,0,0,1.25,0L46,46.5v54.81H43.1a1.33,1.33,0,0,0,0,2.66H46v2.93a1.33,1.33,0,0,0,2.66,0V104H103.5l-2.12,2.12a.89.89,0,0,0,0,1.25l.63.63a.89.89,0,0,0,1.26,0l4.7-4.7A.89.89,0,0,0,108,102Z"/><path class="cls-1" d="M59.71,92.61A4.65,4.65,0,1,1,64.37,88,4.66,4.66,0,0,1,59.71,92.61Zm0-6.64a2,2,0,1,0,2,2A2,2,0,0,0,59.71,86Z"/><path class="cls-1" d="M68.3,71.46a5.27,5.27,0,1,1,5.26-5.27A5.27,5.27,0,0,1,68.3,71.46Zm0-7.87a2.61,2.61,0,1,0,2.6,2.6A2.6,2.6,0,0,0,68.3,63.59Z"/><path class="cls-1" d="M90.29,81.42a5.32,5.32,0,1,1,5.31-5.31A5.32,5.32,0,0,1,90.29,81.42Zm0-8a2.66,2.66,0,1,0,2.65,2.66A2.66,2.66,0,0,0,90.29,73.45Z"/><path class="cls-1" d="M92.39,60.27a4,4,0,1,1,4-4A4,4,0,0,1,92.39,60.27Zm0-5.32a1.33,1.33,0,1,0,1.33,1.33A1.34,1.34,0,0,0,92.39,55Z"/><path class="cls-1" d="M75,6.5A68.5,68.5,0,1,1,6.5,75,68.58,68.58,0,0,1,75,6.5m0-3A71.5,71.5,0,1,0,146.5,75,71.5,71.5,0,0,0,75,3.5Z"/></g></svg>