<?xml version="1.0" encoding="utf-8"?>
<!-- Generator: Adobe Illustrator 23.0.1, SVG Export Plug-In . SVG Version: 6.00 Build 0)  -->
<svg version="1.1" id="Layer_1" xmlns="http://www.w3.org/2000/svg" xmlns:xlink="http://www.w3.org/1999/xlink" x="0px" y="0px"
	 viewBox="0 0 597.2 72.8" style="enable-background:new 0 0 597.2 72.8;" xml:space="preserve">
<style type="text/css">
	.st0{fill:#AC3E06;}
</style>
<title>ifi-GAM-Logo</title>
<g>
	<g>
		<path d="M82.2,23.6l2.3,0.1c1.5,0,2.5,0.1,3,0.1c0.4,0,2.2,0,5.3-0.1l0.1,0.1v0.9l-0.1,0.1c-0.9,0-1.5,0.1-2,0.1s-0.8,0.1-1,0.3
			c-0.2,0.1-0.3,0.5-0.4,1s-0.1,1.2-0.1,2.1v4.3V41v3.6c0,1.4,0,2.3,0.1,2.7s0.2,0.7,0.3,0.8s0.3,0.3,0.7,0.3
			c0.3,0.1,1.2,0.2,2.5,0.2l0.1,0.1v0.9l-0.1,0.1c-0.1,0-1.2,0-3.3-0.1c-0.9,0-1.6,0-2.1,0c-0.4,0-2.2,0-5.3,0.1l-0.1-0.1v-0.9
			l0.1-0.1c1.2,0,1.9-0.1,2.3-0.2c0.4-0.1,0.6-0.2,0.8-0.3c0.1-0.1,0.2-0.4,0.3-0.8c0.1-0.4,0.1-1.2,0.1-2.6v-3.9v-8.6v-3.6
			c0-1.4,0-2.3-0.1-2.7s-0.1-0.7-0.3-0.8c-0.1-0.1-0.3-0.2-0.7-0.3c-0.3-0.1-1.2-0.2-2.5-0.2L82,24.5v-0.9H82.2z"/>
		<path d="M100.8,31.9l0.4,0.2c-0.1,1.4-0.2,2.7-0.2,3.7c1.7-1.5,2.9-2.5,3.5-3c0.7-0.5,1.8-0.7,3.4-0.7c1,0,1.9,0.1,2.8,0.4
			c0.8,0.3,1.6,0.7,2.3,1.4c0.7,0.6,1.3,1.4,1.7,2.4s0.6,2.1,0.6,3.3c0,0.9-0.1,1.8-0.4,2.7s-0.7,1.8-1.1,2.5s-0.8,1.3-1.1,1.5
			c-0.3,0.3-0.9,0.6-1.7,1.1s-1.6,1-2.3,1.5c-0.5,0.4-0.9,0.6-1.1,0.7c-0.2,0.1-0.6,0.2-1.1,0.3s-1,0.2-1.6,0.2
			c-1.3,0-2.6-0.3-3.8-1v4c0,0.3,0,1.1,0.1,2.6c0,1.5,0.1,2.3,0.2,2.6s0.1,0.4,0.3,0.5s0.2,0.2,0.4,0.2s0.8,0.1,2,0.2l0.2,0.1v0.8
			l-0.1,0.2c-1.5-0.1-3-0.1-4.5-0.1c-1.4,0-2.9,0-4.5,0.1L95,60.1v-0.8l0.2-0.1c1.2-0.1,1.9-0.1,2-0.2c0.2,0,0.3-0.1,0.4-0.2
			c0.1-0.1,0.2-0.3,0.2-0.6s0.1-1.1,0.1-2.5c0.1-1.4,0.1-2.4,0.1-3.2V38.6c0-0.6,0-1.4-0.1-2.2s-0.1-1.3-0.1-1.5
			c0-0.1-0.1-0.2-0.3-0.3c-0.1-0.1-0.5-0.1-1-0.1h-1.6l-0.2-0.1v-0.8l0.1-0.1C97.2,33,99.2,32.5,100.8,31.9z M101,46.1
			c0.6,0.6,1.3,1.1,2.1,1.5s1.8,0.6,2.8,0.6c1.2,0,2.3-0.3,3.2-0.9c0.9-0.6,1.6-1.5,2.1-2.7s0.8-2.5,0.8-3.9c0-1.2-0.2-2.2-0.7-3.2
			s-1.2-1.8-2.1-2.3c-0.9-0.6-2-0.9-3-0.9c-0.7,0-1.3,0.1-1.9,0.3s-1.2,0.6-1.7,1s-0.9,0.9-1.2,1.3c-0.2,0.4-0.4,0.7-0.4,1
			s0,0.6,0,0.9L101,46.1L101,46.1z"/>
		<path d="M118.7,44.3h0.8l0.2,0.2c0,1,0.1,1.9,0.2,2.7c0.4,0.6,1,1.1,2,1.4c0.9,0.4,1.9,0.5,2.8,0.5c1.3,0,2.4-0.4,3.1-1.1
			c0.8-0.7,1.2-1.5,1.2-2.5c0-0.5-0.1-1-0.4-1.4c-0.3-0.4-0.7-0.7-1.3-1s-1.6-0.6-3.1-0.9c-1.3-0.3-2.2-0.5-2.7-0.7s-1-0.4-1.5-0.8
			c-0.5-0.4-0.8-0.9-1.1-1.5c-0.2-0.6-0.4-1.2-0.4-1.9c0-1.7,0.7-3,2-4s3-1.5,4.9-1.5c0.8,0,1.7,0.1,2.7,0.3c1,0.2,1.7,0.4,2.2,0.7
			l0.2,0.3c-0.1,0.5-0.2,1.8-0.2,3.9l-0.2,0.2h-0.7l-0.2-0.2c0-0.8-0.1-1.3-0.2-1.6c-0.1-0.3-0.3-0.6-0.7-1s-0.9-0.6-1.5-0.9
			c-0.7-0.2-1.3-0.4-2.1-0.4s-1.4,0.1-1.9,0.3s-0.9,0.6-1.2,1c-0.3,0.5-0.5,1-0.5,1.6c0,0.5,0.1,0.9,0.3,1.3
			c0.2,0.4,0.5,0.7,0.9,0.9s0.8,0.4,1.2,0.5l2,0.5c1.7,0.4,3,0.8,3.7,1.1s1.3,0.8,1.7,1.4c0.4,0.6,0.6,1.4,0.6,2.3
			c0,1.7-0.7,3.2-2.1,4.4s-3.2,1.8-5.4,1.8c-0.8,0-1.7-0.1-2.9-0.3s-2.1-0.4-3-0.6l-0.1-0.2l0.2-1.2c0.1-0.4,0.1-0.8,0.1-1.2
			s0-1.2,0-2.5L118.7,44.3z"/>
		<path d="M139.3,32.1l0.4,0.2c-0.1,1.6-0.2,3.7-0.2,6.2v4.3c0,1.6,0.1,2.7,0.4,3.3s0.7,1.1,1.3,1.4c0.6,0.3,1.3,0.5,2.1,0.5
			c0.9,0,1.7-0.2,2.5-0.5c0.7-0.4,1.4-0.8,1.9-1.5s0.8-1.1,0.9-1.3s0.1-0.8,0.1-1.9l0.1-2.1v-2c0-0.5,0-1.2-0.1-2
			c0-0.9-0.1-1.4-0.1-1.6c0-0.2-0.1-0.3-0.3-0.4c-0.2-0.1-0.5-0.1-1-0.1h-1.6l-0.2-0.1v-0.8l0.1-0.1c2.4-0.3,4.4-0.7,6-1.4l0.4,0.2
			c-0.1,1.6-0.2,3.7-0.2,6.2v3.3c0,0.2,0,1.7,0.1,4.5c0,1.1,0.1,1.7,0.2,1.9c0.1,0.2,0.3,0.4,0.4,0.5c0.2,0.1,0.7,0.1,1.7,0.1h0.5
			V49v0.7l-0.1,0.2c-1.7-0.1-2.9-0.1-3.5-0.1c-0.8,0-1.6,0-2.6,0.1l-0.2-0.1c0.1-1.3,0.1-2.3,0.2-3.2c-0.8,0.6-1.7,1.4-2.7,2.4
			c-0.4,0.4-0.9,0.7-1.7,1c-0.7,0.3-1.5,0.4-2.4,0.4c-1.4,0-2.5-0.2-3.2-0.7c-0.8-0.4-1.3-1-1.6-1.8s-0.5-2.1-0.5-4v-1.5v-3.6
			c0-0.5,0-1.2-0.1-2c0-0.9-0.1-1.4-0.1-1.6c0-0.2-0.1-0.3-0.3-0.4c-0.2-0.1-0.5-0.1-1-0.1h-1.6l-0.2-0.1v-0.8l0.1-0.1
			C135.7,33.2,137.7,32.7,139.3,32.1z"/>
		<path d="M162.6,32.1l0.4,0.2c-0.1,0.8-0.1,1.8-0.1,2.9l1.8-1.6c0.5-0.5,0.8-0.8,1-0.9c0.2-0.1,0.5-0.3,1.1-0.5s1.2-0.3,1.9-0.3
			c1.2,0,2.3,0.3,3.2,0.9s1.6,1.5,2.1,2.5c1.7-1.6,2.6-2.5,2.9-2.6c0.3-0.2,0.7-0.3,1.3-0.5s1.2-0.3,1.8-0.3c1,0,1.9,0.2,2.7,0.6
			c0.8,0.4,1.5,1,1.9,1.7c0.5,0.7,0.8,1.4,0.8,2.2c0.1,0.8,0.1,1.9,0.1,3.3v1.9c0,0.2,0,1.8,0.1,4.6c0,1.2,0.2,1.9,0.4,2.1
			c0.2,0.2,1,0.3,2.3,0.3l0.1,0.1v0.8l-0.1,0.1c-1.6-0.1-2.6-0.1-3.2-0.1c-0.3,0-1.2,0-2.7,0.1l-0.2-0.2c0.2-1.6,0.2-3.7,0.2-6.3
			v-2.2c0-2-0.1-3.3-0.3-4.1s-0.6-1.4-1.3-1.9s-1.5-0.8-2.4-0.8c-0.7,0-1.3,0.1-1.9,0.4c-0.6,0.3-1.1,0.7-1.6,1.2s-0.7,1-0.8,1.5
			c0,0.5-0.1,1.3-0.1,2.5V42c0,0.5,0,1.6,0.1,3.1c0,1.5,0.1,2.4,0.2,2.6c0.1,0.2,0.1,0.4,0.3,0.5c0.1,0.1,0.3,0.2,0.4,0.2
			c0.2,0,0.8,0.1,2,0.2l0.2,0.1v0.8l-0.1,0.2c-1.5-0.1-3-0.1-4.5-0.1c-1.3,0-2.8,0-4.5,0.1l-0.2-0.2V49l0.2-0.1
			c1.2-0.1,1.9-0.1,2-0.2c0.2,0,0.3-0.1,0.4-0.2c0.1-0.1,0.2-0.3,0.2-0.5s0.1-1,0.1-2.4c0.1-1.4,0.1-2.4,0.1-3.1v-2.1
			c0-1.4-0.1-2.5-0.3-3.2c-0.2-0.8-0.6-1.4-1.2-1.9s-1.4-0.8-2.4-0.8c-0.7,0-1.4,0.1-2,0.4c-0.6,0.3-1.1,0.6-1.5,1.1
			s-0.6,0.8-0.7,1.2s-0.1,1.2-0.1,2.4v2.7c0,0.5,0,1.6,0.1,3.1c0,1.5,0.1,2.4,0.2,2.6c0.1,0.2,0.1,0.4,0.3,0.5
			c0.1,0.1,0.3,0.2,0.4,0.2c0.2,0,0.8,0.1,2,0.2l0.2,0.1v0.8l-0.1,0.2c-1.5-0.1-3-0.1-4.5-0.1c-1.4,0-2.9,0-4.5,0.1l-0.2-0.2V49
			l0.2-0.1c1.2-0.1,1.9-0.1,2-0.2c0.2,0,0.3-0.1,0.4-0.2c0.1-0.1,0.2-0.3,0.2-0.5s0.1-1,0.1-2.4c0.1-1.4,0.1-2.4,0.1-3.1v-3.7
			c0-0.5,0-1.2-0.1-2c0-0.9-0.1-1.4-0.1-1.6c0-0.2-0.1-0.3-0.3-0.4c-0.2-0.1-0.5-0.1-1-0.1h-1.6l-0.2-0.1v-0.8l0.1-0.1
			C159,33.2,161,32.7,162.6,32.1z"/>
		<path d="M206.9,37.3V41v3.6c0,1.3,0,2.2,0.1,2.7c0.1,0.4,0.2,0.7,0.3,0.9c0.1,0.1,0.3,0.2,0.7,0.3c0.3,0.1,1.2,0.2,2.5,0.2
			l0.1,0.1v0.9l-0.1,0.1c-3.1-0.1-4.9-0.1-5.3-0.1s-2.2,0-5.3,0.1l-0.1-0.1v-0.9l0.1-0.1c1.2,0,1.9-0.1,2.3-0.2
			c0.4-0.1,0.6-0.2,0.8-0.3c0.1-0.1,0.2-0.4,0.3-0.7c0.1-0.4,0.1-1.2,0.1-2.5v-4v-8.6v-3.6c0-1.4,0-2.3-0.1-2.7
			c-0.1-0.4-0.1-0.7-0.3-0.8c-0.1-0.1-0.3-0.2-0.7-0.3c-0.3-0.1-1.2-0.2-2.5-0.2l-0.1-0.1v-0.9l0.1-0.1c5.2,0.1,8.3,0.1,9.2,0.1
			c2.9,0,6,0,9.1-0.1l0.1,0.1c-0.2,0.6-0.3,1.3-0.4,2.1c-0.1,0.8-0.1,1.9-0.2,3.3l-0.1,0.1h-0.9l-0.1-0.1c0-0.1-0.1-0.6-0.2-1.4
			c-0.1-0.7-0.2-1.3-0.3-1.9c-1.3-0.4-3.1-0.6-5.3-0.6c-1,0-2.2,0.1-3.6,0.2c-0.1,1-0.2,3.3-0.2,7.1v3.2c1.6,0,2.6,0,3.2,0
			c1.1,0,2,0,2.7-0.1c0.8-0.1,1.2-0.2,1.4-0.2s0.3-0.2,0.3-0.4c0.1-0.2,0.2-0.7,0.2-1.3l0.1-1l0.1-0.1h0.9l0.1,0.2l-0.1,4.1
			c0,0.5,0,1.2,0.1,2c0,1,0.1,1.8,0.1,2.4l-0.2,0.1h-0.9l-0.1-0.1l-0.1-1.6c0-0.6-0.1-1.1-0.2-1.4c-0.1-0.3-0.2-0.5-0.4-0.6
			s-0.6-0.2-1.3-0.2s-1.7-0.1-3.1-0.1C208.5,37.2,207.6,37.2,206.9,37.3z"/>
		<path d="M226.9,32.1l0.4,0.2c-0.1,1.6-0.2,3.7-0.2,6.2v4.2c0,0.3,0,1.1,0.1,2.6c0,1.5,0.1,2.3,0.2,2.6c0.1,0.2,0.1,0.4,0.3,0.5
			s0.2,0.2,0.4,0.2s0.8,0.1,2,0.2l0.2,0.1v0.8l-0.1,0.2c-1.5-0.1-3-0.1-4.5-0.1c-1.4,0-2.9,0-4.5,0.1l-0.2-0.2V49l0.2-0.1
			c1.2-0.1,1.9-0.1,2-0.2c0.2,0,0.3-0.1,0.4-0.2c0.1-0.1,0.2-0.3,0.2-0.5s0.1-1,0.1-2.4c0.1-1.4,0.1-2.4,0.1-3.1v-3.7
			c0-0.5,0-1.2-0.1-2c0-0.9-0.1-1.4-0.1-1.6c0-0.2-0.1-0.3-0.3-0.4c-0.2-0.1-0.5-0.1-1-0.1h-1.6l-0.2-0.1v-0.8l0.1-0.1
			C223.3,33.2,225.3,32.7,226.9,32.1z M225.3,23.8c0.6,0,1.1,0.2,1.5,0.6s0.6,0.9,0.6,1.5s-0.2,1.1-0.6,1.5s-0.9,0.6-1.5,0.6
			s-1.1-0.2-1.5-0.6s-0.6-0.9-0.6-1.5s0.2-1.1,0.6-1.5C224.3,24,224.8,23.8,225.3,23.8z"/>
		<path d="M237.4,32.1l0.4,0.2c-0.1,0.8-0.1,1.9-0.1,3.3c1-0.8,1.9-1.6,2.8-2.5c0.3-0.2,0.5-0.4,0.7-0.5s0.6-0.2,1.1-0.4
			c0.5-0.1,1.1-0.2,1.6-0.2c0.9,0,1.9,0.2,2.7,0.6c0.9,0.4,1.6,0.8,2,1.4c0.5,0.5,0.8,1.1,0.9,1.9c0.2,0.7,0.3,1.6,0.3,2.7v3.3
			c0,0.2,0,1.8,0.1,4.6c0,1.2,0.2,1.9,0.4,2.1c0.2,0.2,1,0.3,2.3,0.3l0.1,0.1v0.8l-0.1,0.1c-1.6-0.1-2.6-0.1-3.2-0.1
			c-0.3,0-1.2,0-2.7,0.1l-0.2-0.2c0.2-1.6,0.2-3.7,0.2-6.3V41c0-1.5,0-2.5-0.1-3.2c-0.1-0.6-0.3-1.2-0.6-1.8
			c-0.3-0.5-0.8-0.9-1.4-1.2s-1.3-0.4-2.1-0.4c-0.6,0-1.2,0.1-1.7,0.2c-0.5,0.1-1,0.4-1.5,0.8c-0.6,0.4-1,0.8-1.3,1.1
			c-0.3,0.4-0.4,0.7-0.5,1s-0.1,0.9-0.1,1.9v3.2c0,0.3,0,1.1,0.1,2.6c0,1.5,0.1,2.3,0.2,2.6c0.1,0.2,0.1,0.4,0.3,0.5
			s0.2,0.2,0.4,0.2s0.8,0.1,2,0.2l0.2,0.1v0.8l-0.1,0.2c-1.5-0.1-3-0.1-4.5-0.1c-1.4,0-2.9,0-4.5,0.1l-0.2-0.2V49l0.2-0.1
			c1.2-0.1,1.9-0.1,2-0.2c0.2,0,0.3-0.1,0.4-0.2c0.1-0.1,0.2-0.3,0.2-0.5s0.1-1,0.1-2.4c0.1-1.4,0.1-2.4,0.1-3.1v-3.7
			c0-0.5,0-1.2-0.1-2c0-0.9-0.1-1.4-0.1-1.6c0-0.2-0.1-0.3-0.3-0.4c-0.2-0.1-0.5-0.1-1-0.1h-1.6l-0.2-0.1v-0.8l0.1-0.1
			C233.8,33.2,235.8,32.7,237.4,32.1z"/>
		<path d="M257.1,37.2l-0.7-0.2l-0.1-0.2v-2.3c2.2-1.6,4.3-2.4,6.4-2.4c1.4,0,2.6,0.3,3.5,0.8s1.6,1.2,2,2s0.6,1.7,0.6,2.8l-0.1,3.7
			v5.5c0,0.8,0.1,1.2,0.2,1.4s0.2,0.3,0.4,0.3c0.1,0.1,0.4,0.1,0.8,0.1l1.1,0.1l0.1,0.2v0.7l-0.1,0.1c-0.9-0.1-1.7-0.1-2.5-0.1
			c-0.7,0-1.6,0-2.7,0.1l-0.3-0.3l0.1-3l-4,3.2c-0.7,0.3-1.4,0.4-2.2,0.4c-1,0-1.8-0.2-2.6-0.5c-0.7-0.4-1.3-0.9-1.6-1.5
			c-0.4-0.6-0.6-1.4-0.6-2.3c0-1.8,0.6-3.2,1.7-4.3c1.1-1,4.2-1.9,9.3-2.6c0-1.8-0.4-3.1-1.2-3.9c-0.8-0.7-1.9-1.1-3.3-1.1
			c-0.7,0-1.4,0.1-2,0.3s-0.9,0.4-1,0.5s-0.4,0.9-1,2.3L257.1,37.2z M265.7,40.1c-3.5,0.6-5.6,1.2-6.5,1.9s-1.3,1.7-1.3,3.1
			c0,1.9,1,2.9,2.9,2.9c1.6,0,3.3-1,4.9-2.9V40.1z"/>
		<path d="M278.5,32.1l0.4,0.2c-0.1,0.8-0.1,1.9-0.1,3.3c1-0.8,1.9-1.6,2.8-2.5c0.3-0.2,0.5-0.4,0.7-0.5s0.6-0.2,1.1-0.4
			c0.5-0.1,1.1-0.2,1.6-0.2c0.9,0,1.9,0.2,2.7,0.6c0.9,0.4,1.6,0.8,2,1.4c0.5,0.5,0.8,1.1,0.9,1.9c0.2,0.7,0.3,1.6,0.3,2.7v3.3
			c0,0.2,0,1.8,0.1,4.6c0,1.2,0.2,1.9,0.4,2.1c0.2,0.2,1,0.3,2.3,0.3l0.1,0.1v0.8l-0.1,0.1c-1.6-0.1-2.6-0.1-3.2-0.1
			c-0.3,0-1.2,0-2.7,0.1l-0.2-0.2c0.2-1.6,0.2-3.7,0.2-6.3V41c0-1.5,0-2.5-0.1-3.2c-0.1-0.6-0.3-1.2-0.6-1.8
			c-0.3-0.5-0.8-0.9-1.4-1.2s-1.3-0.4-2.1-0.4c-0.6,0-1.2,0.1-1.7,0.2c-0.5,0.1-1,0.4-1.5,0.8c-0.6,0.4-1,0.8-1.3,1.1
			c-0.3,0.4-0.4,0.7-0.5,1s-0.1,0.9-0.1,1.9v3.2c0,0.3,0,1.1,0.1,2.6c0,1.5,0.1,2.3,0.2,2.6c0.1,0.2,0.1,0.4,0.3,0.5
			s0.2,0.2,0.4,0.2c0.2,0,0.8,0.1,2,0.2l0.2,0.3v0.8l-0.1,0.2c-1.5-0.1-3-0.1-4.5-0.1c-1.4,0-2.9,0-4.5,0.1l-0.2-0.2V49l0.2-0.1
			c1.2-0.1,1.9-0.1,2-0.2c0.2,0,0.3-0.1,0.4-0.2c0.1-0.1,0.2-0.3,0.2-0.5s0.1-1,0.1-2.4c0.1-1.4,0.1-2.4,0.1-3.1v-3.7
			c0-0.5,0-1.2-0.1-2c0-0.9-0.1-1.4-0.1-1.6c0-0.2-0.1-0.3-0.3-0.4c-0.2-0.1-0.5-0.1-1-0.1h-1.6l-0.2-0.1v-0.8l0.1-0.1
			C274.9,33.2,276.9,32.7,278.5,32.1z"/>
		<path d="M310.4,47.8l-0.7,1.2c-1.6,0.9-3.4,1.3-5.3,1.3c-2.7,0-4.8-0.8-6.3-2.4s-2.2-3.7-2.2-6.3c0-1.2,0.1-2.2,0.4-3.1
			c0.3-0.9,0.6-1.7,1-2.3s0.8-1.1,1.3-1.4c0.5-0.3,1.3-0.8,2.4-1.4c1.1-0.6,2-1,2.5-1.2c0.6-0.2,1.4-0.3,2.4-0.3
			c1.9,0,3.5,0.4,4.7,1.1c-0.2,1.4-0.4,3-0.5,4.7l-0.2,0.1h-0.8l-0.2-0.2c0-1-0.1-1.7-0.2-2.1c-0.1-0.4-0.6-0.7-1.5-1.2
			c-0.9-0.4-1.9-0.6-2.9-0.6s-1.9,0.2-2.7,0.6c-0.8,0.4-1.4,1.1-1.8,2.1s-0.6,2.1-0.6,3.5c0,1.1,0.2,2.2,0.5,3.3s0.7,2,1.3,2.7
			c0.5,0.7,1.2,1.3,2.1,1.7s1.8,0.6,2.9,0.6c0.7,0,1.3-0.1,2-0.3c0.6-0.2,1.4-0.5,2.2-0.9L310.4,47.8z"/>
		<path d="M318.1,32.1l0.4,0.2c-0.1,1.6-0.2,3.7-0.2,6.2v4.2c0,0.3,0,1.1,0.1,2.6c0,1.5,0.1,2.3,0.2,2.6c0.1,0.2,0.1,0.4,0.3,0.5
			s0.2,0.2,0.4,0.2c0.2,0,0.8,0.1,2,0.2l0.2,0.1v0.8l-0.1,0.2c-1.5-0.1-3-0.1-4.5-0.1c-1.4,0-2.9,0-4.5,0.1l-0.2-0.2V49l0.2-0.1
			c1.2-0.1,1.9-0.1,2-0.2c0.2,0,0.3-0.1,0.4-0.2c0.1-0.1,0.2-0.3,0.2-0.5s0.1-1,0.1-2.4c0.1-1.4,0.1-2.4,0.1-3.1v-3.7
			c0-0.5,0-1.2-0.1-2c0-0.9-0.1-1.4-0.1-1.6c0-0.2-0.1-0.3-0.3-0.4c-0.2-0.1-0.5-0.1-1-0.1h-1.6l-0.2-0.1v-0.8l0.1-0.1
			C314.5,33.2,316.4,32.7,318.1,32.1z M316.5,23.8c0.6,0,1.1,0.2,1.5,0.6s0.6,0.9,0.6,1.5s-0.2,1.1-0.6,1.5s-0.9,0.6-1.5,0.6
			s-1.1-0.2-1.5-0.6s-0.6-0.9-0.6-1.5s0.2-1.1,0.6-1.5S315.9,23.8,316.5,23.8z"/>
		<path d="M326.1,37.2l-0.7-0.2l-0.1-0.2v-2.3c2.2-1.6,4.3-2.4,6.4-2.4c1.4,0,2.6,0.3,3.5,0.8s1.6,1.2,2,2s0.6,1.7,0.6,2.8l-0.1,3.7
			v5.5c0,0.8,0.1,1.2,0.2,1.4s0.2,0.3,0.4,0.3c0.1,0.1,0.4,0.1,0.8,0.1l1.1,0.1l0.1,0.2v0.7l-0.1,0.1c-0.9-0.1-1.7-0.1-2.5-0.1
			c-0.7,0-1.6,0-2.7,0.1l-0.3-0.3l0.1-3l-4,3.2c-0.7,0.3-1.4,0.4-2.2,0.4c-1,0-1.8-0.2-2.6-0.5c-0.7-0.4-1.3-0.9-1.6-1.5
			c-0.4-0.6-0.6-1.4-0.6-2.3c0-1.8,0.6-3.2,1.7-4.3c1.1-1,4.2-1.9,9.3-2.6c0-1.8-0.4-3.1-1.2-3.9c-0.8-0.7-1.9-1.1-3.3-1.1
			c-0.7,0-1.4,0.1-2,0.3s-0.9,0.4-1,0.5s-0.4,0.9-1,2.3L326.1,37.2z M334.7,40.1c-3.5,0.6-5.6,1.2-6.5,1.9s-1.3,1.7-1.3,3.1
			c0,1.9,1,2.9,2.9,2.9c1.6,0,3.3-1,4.9-2.9V40.1z"/>
		<path d="M348.1,22.3l0.4,0.2c-0.1,1.4-0.2,4.3-0.2,8.6v11.6c0,0.3,0,1.1,0.1,2.6c0,1.5,0.1,2.3,0.2,2.6c0.1,0.2,0.1,0.4,0.3,0.5
			s0.2,0.2,0.4,0.2c0.2,0,0.8,0.1,2,0.2l0.2,0.1v0.8l-0.1,0.2c-1.5-0.1-3-0.1-4.5-0.1c-1.4,0-2.9,0-4.5,0.1l-0.2-0.2V49l0.2-0.1
			c1.2-0.1,1.9-0.1,2-0.2c0.2,0,0.3-0.1,0.4-0.2c0.1-0.1,0.2-0.3,0.2-0.5s0.1-1,0.1-2.4c0.1-1.4,0.1-2.4,0.1-3.1v-9.6l-0.1-3.9
			c0-1.4-0.1-2.3-0.1-2.9c0-0.5-0.1-0.8-0.2-0.9s-0.2-0.2-0.4-0.2c-0.2,0-0.9-0.1-2.2-0.1l-0.2-0.2v-0.8l0.1-0.2
			C344.5,23.4,346.5,22.9,348.1,22.3z"/>
		<path d="M362.9,23.6l2.3,0.1c1.5,0,2.5,0.1,3,0.1c0.4,0,2.2,0,5.3-0.1l0.1,0.1v0.9l-0.1,0.1c-0.9,0-1.5,0.1-2,0.1s-0.8,0.1-1,0.3
			c-0.2,0.1-0.3,0.5-0.4,1s-0.1,1.2-0.1,2.1v4.3V41v3.6c0,1.4,0,2.3,0.1,2.7s0.2,0.7,0.3,0.8c0.1,0.1,0.3,0.3,0.7,0.3
			c0.3,0.1,1.2,0.2,2.5,0.2l0.1,0.1v0.9l-0.1,0.1c-0.1,0-1.2,0-3.3-0.1c-0.9,0-1.6,0-2.1,0c-0.4,0-2.2,0-5.3,0.1l-0.1-0.1v-0.9
			l0.1-0.1c1.2,0,1.9-0.1,2.3-0.2c0.4-0.1,0.6-0.2,0.8-0.3c0.1-0.1,0.2-0.4,0.3-0.8c0.1-0.4,0.1-1.2,0.1-2.6v-3.9v-8.6v-3.6
			c0-1.4,0-2.3-0.1-2.7c-0.1-0.4-0.1-0.7-0.3-0.8c-0.1-0.1-0.3-0.2-0.7-0.3c-0.3-0.1-1.2-0.2-2.5-0.2l-0.1-0.1v-0.9L362.9,23.6z"/>
		<path d="M380.9,32.1l0.4,0.2c-0.1,0.8-0.1,1.9-0.1,3.3c1-0.8,1.9-1.6,2.8-2.5c0.3-0.2,0.5-0.4,0.7-0.5s0.6-0.2,1.1-0.4
			c0.5-0.1,1.1-0.2,1.6-0.2c0.9,0,1.9,0.2,2.7,0.6c0.9,0.4,1.6,0.8,2,1.4c0.5,0.5,0.8,1.1,0.9,1.9c0.2,0.7,0.3,1.6,0.3,2.7v3.3
			c0,0.2,0,1.8,0.1,4.6c0,1.2,0.2,1.9,0.4,2.1c0.2,0.2,1,0.3,2.3,0.3l0.1,0.1v0.8l-0.1,0.1c-1.6-0.1-2.6-0.1-3.2-0.1
			c-0.3,0-1.2,0-2.7,0.1l-0.2-0.2c0.2-1.6,0.2-3.7,0.2-6.3V41c0-1.5,0-2.5-0.1-3.2c-0.1-0.6-0.3-1.2-0.6-1.8
			c-0.3-0.5-0.8-0.9-1.4-1.2s-1.3-0.4-2.1-0.4c-0.6,0-1.2,0.1-1.7,0.2c-0.5,0.1-1,0.4-1.5,0.8c-0.6,0.4-1,0.8-1.3,1.1
			c-0.3,0.4-0.4,0.7-0.5,1s-0.1,0.9-0.1,1.9v3.2c0,0.3,0,1.1,0.1,2.6c0,1.5,0.1,2.3,0.2,2.6c0.1,0.2,0.1,0.4,0.3,0.5
			s0.2,0.2,0.4,0.2c0.2,0,0.8,0.1,2,0.2l0.2,0.1v0.8l-0.1,0.2c-1.5-0.1-3-0.1-4.5-0.1c-1.4,0-2.9,0-4.5,0.1l-0.2-0.2V49l0.2-0.1
			c1.2-0.1,1.9-0.1,2-0.2c0.2,0,0.3-0.1,0.4-0.2c0.1-0.1,0.2-0.3,0.2-0.5s0.1-1,0.1-2.4c0.1-1.4,0.1-2.4,0.1-3.1v-3.7
			c0-0.5,0-1.2-0.1-2c0-0.9-0.1-1.4-0.1-1.6c0-0.2-0.1-0.3-0.3-0.4c-0.2-0.1-0.5-0.1-1-0.1h-1.6l-0.2-0.1v-0.8l0.1-0.1
			C377.3,33.2,379.3,32.7,380.9,32.1z"/>
		<path d="M398.6,44.3h0.8l0.2,0.2c0,1,0.1,1.9,0.2,2.7c0.4,0.6,1,1.1,2,1.4c0.9,0.4,1.9,0.5,2.8,0.5c1.3,0,2.4-0.4,3.1-1.1
			c0.8-0.7,1.2-1.5,1.2-2.5c0-0.5-0.1-1-0.4-1.4s-0.7-0.7-1.3-1c-0.6-0.3-1.6-0.6-3.1-0.9c-1.3-0.3-2.2-0.5-2.7-0.7s-1-0.4-1.5-0.8
			c-0.5-0.4-0.8-0.9-1.1-1.5c-0.2-0.6-0.4-1.2-0.4-1.9c0-1.7,0.7-3,2-4s3-1.5,4.9-1.5c0.8,0,1.7,0.1,2.7,0.3c1,0.2,1.7,0.4,2.2,0.7
			l0.2,0.3c-0.1,0.5-0.2,1.8-0.2,3.9l-0.2,0.2h-0.7l-0.2-0.2c0-0.8-0.1-1.3-0.2-1.6s-0.3-0.6-0.7-1c-0.4-0.4-0.9-0.6-1.5-0.9
			c-0.7-0.2-1.3-0.4-2.1-0.4c-0.8,0-1.4,0.1-1.9,0.3s-0.9,0.6-1.2,1c-0.3,0.5-0.5,1-0.5,1.6c0,0.5,0.1,0.9,0.3,1.3
			c0.2,0.4,0.5,0.7,0.9,0.9s0.8,0.4,1.2,0.5l2,0.5c1.7,0.4,3,0.8,3.7,1.1s1.3,0.8,1.7,1.4c0.4,0.6,0.6,1.4,0.6,2.3
			c0,1.7-0.7,3.2-2.1,4.4s-3.2,1.8-5.4,1.8c-0.8,0-1.7-0.1-2.9-0.3c-1.2-0.2-2.1-0.4-3-0.6l-0.1-0.2l0.2-1.2
			c0.1-0.4,0.1-0.8,0.1-1.2s0-1.2,0-2.5L398.6,44.3z"/>
		<path d="M413.6,35.2v-0.5l0.1-0.2c1.2-0.4,2.1-0.8,2.8-1.2c0-3.2,0-5.1-0.1-5.6c1.3-0.4,2.3-0.9,3.1-1.4l0.4,0.4
			c-0.1,0.8-0.3,3-0.4,6.8c0.6,0,1.3,0,2,0c1.5,0,2.5,0,3.1-0.1l0.1,0.1l-0.4,1.6l-0.1,0.2c-0.6,0-1.3,0-2.1,0c-0.7,0-1.6,0-2.7,0
			l-0.1,7.6c0,1.7,0,2.9,0.1,3.4s0.3,1,0.7,1.3c0.4,0.3,0.9,0.5,1.6,0.5c0.8,0,1.6-0.2,2.3-0.6l0.4,0.7c-0.3,0.2-1,0.8-2.1,1.9
			c-0.6,0.3-1.3,0.4-2,0.4c-2.8,0-4.2-1.3-4.2-4c0-1,0-1.8,0.1-2.5c0-0.2,0-0.4,0-0.6v-7.7h-0.5c-0.6,0-1.2,0-1.9,0.1L413.6,35.2z"
			/>
		<path d="M432.1,32.1l0.4,0.2c-0.1,1.6-0.2,3.7-0.2,6.2v4.2c0,0.3,0,1.1,0.1,2.6c0,1.5,0.1,2.3,0.2,2.6c0.1,0.2,0.1,0.4,0.3,0.5
			s0.2,0.2,0.4,0.2c0.2,0,0.8,0.1,2,0.2l0.2,0.1v0.8l-0.1,0.2c-1.5-0.1-3-0.1-4.5-0.1c-1.4,0-2.9,0-4.5,0.1l-0.2-0.2V49l0.2-0.1
			c1.2-0.1,1.9-0.1,2-0.2c0.2,0,0.3-0.1,0.4-0.2c0.1-0.1,0.2-0.3,0.2-0.5s0.1-1,0.1-2.4c0.1-1.4,0.1-2.4,0.1-3.1v-3.7
			c0-0.5,0-1.2-0.1-2c0-0.9-0.1-1.4-0.1-1.6c0-0.2-0.1-0.3-0.3-0.4c-0.2-0.1-0.5-0.1-1-0.1h-1.6l-0.2-0.1v-0.8l0.1-0.1
			C428.5,33.2,430.5,32.7,432.1,32.1z M430.5,23.8c0.6,0,1.1,0.2,1.5,0.6s0.6,0.9,0.6,1.5s-0.2,1.1-0.6,1.5s-0.9,0.6-1.5,0.6
			s-1.1-0.2-1.5-0.6s-0.6-0.9-0.6-1.5s0.2-1.1,0.6-1.5C429.5,24,430,23.8,430.5,23.8z"/>
		<path d="M437.1,35.2v-0.5l0.1-0.2c1.2-0.4,2.1-0.8,2.8-1.2c0-3.2,0-5.1-0.1-5.6c1.3-0.4,2.3-0.9,3.1-1.4l0.4,0.4
			c-0.1,0.8-0.3,3-0.4,6.8c0.6,0,1.3,0,2,0c1.5,0,2.5,0,3.1-0.1l0.1,0.1l-0.4,1.6l-0.1,0.2c-0.6,0-1.3,0-2.1,0c-0.7,0-1.6,0-2.7,0
			l-0.1,7.6c0,1.7,0,2.9,0.1,3.4s0.3,1,0.7,1.3s0.9,0.5,1.6,0.5c0.8,0,1.6-0.2,2.3-0.6l0.4,0.7c-0.3,0.2-1,0.8-2.1,1.9
			c-0.6,0.3-1.3,0.4-2,0.4c-2.8,0-4.2-1.3-4.2-4c0-1,0-1.8,0.1-2.5c0-0.2,0-0.4,0-0.6v-7.7h-0.8c-0.6,0-1.2,0-1.9,0.1L437.1,35.2z"
			/>
		<path d="M455.1,32.1l0.4,0.2c-0.1,1.6-0.2,3.7-0.2,6.2v4.3c0,1.6,0.1,2.7,0.4,3.3c0.2,0.6,0.7,1.1,1.3,1.4
			c0.6,0.3,1.3,0.5,2.1,0.5c0.9,0,1.7-0.2,2.5-0.5c0.7-0.4,1.4-0.8,1.9-1.5c0.5-0.6,0.8-1.1,0.9-1.3s0.1-0.8,0.1-1.9l0.1-2.1v-2
			c0-0.5,0-1.2-0.1-2c0-0.9-0.1-1.4-0.1-1.6c0-0.2-0.1-0.3-0.3-0.4c-0.2-0.1-0.5-0.1-1-0.1h-1.6l-0.2-0.1v-0.8l0.1-0.1
			c2.4-0.3,4.4-0.7,6-1.4l0.4,0.2c-0.1,1.6-0.2,3.7-0.2,6.2v3.3c0,0.2,0,1.7,0.1,4.5c0,1.1,0.1,1.7,0.2,1.9s0.3,0.4,0.4,0.5
			c0.2,0.1,0.7,0.1,1.7,0.1h0.5l0.2,0.1v0.7l-0.1,0.2c-1.7-0.1-2.9-0.1-3.5-0.1c-0.8,0-1.6,0-2.6,0.1l-0.2-0.1
			c0.1-1.3,0.1-2.3,0.2-3.2c-0.8,0.6-1.7,1.4-2.7,2.4c-0.4,0.4-0.9,0.7-1.7,1c-0.7,0.3-1.5,0.4-2.4,0.4c-1.4,0-2.5-0.2-3.2-0.7
			c-0.8-0.4-1.3-1-1.6-1.8s-0.5-2.1-0.5-4v-1.5v-3.6c0-0.5,0-1.2-0.1-2c0-0.9-0.1-1.4-0.1-1.6c0-0.2-0.1-0.3-0.3-0.4
			c-0.2-0.1-0.5-0.1-1-0.1h-1.6l-0.2-0.1v-0.8l0.1-0.1C451.4,33.2,453.4,32.7,455.1,32.1z"/>
		<path d="M472.4,35.2v-0.5l0.1-0.2c1.2-0.4,2.1-0.8,2.8-1.2c0-3.2,0-5.1-0.1-5.6c1.3-0.4,2.3-0.9,3.1-1.4l0.4,0.4
			c-0.1,0.8-0.3,3-0.4,6.8c0.6,0,1.3,0,2,0c1.5,0,2.5,0,3.1-0.1l0.1,0.1l-0.4,1.6l-0.1,0.2c-0.6,0-1.3,0-2.1,0c-0.7,0-1.6,0-2.7,0
			l-0.1,7.6c0,1.7,0,2.9,0.1,3.4s0.3,1,0.7,1.3s0.9,0.5,1.6,0.5c0.8,0,1.6-0.2,2.3-0.6l0.4,0.7c-0.3,0.2-1,0.8-2.1,1.9
			c-0.6,0.3-1.3,0.4-2,0.4c-2.8,0-4.2-1.3-4.2-4c0-1,0-1.8,0.1-2.5c0-0.2,0-0.4,0-0.6v-7.7h-0.8c-0.6,0-1.2,0-1.9,0.1L472.4,35.2z"
			/>
		<path d="M500.3,47l-0.6,1.3c-1.3,0.8-2.4,1.4-3.4,1.6c-1,0.2-1.9,0.4-2.7,0.4c-1.5,0-2.9-0.3-4.2-0.9c-1.3-0.6-2.4-1.6-3.2-3
			s-1.3-3.1-1.3-5c0-1.3,0.2-2.5,0.5-3.5s0.7-1.8,1-2.3c0.4-0.5,0.9-1.1,1.8-1.7c0.8-0.6,1.7-1.1,2.7-1.5c0.9-0.4,2-0.6,3-0.6
			c1.5,0,2.8,0.3,3.9,1c1.1,0.7,1.9,1.6,2.4,2.7c0.5,1.1,0.7,2.2,0.7,3.5c0,0.4,0,0.8-0.1,1.1l-0.2,0.2c-0.8,0.2-2,0.3-3.4,0.4
			c-1.4,0.1-2.4,0.1-2.8,0.1h-6c0,2.6,0.7,4.4,1.9,5.7c1.3,1.2,2.8,1.8,4.6,1.8c0.9,0,1.7-0.1,2.5-0.4c0.8-0.3,1.6-0.7,2.5-1.2
			L500.3,47z M488.5,39.5c0.2,0,1.1,0.1,2.6,0.1s2.6,0.1,3.3,0.1c1.7,0,2.8,0,3.1-0.1c0-0.3,0-0.5,0-0.7c0-1.9-0.4-3.3-1.2-4.3
			c-0.8-0.9-1.8-1.4-3.2-1.4c-1.5,0-2.6,0.5-3.4,1.6C488.9,35.8,488.5,37.4,488.5,39.5z"/>
	</g>
	<path class="st0" d="M37.1,5.3c-17.1,0-31,14-31,31.1S20,67.5,37.2,67.5c17.1,0,31.1-13.9,31.1-31.1C68.2,19.3,54.3,5.3,37.1,5.3z
		 M26.2,25.9L26.1,26c-1.1,0.1-1.8,0.1-1.9,0.1c-0.3,0.1-0.5,0.3-0.6,0.6c-0.1,0.8-0.2,2.5-0.2,5.2v8.8c0,2.7,0.1,4.4,0.2,5.2
		c0.1,0.3,0.2,0.5,0.6,0.6c0.1,0.1,0.8,0.1,1.9,0.1l0.1,0.1v1.2L26.1,48c-1.1-0.1-2.8-0.1-5.1-0.1s-4,0-5.1,0.1l-0.1-0.1v-1.1
		l0.1-0.1c1.1-0.1,1.8-0.1,1.9-0.1c0.3-0.1,0.5-0.3,0.6-0.6c0.1-0.8,0.2-2.5,0.2-5.2v-8.9c0-2.7-0.1-4.4-0.2-5.2
		c-0.1-0.3-0.2-0.5-0.6-0.6C17.7,26,17,26,15.9,26l-0.1-0.1v-1.1l0.1-0.1c1,0.1,2.7,0.1,5.1,0.1s4.1,0,5.1-0.1l0.1,0.1V25.9z
		 M45.2,26.6c-0.1,0.4-0.1,1-0.1,1.6L45,29.5l-0.1,0.1h-1l-0.1-0.1c0-1.5-0.1-2.4-0.3-2.6c-0.2-0.4-1.8-0.5-4.7-0.5
		c-0.4,0-1.2,0-2.2,0.1c-0.1,1.1-0.1,3.2-0.1,6.1v2.2l1.9,0.1c0.6,0,1.6,0,3.1-0.1c0.3,0,0.5-0.1,0.6-0.2c0.1-0.3,0.3-1,0.3-2.2
		l0.1-0.1h1l0.1,0.1c-0.1,1.3-0.1,2.4-0.1,3.4c0,1.1,0,2.4,0.1,3.7l-0.1,0.3h-1.1l-0.1-0.1c0-1.2-0.1-1.9-0.1-2.1
		c-0.2-0.4-0.7-0.6-1.7-0.7c-0.7-0.1-1.3-0.1-1.9-0.1c-0.7,0-1.5,0-2.1,0.1v3.9c0,2.6,0.1,4.4,0.2,5.2c0.1,0.3,0.2,0.5,0.6,0.6
		c0.1,0,0.9,0.1,2.4,0.1l0.1,0.1v1.1L39.7,48L33,47.9c-1,0-2.3,0-3.9,0.1L29,47.9v-1.1l0.1-0.1c1.1-0.1,1.8-0.1,1.9-0.1
		c0.3-0.1,0.5-0.3,0.6-0.6c0.1-0.8,0.2-2.5,0.2-5.2v-8.9c0-2.6-0.1-4.4-0.2-5.2c-0.1-0.3-0.2-0.5-0.6-0.6C30.9,26,30.2,26,29.1,26
		L29,25.9v-1.1l0.1-0.1c1,0.1,2.7,0.1,5.1,0.1c1.6,0,5.3,0,11.2-0.1l0.1,0.1L45.2,26.6z M58.6,25.9L58.4,26
		c-1.1,0.1-1.8,0.1-1.9,0.1c-0.3,0.1-0.5,0.3-0.6,0.6c-0.1,0.8-0.2,2.5-0.2,5.2v8.8c0,2.7,0.1,4.4,0.2,5.2c0.1,0.3,0.2,0.5,0.6,0.6
		c0.1,0.1,0.8,0.1,1.9,0.1l0.1,0.1v1.2L58.4,48c-1.1-0.1-2.8-0.1-5.1-0.1s-4,0-5.1,0.1L48,48.1V47l0.1-0.1c1.1-0.1,1.8-0.1,1.9-0.1
		c0.3-0.1,0.5-0.3,0.6-0.6c0.1-0.8,0.2-2.5,0.2-5.2v-8.9c0-2.7-0.1-4.4-0.2-5.2c-0.1-0.3-0.2-0.5-0.6-0.6c-0.1-0.1-0.8-0.1-1.9-0.1
		L48,25.9v-1.1l0.1-0.1c1,0.1,2.7,0.1,5.1,0.1s4.1,0,5.1-0.1l0.1,0.1v1.1H58.6z"/>
</g>
</svg>
