<svg id="Layer_1" data-name="Layer 1" xmlns="http://www.w3.org/2000/svg" viewBox="0 0 265 265"><defs><style>.cls-1{fill:#414141;}.cls-2{fill:#c8c8c8;}.cls-3,.cls-4{fill:none;stroke-miterlimit:10;stroke-width:7px;}.cls-3{stroke:#c8c8c8;}.cls-4{stroke:#0077c4;stroke-linecap:round;}</style></defs><title>returns-MSCI-Emerging</title><g id="returns-MSCI-Emerging"><g id="percent"><path class="cls-1" d="M99.93,135.06a11.07,11.07,0,0,1,1.71,6,12.4,12.4,0,0,1-1.75,6.71,11.48,11.48,0,0,1-4.82,4.3,15.81,15.81,0,0,1-6.93,1.48,16.28,16.28,0,0,1-6.86-1.41,11.57,11.57,0,0,1-4.88-4.09,11.14,11.14,0,0,1-1.8-6.37h5.48a7.8,7.8,0,0,0,1,3.93,6.69,6.69,0,0,0,2.8,2.62,9.41,9.41,0,0,0,4.28.92,8.2,8.2,0,0,0,5.9-2,7.82,7.82,0,0,0,2.13-5.95,7.1,7.1,0,0,0-2.39-5.84,10.22,10.22,0,0,0-6.64-1.95H83.27V129h3.87a10.39,10.39,0,0,0,4.62-.93,6.4,6.4,0,0,0,2.82-2.61,7.58,7.58,0,0,0,.94-3.81,7.75,7.75,0,0,0-1.86-5.61,7.39,7.39,0,0,0-5.55-1.92,8.48,8.48,0,0,0-4,.91,6.64,6.64,0,0,0-2.69,2.56,7.54,7.54,0,0,0-1,3.89H75a11.17,11.17,0,0,1,1.66-6,11.58,11.58,0,0,1,4.64-4.25,14.63,14.63,0,0,1,6.86-1.55,15.84,15.84,0,0,1,6.8,1.37,10.12,10.12,0,0,1,4.49,4.09,12.71,12.71,0,0,1,1.6,6.58,9.31,9.31,0,0,1-.73,3.46A10.72,10.72,0,0,1,98,128.6a11.44,11.44,0,0,1-3.74,2.49A9.9,9.9,0,0,1,99.93,135.06Z"/><path class="cls-1" d="M117.22,153h-5.75l17.61-38.26H106v-4.4h28.85v3Z"/><path class="cls-1" d="M134.75,147.8a3.23,3.23,0,0,1,.9,2.36,3,3,0,0,1-.9,2.28,3.95,3.95,0,0,1-5,0,3.1,3.1,0,0,1-.89-2.27,3.51,3.51,0,0,1,5.87-2.36Z"/><path class="cls-1" d="M167.82,135.06a11.08,11.08,0,0,1,1.72,6,12.4,12.4,0,0,1-1.76,6.71,11.42,11.42,0,0,1-4.82,4.3,15.81,15.81,0,0,1-6.93,1.48,16.28,16.28,0,0,1-6.86-1.41,11.57,11.57,0,0,1-4.88-4.09,11.14,11.14,0,0,1-1.8-6.37H148a7.8,7.8,0,0,0,1,3.93,6.69,6.69,0,0,0,2.8,2.62,9.41,9.41,0,0,0,4.28.92,8.19,8.19,0,0,0,5.9-2,7.82,7.82,0,0,0,2.13-5.95,7.1,7.1,0,0,0-2.39-5.84,10.22,10.22,0,0,0-6.64-1.95h-3.86V129H155a10.39,10.39,0,0,0,4.62-.93,6.4,6.4,0,0,0,2.82-2.61,7.58,7.58,0,0,0,.94-3.81,7.75,7.75,0,0,0-1.86-5.61,7.39,7.39,0,0,0-5.55-1.92,8.44,8.44,0,0,0-4,.91,6.66,6.66,0,0,0-2.7,2.56,7.64,7.64,0,0,0-1,3.89h-5.47a11.16,11.16,0,0,1,1.65-6,11.58,11.58,0,0,1,4.64-4.25,14.63,14.63,0,0,1,6.86-1.55,15.84,15.84,0,0,1,6.8,1.37,10.12,10.12,0,0,1,4.49,4.09,12.71,12.71,0,0,1,1.6,6.58,9.12,9.12,0,0,1-.73,3.46,10.72,10.72,0,0,1-2.24,3.34,11.34,11.34,0,0,1-3.74,2.49A9.9,9.9,0,0,1,167.82,135.06Z"/><path class="cls-1" d="M175.66,112.68a5.61,5.61,0,0,1,7.79-2.13,5.44,5.44,0,0,1,2,2.13,6.36,6.36,0,0,1,.69,3v1.5a6.42,6.42,0,0,1-.68,2.94,5.32,5.32,0,0,1-1.95,2.12,5.38,5.38,0,0,1-2.9.78,5.53,5.53,0,0,1-2.95-.78,5.34,5.34,0,0,1-2-2.12,6.31,6.31,0,0,1-.69-2.94v-1.5A6.36,6.36,0,0,1,175.66,112.68Zm1.6,6.5a3.46,3.46,0,0,0,3.31,2.1,3.37,3.37,0,0,0,2-.58,3.61,3.61,0,0,0,1.23-1.52,5.13,5.13,0,0,0,.41-2v-1.5a5.15,5.15,0,0,0-.41-2.06,3.62,3.62,0,0,0-1.24-1.54,3.81,3.81,0,0,0-4,0,3.62,3.62,0,0,0-1.26,1.55,5,5,0,0,0-.42,2v1.5A5,5,0,0,0,177.26,119.18Zm2.59,16.12,13.89-22.22,1.46.93-13.88,22.23ZM190,128.69a5.3,5.3,0,0,1,4.87-2.92,5.48,5.48,0,0,1,2.93.78,5.14,5.14,0,0,1,2,2.13,6.38,6.38,0,0,1,.69,2.95v1.53a6.37,6.37,0,0,1-.69,2.94,5.22,5.22,0,0,1-1.94,2.12,5.32,5.32,0,0,1-2.9.79,5.45,5.45,0,0,1-3-.79,5.27,5.27,0,0,1-2-2.12,6.37,6.37,0,0,1-.7-2.94v-1.53A6.31,6.31,0,0,1,190,128.69Zm1.61,6.51a3.45,3.45,0,0,0,3.3,2.12,3.39,3.39,0,0,0,2-.58,3.53,3.53,0,0,0,1.23-1.52,5.05,5.05,0,0,0,.41-2.06v-1.53a5.11,5.11,0,0,0-.41-2.1,3.32,3.32,0,0,0-1.24-1.5,3.55,3.55,0,0,0-2-.56,3.44,3.44,0,0,0-2,.57,3.59,3.59,0,0,0-1.25,1.5,5.07,5.07,0,0,0-.42,2.09v1.53A5.2,5.2,0,0,0,191.57,135.2Z"/></g><g id="label"><path class="cls-1" d="M84,186.59H82.9V181l.1-5.69-4.77,11.29h-.84l-4.74-11.25.09,5.65v5.6H71.66v-12.8h1.43l4.72,11.28,4.73-11.28H84Z"/><path class="cls-1" d="M88.87,179.72a3.77,3.77,0,0,1-1.4-1.15,2.71,2.71,0,0,1-.49-1.65,2.89,2.89,0,0,1,.54-1.73A3.58,3.58,0,0,1,89.05,174a5.56,5.56,0,0,1,2.22-.42,5,5,0,0,1,2.31.51,3.74,3.74,0,0,1,1.54,1.37,3.62,3.62,0,0,1,.54,1.95H94.58a2.81,2.81,0,0,0-.4-1.5,2.66,2.66,0,0,0-1.14-1,3.91,3.91,0,0,0-1.77-.37,4.33,4.33,0,0,0-1.74.31,2.51,2.51,0,0,0-1.09.85,2,2,0,0,0-.37,1.19,1.9,1.9,0,0,0,.32,1.11,3.06,3.06,0,0,0,1.07.88,10.41,10.41,0,0,0,2,.74,11.45,11.45,0,0,1,2.36.87,3.93,3.93,0,0,1,1.41,1.21,3,3,0,0,1,.49,1.72,3,3,0,0,1-.56,1.78,3.62,3.62,0,0,1-1.57,1.16,6.06,6.06,0,0,1-2.28.4,6.59,6.59,0,0,1-2.3-.41,4.13,4.13,0,0,1-1.78-1.28,3.26,3.26,0,0,1-.7-2.14h1.09a2.57,2.57,0,0,0,.53,1.67,3,3,0,0,0,1.38,1,5.2,5.2,0,0,0,1.78.3,4.68,4.68,0,0,0,1.75-.3,2.57,2.57,0,0,0,1.16-.85,2.09,2.09,0,0,0,.41-1.26,2.16,2.16,0,0,0-.33-1.22,2.8,2.8,0,0,0-1.07-.89,12.26,12.26,0,0,0-2.1-.77A12.28,12.28,0,0,1,88.87,179.72Z"/><path class="cls-1" d="M105.9,185.67a4.72,4.72,0,0,1-3.29,1.09,4.47,4.47,0,0,1-2.53-.72,4.71,4.71,0,0,1-1.69-2,7.17,7.17,0,0,1-.6-3v-1.6a7.19,7.19,0,0,1,.6-3,4.73,4.73,0,0,1,1.7-2,4.64,4.64,0,0,1,2.59-.72,5.25,5.25,0,0,1,2.35.5,3.78,3.78,0,0,1,1.57,1.42,5.37,5.37,0,0,1,.71,2.26h-1.08q-.42-3.25-3.55-3.25a3.45,3.45,0,0,0-2,.6,3.69,3.69,0,0,0-1.32,1.69,6.62,6.62,0,0,0-.46,2.54V181a6.86,6.86,0,0,0,.44,2.52,3.9,3.9,0,0,0,1.29,1.72,3.31,3.31,0,0,0,2,.62,3.6,3.6,0,0,0,2.54-.81,3.86,3.86,0,0,0,1.08-2.44h1.08A4.62,4.62,0,0,1,105.9,185.67Z"/><path class="cls-1" d="M110.36,186.59v-12.8h1.08v12.8Z"/><path class="cls-1" d="M127.63,185.67v.92h-8v-12.8h7.91v.92h-6.83v4.82h6v.92h-6v5.22Z"/><path class="cls-1" d="M142.33,177.74a3.78,3.78,0,0,1,.79,2.65v6.2h-1v-6.21a2.73,2.73,0,0,0-.59-2,2.32,2.32,0,0,0-1.7-.58,2.76,2.76,0,0,0-1.46.37,2.79,2.79,0,0,0-1.36,2.11v6.3h-1.05v-6.3a2.56,2.56,0,0,0-.6-1.91,2.42,2.42,0,0,0-1.71-.57,2.52,2.52,0,0,0-1.79.63,3.53,3.53,0,0,0-1,1.61v6.54h-1.06v-9.51h1l0,1.53a3.47,3.47,0,0,1,3.08-1.71,3.37,3.37,0,0,1,1.81.45,2.41,2.41,0,0,1,1,1.39,3.61,3.61,0,0,1,1.32-1.34,3.7,3.7,0,0,1,1.93-.5A3,3,0,0,1,142.33,177.74Z"/><path class="cls-1" d="M146.45,181.89v.2a4.5,4.5,0,0,0,.41,1.92,3.36,3.36,0,0,0,1.16,1.36,2.87,2.87,0,0,0,1.68.5,3.45,3.45,0,0,0,1.51-.31,3.26,3.26,0,0,0,1.16-1l.66.5a3.87,3.87,0,0,1-1.34,1.23,4.12,4.12,0,0,1-2,.46,4,4,0,0,1-2.19-.6,4.1,4.1,0,0,1-1.53-1.66,5.24,5.24,0,0,1-.54-2.41v-.37a5.57,5.57,0,0,1,.55-2.53,4.27,4.27,0,0,1,1.5-1.69,3.67,3.67,0,0,1,2-.6A3.46,3.46,0,0,1,152.8,179a5.56,5.56,0,0,1,.44,2.26v.64Zm1.6-3.7a3.07,3.07,0,0,0-1.05,1.12,4.65,4.65,0,0,0-.51,1.69h5.69v-.12a3.88,3.88,0,0,0-.33-1.53,2.68,2.68,0,0,0-.92-1.13,2.49,2.49,0,0,0-1.46-.42A2.66,2.66,0,0,0,148.05,178.19Z"/><path class="cls-1" d="M159.86,178a4.83,4.83,0,0,0-.7-.06,2.51,2.51,0,0,0-1.7.57,3,3,0,0,0-.94,1.56v6.56h-1.06v-9.51h1l0,1.49a3,3,0,0,1,1.07-1.23,2.86,2.86,0,0,1,1.6-.44l.39,0a1.37,1.37,0,0,1,.31.08Z"/><path class="cls-1" d="M169,177.08v9.34a4.57,4.57,0,0,1-.47,2.12,3.31,3.31,0,0,1-1.33,1.37,4.2,4.2,0,0,1-2,.47,4.34,4.34,0,0,1-1.85-.42,3.62,3.62,0,0,1-1.47-1.2l.59-.65a3.77,3.77,0,0,0,1.22,1,3.18,3.18,0,0,0,1.44.34,2.71,2.71,0,0,0,2.09-.8,3.2,3.2,0,0,0,.74-2.24v-1.1a3.33,3.33,0,0,1-1.23,1,3.8,3.8,0,0,1-1.73.37,3.13,3.13,0,0,1-1.93-.61,3.86,3.86,0,0,1-1.27-1.71,6.57,6.57,0,0,1-.44-2.51v-.19a6.9,6.9,0,0,1,.43-2.56,3.81,3.81,0,0,1,1.27-1.69,3.3,3.3,0,0,1,2-.59,3.55,3.55,0,0,1,1.74.4,3.35,3.35,0,0,1,1.22,1.15l.05-1.37Zm-2.1,8.3a3.19,3.19,0,0,0,1.05-1.29v-4.4a3.32,3.32,0,0,0-1-1.35,2.71,2.71,0,0,0-1.74-.53,2.4,2.4,0,0,0-1.56.51,3,3,0,0,0-.94,1.4,6,6,0,0,0-.31,2v.19a6,6,0,0,0,.31,2,2.9,2.9,0,0,0,.93,1.39,2.38,2.38,0,0,0,1.56.51A2.94,2.94,0,0,0,166.85,185.38Z"/><path class="cls-1" d="M173.07,173.81a.73.73,0,0,1,.2.51.69.69,0,0,1-.2.5.72.72,0,0,1-.53.2.7.7,0,0,1-.52-.2.69.69,0,0,1-.2-.5.73.73,0,0,1,.2-.51.7.7,0,0,1,.52-.2A.72.72,0,0,1,173.07,173.81ZM172,186.59v-9.51h1.05v9.51Z"/><path class="cls-1" d="M182.51,177.73a3.83,3.83,0,0,1,.78,2.66v6.2h-1.06v-6.2a2.85,2.85,0,0,0-.57-2,2.23,2.23,0,0,0-1.67-.58,2.56,2.56,0,0,0-1.76.64,3.9,3.9,0,0,0-1.07,1.61v6.53h-1v-9.51h1l0,1.6a3.91,3.91,0,0,1,1.31-1.31,3.49,3.49,0,0,1,1.79-.47A3,3,0,0,1,182.51,177.73Z"/><path class="cls-1" d="M193.42,177.08v9.34a4.45,4.45,0,0,1-.47,2.12,3.25,3.25,0,0,1-1.33,1.37,4.15,4.15,0,0,1-2,.47,4.34,4.34,0,0,1-1.85-.42,3.52,3.52,0,0,1-1.46-1.2l.58-.65a3.8,3.8,0,0,0,1.23,1,3.18,3.18,0,0,0,1.44.34,2.7,2.7,0,0,0,2.08-.8,3.2,3.2,0,0,0,.74-2.24v-1.1a3.33,3.33,0,0,1-1.23,1,3.76,3.76,0,0,1-1.72.37,3.16,3.16,0,0,1-1.94-.61,3.93,3.93,0,0,1-1.27-1.71,6.77,6.77,0,0,1-.44-2.51v-.19a6.7,6.7,0,0,1,.44-2.56,3.72,3.72,0,0,1,1.26-1.69,3.32,3.32,0,0,1,2-.59,3.55,3.55,0,0,1,1.74.4,3.38,3.38,0,0,1,1.23,1.15l0-1.37Zm-2.1,8.3a3.19,3.19,0,0,0,1.05-1.29v-4.4a3.24,3.24,0,0,0-1-1.35,2.7,2.7,0,0,0-1.73-.53,2.41,2.41,0,0,0-1.57.51,3.08,3.08,0,0,0-.94,1.4,6.26,6.26,0,0,0-.31,2v.19a6.3,6.3,0,0,0,.31,2,3.05,3.05,0,0,0,.93,1.39,2.4,2.4,0,0,0,1.56.51A2.94,2.94,0,0,0,191.32,185.38Z"/><path class="cls-1" d="M89.54,204.59H88.46V199l.1-5.69-4.77,11.29H83l-4.74-11.25L78.3,199v5.6H77.22v-12.8h1.43l4.72,11.28,4.73-11.28h1.44Z"/><path class="cls-1" d="M99.64,203.64a3,3,0,0,0,.22.83v.12H98.73a5.06,5.06,0,0,1-.21-1.33,3.79,3.79,0,0,1-1.34,1.08,4.07,4.07,0,0,1-1.88.42,3.4,3.4,0,0,1-1.6-.35,2.66,2.66,0,0,1-.94-3.95,3.38,3.38,0,0,1,1.5-1.05,6.75,6.75,0,0,1,2.31-.36h1.94V198a2.07,2.07,0,0,0-.64-1.62,2.56,2.56,0,0,0-1.81-.58,3.18,3.18,0,0,0-1.3.26,2.13,2.13,0,0,0-.92.7,1.55,1.55,0,0,0-.33,1H92.46a2.27,2.27,0,0,1,.46-1.35,3.32,3.32,0,0,1,1.3-1,4.28,4.28,0,0,1,1.88-.4,4.43,4.43,0,0,1,1.81.35,2.65,2.65,0,0,1,1.22,1,3.14,3.14,0,0,1,.44,1.7v4.6A7.41,7.41,0,0,0,99.64,203.64Zm-2.31-.33A3,3,0,0,0,98.51,202v-2.1h-1.8a5.89,5.89,0,0,0-1.84.25,2.56,2.56,0,0,0-1.18.73,1.72,1.72,0,0,0-.41,1.14,1.74,1.74,0,0,0,.27.94,1.76,1.76,0,0,0,.74.66,2.41,2.41,0,0,0,1.13.25A3.44,3.44,0,0,0,97.33,203.31Z"/><path class="cls-1" d="M107,196a5,5,0,0,0-.71-.06,2.51,2.51,0,0,0-1.69.57,3,3,0,0,0-.94,1.56v6.56h-1.06v-9.51h1l0,1.49a3.05,3.05,0,0,1,1.06-1.23,2.92,2.92,0,0,1,1.61-.44l.38,0a1.48,1.48,0,0,1,.32.08Z"/><path class="cls-1" d="M111.05,199.8l-1.2,1.15v3.64h-1v-13.5h1v8.63l1-1.08,3.65-3.56h1.33l-4,4,4.39,5.51H114.9Z"/><path class="cls-1" d="M118.27,199.89v.2a4.36,4.36,0,0,0,.42,1.92,3.33,3.33,0,0,0,1.15,1.36,2.88,2.88,0,0,0,1.69.5,3.41,3.41,0,0,0,1.5-.31,3.26,3.26,0,0,0,1.16-1l.67.5a4,4,0,0,1-1.35,1.23,4.48,4.48,0,0,1-4.22-.14,4,4,0,0,1-1.52-1.66,5.13,5.13,0,0,1-.55-2.41v-.37a5.45,5.45,0,0,1,.56-2.53,4.24,4.24,0,0,1,1.49-1.69,3.7,3.7,0,0,1,2-.6,3.65,3.65,0,0,1,2,.55,3.48,3.48,0,0,1,1.29,1.54,5.56,5.56,0,0,1,.44,2.26v.64Zm1.6-3.7a3,3,0,0,0-1,1.12,4.46,4.46,0,0,0-.51,1.69H124v-.12a3.88,3.88,0,0,0-.33-1.53,2.66,2.66,0,0,0-.91-1.13,2.51,2.51,0,0,0-1.46-.42A2.67,2.67,0,0,0,119.87,196.19Z"/><path class="cls-1" d="M131.07,204.62a3.36,3.36,0,0,1-.5.1,4.44,4.44,0,0,1-.63,0,2,2,0,0,1-1.53-.57,2.75,2.75,0,0,1-.54-1.92v-6.33h-1.74v-.86h1.74v-2.45h1.06v2.45h2v.86h-2v6.33a1.77,1.77,0,0,0,.33,1.24,1.22,1.22,0,0,0,.9.33,4.71,4.71,0,0,0,.86-.1Z"/><path class="cls-1" d="M134.57,199.59a2.68,2.68,0,0,1-1.09-.83,2.11,2.11,0,0,1-.38-1.28,2.28,2.28,0,0,1,.41-1.3,2.85,2.85,0,0,1,1.18-.93,4.19,4.19,0,0,1,1.76-.35,4.38,4.38,0,0,1,1.88.37,2.81,2.81,0,0,1,1.21,1,2.67,2.67,0,0,1,.43,1.47H138.9a1.66,1.66,0,0,0-.29-1,2,2,0,0,0-.85-.72,3,3,0,0,0-1.31-.27,3.29,3.29,0,0,0-1.3.23,1.84,1.84,0,0,0-.76.62,1.47,1.47,0,0,0-.24.8,1.36,1.36,0,0,0,.2.77,1.68,1.68,0,0,0,.75.58,7.32,7.32,0,0,0,1.59.5,8.72,8.72,0,0,1,1.9.64,2.78,2.78,0,0,1,1.08.89,2.27,2.27,0,0,1,.35,1.28,2.34,2.34,0,0,1-.44,1.38,2.89,2.89,0,0,1-1.23.94,5.31,5.31,0,0,1-3.84-.06,3,3,0,0,1-1.29-1.05,2.48,2.48,0,0,1-.44-1.41h1.05a1.74,1.74,0,0,0,.85,1.49,3.5,3.5,0,0,0,1.83.46,3.33,3.33,0,0,0,1.33-.23,2,2,0,0,0,.84-.63,1.37,1.37,0,0,0,.28-.84,1.59,1.59,0,0,0-.54-1.19,4.26,4.26,0,0,0-2-.81A9,9,0,0,1,134.57,199.59Z"/><path class="cls-1" d="M147.62,204.59v-12.8h1.08v12.8Z"/><path class="cls-1" d="M158.51,195.73a3.83,3.83,0,0,1,.78,2.66v6.2h-1.06v-6.2a2.85,2.85,0,0,0-.57-2,2.23,2.23,0,0,0-1.67-.58,2.58,2.58,0,0,0-1.76.64,3.9,3.9,0,0,0-1.07,1.61v6.53h-1v-9.51h1l0,1.6a3.91,3.91,0,0,1,1.31-1.31,3.53,3.53,0,0,1,1.8-.47A3,3,0,0,1,158.51,195.73Z"/><path class="cls-1" d="M169.43,191.09v13.5h-1l-.05-1.28a3.26,3.26,0,0,1-1.23,1.07,3.66,3.66,0,0,1-1.74.38,3.15,3.15,0,0,1-1.93-.61,3.93,3.93,0,0,1-1.27-1.71,6.57,6.57,0,0,1-.45-2.51v-.19a6.89,6.89,0,0,1,.44-2.56,3.83,3.83,0,0,1,1.28-1.69,3.29,3.29,0,0,1,1.95-.59,3.6,3.6,0,0,1,1.71.39,3.32,3.32,0,0,1,1.22,1.11v-5.31Zm-2.12,12.3a3,3,0,0,0,1.06-1.26v-4.48a3.28,3.28,0,0,0-1-1.33,2.73,2.73,0,0,0-1.72-.51,2.43,2.43,0,0,0-1.57.51,3.08,3.08,0,0,0-.94,1.4,6.26,6.26,0,0,0-.31,2v.19a6.3,6.3,0,0,0,.31,2,3.05,3.05,0,0,0,.93,1.39,2.4,2.4,0,0,0,1.56.51A3,3,0,0,0,167.31,203.39Z"/><path class="cls-1" d="M172.84,199.89v.2a4.5,4.5,0,0,0,.41,1.92,3.41,3.41,0,0,0,1.15,1.36,2.92,2.92,0,0,0,1.69.5,3.45,3.45,0,0,0,1.51-.31,3.26,3.26,0,0,0,1.16-1l.66.5a3.81,3.81,0,0,1-1.35,1.23,4.46,4.46,0,0,1-4.21-.14,4.1,4.1,0,0,1-1.53-1.66,5.24,5.24,0,0,1-.54-2.41v-.37a5.57,5.57,0,0,1,.55-2.53,4.27,4.27,0,0,1,1.5-1.69,3.67,3.67,0,0,1,2-.6,3.46,3.46,0,0,1,3.33,2.09,5.56,5.56,0,0,1,.44,2.26v.64Zm1.6-3.7a3.07,3.07,0,0,0-1.05,1.12,4.46,4.46,0,0,0-.51,1.69h5.69v-.12a3.88,3.88,0,0,0-.33-1.53,2.68,2.68,0,0,0-.92-1.13,2.49,2.49,0,0,0-1.46-.42A2.66,2.66,0,0,0,174.44,196.19Z"/><path class="cls-1" d="M187.42,195.08h1.24l-3.22,4.66,3.36,4.85h-1.23l-2.72-4-2.7,4H180.9l3.37-4.85L181,195.08h1.24l2.56,3.85Z"/></g><polygon id="arrow" class="cls-2" points="159.71 60.05 142.24 64.64 147.33 69.77 133.86 83.11 122.55 71.81 105.29 89.58 107.89 92.1 122.59 76.97 133.85 88.23 149.88 72.34 154.96 77.47 159.71 60.05"/><circle id="circle" class="cls-3" cx="132.5" cy="132.5" r="114.5"/><path id="bar" class="cls-4" d="M203.89,222A114.5,114.5,0,1,1,132.5,18"/></g></svg>