<svg id="Layer_1" data-name="Layer 1" xmlns="http://www.w3.org/2000/svg" viewBox="0 0 265 265"><defs><style>.cls-1{fill:#414141;}.cls-2{fill:#c8c8c8;}.cls-3,.cls-4{fill:none;stroke-miterlimit:10;stroke-width:7px;}.cls-3{stroke:#c8c8c8;}.cls-4{stroke:#0077c4;stroke-linecap:round;}</style></defs><title>returns-SAP</title><g id="returns-SAP"><g id="percent"><path class="cls-1" d="M74.39,153V149.1l14-15.55a58.47,58.47,0,0,0,4-4.88,15.07,15.07,0,0,0,2-3.58,9.78,9.78,0,0,0,.57-3.32,8.42,8.42,0,0,0-.88-3.88,6.59,6.59,0,0,0-2.55-2.76,7.51,7.51,0,0,0-4-1,8.15,8.15,0,0,0-6.33,2.37,9.07,9.07,0,0,0-2.17,6.36H73.57a13.83,13.83,0,0,1,1.61-6.65A11.71,11.71,0,0,1,80,111.47a15.54,15.54,0,0,1,7.59-1.74,15.37,15.37,0,0,1,6.85,1.42,10.41,10.41,0,0,1,4.46,4,11.4,11.4,0,0,1,1.55,6,14.53,14.53,0,0,1-2.15,7.25,44.15,44.15,0,0,1-5.85,7.75L81,148.58h21.38V153Z"/><path class="cls-1" d="M117.68,153V116.79l-10.9,4v-4.89l15.53-5.83h.85V153Z"/><path class="cls-1" d="M135.78,147.77a3.23,3.23,0,0,1,.9,2.36,3,3,0,0,1-.9,2.28,3.95,3.95,0,0,1-5,0,3.1,3.1,0,0,1-.89-2.27,3.51,3.51,0,0,1,5.87-2.36Z"/><path class="cls-1" d="M168.23,135.19a10.51,10.51,0,0,1,2,6.24,11.82,11.82,0,0,1-1.77,6.53,11.2,11.2,0,0,1-4.85,4.17,17.6,17.6,0,0,1-13.9,0,11.08,11.08,0,0,1-4.85-4.16,11.84,11.84,0,0,1-1.76-6.54,10.83,10.83,0,0,1,1.9-6.29A11.75,11.75,0,0,1,150.2,131a11.07,11.07,0,0,1-4.54-3.91,10,10,0,0,1-1.64-5.64,11.82,11.82,0,0,1,1.61-6.29,10.4,10.4,0,0,1,4.47-4,14.89,14.89,0,0,1,6.51-1.37,14.59,14.59,0,0,1,6.51,1.39,10.53,10.53,0,0,1,4.45,4,11.72,11.72,0,0,1,1.61,6.27,9.94,9.94,0,0,1-1.67,5.65,11.19,11.19,0,0,1-4.57,3.93A12.14,12.14,0,0,1,168.23,135.19Zm-5.68,11.89a7.67,7.67,0,0,0,2.15-5.77,8.52,8.52,0,0,0-1-4.19,7.26,7.26,0,0,0-2.89-2.87,8.66,8.66,0,0,0-4.23-1,8.52,8.52,0,0,0-4.25,1,7,7,0,0,0-2.8,2.86,8.8,8.8,0,0,0-1,4.2,7.67,7.67,0,0,0,2.15,5.77,9.51,9.51,0,0,0,11.87,0ZM152.89,115a6.28,6.28,0,0,0-2.5,2.58,8.93,8.93,0,0,0,0,7.73,6.23,6.23,0,0,0,2.51,2.55,8.1,8.1,0,0,0,7.46,0,6.24,6.24,0,0,0,2.49-2.55,8.06,8.06,0,0,0,.87-3.84,7.91,7.91,0,0,0-.89-3.79,6.69,6.69,0,0,0-2.5-2.64,7.2,7.2,0,0,0-3.7-.95A7.43,7.43,0,0,0,152.89,115Z"/><path class="cls-1" d="M176.69,112.65a5.61,5.61,0,0,1,7.79-2.13,5.44,5.44,0,0,1,2,2.13,6.36,6.36,0,0,1,.69,3v1.5a6.42,6.42,0,0,1-.68,2.94,5.32,5.32,0,0,1-1.95,2.12,5.38,5.38,0,0,1-2.9.78,5.53,5.53,0,0,1-2.95-.78,5.34,5.34,0,0,1-2-2.12,6.31,6.31,0,0,1-.69-2.94v-1.5A6.36,6.36,0,0,1,176.69,112.65Zm1.6,6.5a3.53,3.53,0,0,0,1.26,1.52,3.49,3.49,0,0,0,2,.58,3.32,3.32,0,0,0,2-.58,3.56,3.56,0,0,0,1.24-1.52,5.13,5.13,0,0,0,.41-2v-1.5a5.15,5.15,0,0,0-.41-2.06,3.57,3.57,0,0,0-1.25-1.54,3.79,3.79,0,0,0-4,0,3.62,3.62,0,0,0-1.26,1.55,5,5,0,0,0-.42,2v1.5A5,5,0,0,0,178.29,119.15Zm2.59,16.12,13.89-22.22,1.46.94-13.89,22.22ZM191,128.66a5.3,5.3,0,0,1,4.87-2.92,5.48,5.48,0,0,1,2.93.78,5.14,5.14,0,0,1,2,2.13,6.38,6.38,0,0,1,.69,2.95v1.53a6.37,6.37,0,0,1-.69,2.94,5.22,5.22,0,0,1-1.94,2.12,5.33,5.33,0,0,1-2.9.8,5.45,5.45,0,0,1-3-.8,5.27,5.27,0,0,1-2-2.12,6.25,6.25,0,0,1-.7-2.94V131.6A6.19,6.19,0,0,1,191,128.66Zm1.61,6.51a3.45,3.45,0,0,0,3.3,2.12,3.41,3.41,0,0,0,2-.58,3.47,3.47,0,0,0,1.23-1.52,5.05,5.05,0,0,0,.41-2.06V131.6a5.11,5.11,0,0,0-.41-2.1,3.32,3.32,0,0,0-1.24-1.5,3.55,3.55,0,0,0-2-.56,3.44,3.44,0,0,0-2,.57,3.52,3.52,0,0,0-1.25,1.5,5.07,5.07,0,0,0-.42,2.09v1.53A5.2,5.2,0,0,0,192.6,135.17Z"/></g><g id="label"><path class="cls-1" d="M118.9,187.69a3.85,3.85,0,0,1-1.4-1.15,3,3,0,0,1,.06-3.37,3.55,3.55,0,0,1,1.52-1.17,5.61,5.61,0,0,1,2.23-.42,5,5,0,0,1,2.31.51,3.87,3.87,0,0,1,1.54,1.37,3.62,3.62,0,0,1,.54,1.95h-1.09a2.89,2.89,0,0,0-.39-1.5,2.72,2.72,0,0,0-1.14-1,3.91,3.91,0,0,0-1.77-.37,4.33,4.33,0,0,0-1.74.31,2.54,2.54,0,0,0-1.1.85,2.09,2.09,0,0,0-.37,1.19,1.91,1.91,0,0,0,.33,1.11,2.88,2.88,0,0,0,1.07.88,10.17,10.17,0,0,0,2,.74,11.07,11.07,0,0,1,2.36.88,3.82,3.82,0,0,1,1.41,1.2,3,3,0,0,1,.48,1.72,2.88,2.88,0,0,1-.56,1.78,3.59,3.59,0,0,1-1.56,1.16,6.06,6.06,0,0,1-2.28.4,6.51,6.51,0,0,1-2.3-.41,4.16,4.16,0,0,1-1.79-1.28,3.29,3.29,0,0,1-.69-2.14h1.09a2.57,2.57,0,0,0,.53,1.67,2.91,2.91,0,0,0,1.37,1,5.3,5.3,0,0,0,1.79.3,4.66,4.66,0,0,0,1.74-.3,2.52,2.52,0,0,0,1.16-.85,2,2,0,0,0,.41-1.26,2.16,2.16,0,0,0-.32-1.22,2.93,2.93,0,0,0-1.08-.89,11.41,11.41,0,0,0-2.09-.76A12.63,12.63,0,0,1,118.9,187.69Z"/><path class="cls-1" d="M136.22,194.56l-1.11-1.29a4.85,4.85,0,0,1-1.61,1.08,4.78,4.78,0,0,1-1.9.38,4.83,4.83,0,0,1-2.12-.43,3.21,3.21,0,0,1-1.38-1.21,3.33,3.33,0,0,1-.48-1.79,2.91,2.91,0,0,1,.31-1.35,4.63,4.63,0,0,1,.84-1.16,12.67,12.67,0,0,1,1.32-1.13l.13-.09a9.12,9.12,0,0,1-1.1-1.62,3.3,3.3,0,0,1-.35-1.46,3.16,3.16,0,0,1,.36-1.54,2.51,2.51,0,0,1,1-1,3.2,3.2,0,0,1,1.55-.36,3.09,3.09,0,0,1,1.46.34,2.4,2.4,0,0,1,1,.92,2.47,2.47,0,0,1,.33,1.26,2.4,2.4,0,0,1-.48,1.44,6,6,0,0,1-1.23,1.24l-1.15.89,3.52,4.1a5.51,5.51,0,0,0,.8-2.93h1a6,6,0,0,1-1.13,3.68l1.75,2.05Zm-3.08-1.06a4.18,4.18,0,0,0,1.35-1l-3.57-4.14-.12-.15-.42.32a5.51,5.51,0,0,0-1.36,1.49,2.69,2.69,0,0,0-.35,1.24,2.53,2.53,0,0,0,.33,1.27,2.3,2.3,0,0,0,1,.92,3.46,3.46,0,0,0,1.62.35A3.75,3.75,0,0,0,133.14,193.5Zm-3-7.86A7.1,7.1,0,0,0,131,187l1.16-.87a4,4,0,0,0,1-.94,1.84,1.84,0,0,0,.33-1.08,1.67,1.67,0,0,0-.2-.8,1.64,1.64,0,0,0-.6-.6,2,2,0,0,0-.94-.22,1.85,1.85,0,0,0-1,.27,1.78,1.78,0,0,0-.64.72,2.33,2.33,0,0,0-.22,1A2.71,2.71,0,0,0,130.12,185.64Z"/><path class="cls-1" d="M146.26,182.24a3.4,3.4,0,0,1,1.47,1.33,4.39,4.39,0,0,1,0,4,3.15,3.15,0,0,1-1.46,1.3,5.7,5.7,0,0,1-2.35.44h-3.28v5.22h-1.08v-12.8h4.36A5.19,5.19,0,0,1,146.26,182.24Zm.08,5.4a2.74,2.74,0,0,0,.8-2,3.12,3.12,0,0,0-.34-1.47,2.52,2.52,0,0,0-1.07-1.05,3.79,3.79,0,0,0-1.81-.39h-3.28v5.74h3.28A3.34,3.34,0,0,0,146.34,187.64Z"/></g><polygon id="arrow" class="cls-2" points="159.71 60.02 142.24 64.61 147.33 69.74 133.86 83.08 122.55 71.78 105.29 89.55 107.89 92.07 122.59 76.94 133.85 88.2 149.88 72.31 154.96 77.44 159.71 60.02"/><circle id="circle" class="cls-3" cx="132.5" cy="132.5" r="114.5"/><path id="bar" class="cls-4" d="M241.85,98.45A114.52,114.52,0,1,1,132.5,18"/></g></svg>